<?xml version="1.0" encoding="UTF-8" standalone="no"?>
<!-- Created with Inkscape (http://www.inkscape.org/) -->

<svg
   xmlns:dc="http://purl.org/dc/elements/1.1/"
   xmlns:cc="http://creativecommons.org/ns#"
   xmlns:rdf="http://www.w3.org/1999/02/22-rdf-syntax-ns#"
   xmlns:svg="http://www.w3.org/2000/svg"
   xmlns="http://www.w3.org/2000/svg"
   xmlns:sodipodi="http://sodipodi.sourceforge.net/DTD/sodipodi-0.dtd"
   xmlns:inkscape="http://www.inkscape.org/namespaces/inkscape"
   width="79.304848mm"
   height="79.304848mm"
   viewBox="0 0 281.00142 281.00143"
   id="svg4646"
   version="1.1"
   inkscape:version="0.91 r13725"
   sodipodi:docname="icon.svg">
  <defs
     id="defs4648">
    <clipPath
       clipPathUnits="userSpaceOnUse"
       id="clipPath5478">
      <path
         style="opacity:1;fill:#61cb72;fill-opacity:1;stroke:none;stroke-width:15;stroke-miterlimit:4;stroke-dasharray:none;stroke-opacity:1"
         d="m 82.46185,240.61465 c -2.19425,7e-4 -4.38989,0.0525 -6.58594,0.15625 -46.8901,2.2147 -89.49866,27.70374 -113.67578,67.80469 -0.46315,0.75088 -0.92191,1.50912 -1.37109,2.28711 l 90.0957,52.01757 c 0,0 3.30176,-10.52074 13.35742,-20.83593 0.45678,-0.46855 0.92714,-0.93761 1.41211,-1.4043 0.48497,-0.46669 0.98423,-0.93367 1.49805,-1.39649 0.51419,-0.46313 1.04416,-0.92361 1.58789,-1.38085 0.54334,-0.45693 1.1023,-0.91035 1.67578,-1.35938 1.72173,-1.34802 3.5809,-2.65588 5.58594,-3.89648 1.33622,-0.82678 2.7385,-1.62583 4.20703,-2.38477 0.73454,-0.37959 1.48724,-0.74978 2.25586,-1.10937 1.53669,-0.71894 3.16859,-1.29585 4.8789,-1.73438 0.42775,-0.10965 0.86149,-0.21036 1.29883,-0.30273 1.31141,-0.27701 2.66607,-0.47792 4.05469,-0.60157 1.4849,-0.13214 3.01911,-0.15306 4.57617,-0.11328 1.14474,0.36278 2.3117,0.75411 3.51563,1.19531 0.56282,-0.0389 0.78954,-0.36325 0.7539,-0.90039 0.95627,0.11393 1.91883,0.25121 2.89063,0.42383 0,0 0.002,0 0.002,0 1.01851,0.18096 2.04456,0.39407 3.07617,0.63867 0,0 0.002,0 0.002,0 1.03164,0.24465 2.06865,0.52265 3.10937,0.83008 0,0 0.002,0 0.002,0 1.04075,0.30748 2.08508,0.64622 3.13086,1.01563 4.18607,1.47853 8.39489,3.45011 12.5,5.88672 3.0784,1.8272 6.09835,3.91495 9.00391,6.2539 2.90556,2.33896 5.6967,4.9283 8.32031,7.75586 6.55903,7.06892 12.06654,15.62849 15.66992,25.49805 0.48046,1.31594 0.92716,2.65549 1.33789,4.01758 0.41074,1.36208 0.78608,2.74692 1.12305,4.15429 0.50546,2.11107 0.92578,4.27187 1.25391,6.48243 l -0.54102,21.30078 c 0.0914,-0.18832 0.17352,-0.37446 0.26367,-0.5625 -6.56868,38.51149 -45.30933,70.98122 -76.22265,80.76172 -2.11074,0.6678 -4.30838,1.3125 -6.56836,1.92187 -1.3871,0.374 -2.7937,0.73685 -4.23242,1.07813 -0.0065,0.002 -0.013,0.002 -0.01954,0.004 -0.46326,0.10982 -0.94177,0.20859 -1.41015,0.31445 -0.84349,0.19066 -1.68343,0.38395 -2.54297,0.56055 -35.98415,7.39352 -85.72642,1.75849 -124.26367,-75.09961 18.19514,63.4071 78.17675,105.74949 144.22656,101.41992 66.88535,-4.3836 121.35992,-55.40404 130.10938,-121.85937 C 230.55267,332.99676 191.13912,269.61513 127.66693,248.06973 113.0941,243.12325 97.8216,240.6097 82.46185,240.61465 Z M -52.53229,419.89199 c -0.23016,-0.80206 -0.45907,-1.6053 -0.67578,-2.41406 l -0.46875,0.125 c 0.3797,0.77577 0.7626,1.52734 1.14453,2.28906 z"
         id="path5480"
         inkscape:connector-curvature="0" />
    </clipPath>
    <clipPath
       clipPathUnits="userSpaceOnUse"
       id="clipPath12069">
      <path
         style="fill:#e2efe8;fill-opacity:1;stroke:none;stroke-width:20;stroke-miterlimit:4;stroke-dasharray:none;stroke-opacity:1"
         d="m 365,253.36133 -202,0 0,76 -62,0 0,66 62,0 0,72.79687 c 11.19283,-0.75346 21.55392,-3.21328 30.50391,-6.04492 30.913,-9.78039 69.65338,-42.25074 76.22265,-80.76172 l 59.07617,-10.89844"
         id="path12071"
         inkscape:connector-curvature="0"
         sodipodi:nodetypes="cccccccscc" />
    </clipPath>
  </defs>
  <sodipodi:namedview
     id="base"
     pagecolor="#ffffff"
     bordercolor="#666666"
     borderopacity="1.0"
     inkscape:pageopacity="0.0"
     inkscape:pageshadow="2"
     inkscape:zoom="1.4142136"
     inkscape:cx="160.56004"
     inkscape:cy="167.45234"
     inkscape:document-units="px"
     inkscape:current-layer="layer1"
     showgrid="false"
     inkscape:object-nodes="true"
     inkscape:window-width="1920"
     inkscape:window-height="1151"
     inkscape:window-x="0"
     inkscape:window-y="1"
     inkscape:window-maximized="1"
     inkscape:snap-nodes="false"
     fit-margin-top="0"
     fit-margin-left="0"
     fit-margin-right="0"
     fit-margin-bottom="0" />
  <metadata
     id="metadata4651">
    <rdf:RDF>
      <cc:Work
         rdf:about="">
        <dc:format>image/svg+xml</dc:format>
        <dc:type
           rdf:resource="http://purl.org/dc/dcmitype/StillImage" />
        <dc:title></dc:title>
      </cc:Work>
    </rdf:RDF>
  </metadata>
  <g
     inkscape:label="Layer 1"
     inkscape:groupmode="layer"
     id="layer1"
     transform="translate(-53.323404,-211.6148)">
    <g
       id="g5387"
       transform="translate(109.15524,-29.000012)">
      <path
         sodipodi:nodetypes="ccczzzcccscc"
         inkscape:connector-curvature="0"
         id="path5205-6-7"
         d="m 75.875924,240.77141 c -47.780101,2.25674 -91.129585,28.66721 -115.046868,70.0918 l 90.095698,52.01754 c 0,0 6.9843,-22.26057 31.58008,-33.76754 24.595776,-11.507 73.499996,13.34157 80.499996,60.49997 7,47.1584 -40.16287,90.0035 -76.499996,101.5 -36.33713,11.4965 -95.908411,16.94348 -140.18143,-73.51 l 0.468544,-0.12472 c 17.348849,64.74473 78.017021,108.21826 144.902336,103.83393 66.885346,-4.3836 121.359916,-55.40404 130.109376,-121.85937 8.74902,-66.45579 -30.66453,-129.83738 -94.13672,-151.38278 -16.65466,-5.65312 -34.222666,-8.12897 -51.791016,-7.29883 z"
         style="opacity:1;fill:#292929;fill-opacity:1;stroke:none;stroke-width:15;stroke-miterlimit:4;stroke-dasharray:none;stroke-opacity:1" />
      <path
         sodipodi:nodetypes="ccsscczzscc"
         inkscape:connector-curvature="0"
         id="path5205-6-7-0"
         d="m 75.995397,495.1942 c 3.860272,-0.10577 7.76188,-0.29042 11.698887,-0.54849 66.885346,-4.3836 109.992686,-32.67317 111.109376,-99.6927 1.2966,-77.81712 -37.42358,-121.16892 -122.427736,-125.6816 -47.766104,-2.5358 -91.629585,0.16721 -115.546868,41.5918 l 90.095698,52.01753 c 0,0 6.9843,-22.26057 31.58008,-33.76753 24.595776,-11.507 73.499996,13.34156 80.499996,60.49996 7,47.1584 -40.16287,90.0035 -76.499996,101.5 -4.580705,1.44926 -9.530634,2.80239 -14.772596,3.87939 z"
         style="opacity:1;fill:#226b13;fill-opacity:1;stroke:none;stroke-width:15;stroke-miterlimit:4;stroke-dasharray:none;stroke-opacity:1" />
      <path
         id="path5205-6-7-0-1"
         d="m 68.458984,257.98828 c -43.190953,-0.42075 -83.01715,13.29077 -105.787109,49.83203 -0.625716,0.99224 -1.242952,2.00239 -1.84375,3.04297 l 90.095703,52.01758 c 0,0 6.984296,-22.26062 31.580078,-33.76758 24.595774,-11.507 73.500004,13.3416 80.500004,60.5 l -0.54102,21.30078 c 16.62976,-34.2676 12.79218,-63.92355 -0.78711,-87.13476 6.27207,2.55262 13.16155,5.72899 20.78711,9.63476 -15.50133,-47.92202 -57.35233,-71.708 -105.08789,-75.14258 -2.985382,-0.15848 -5.957716,-0.25438 -8.916016,-0.2832 z"
         style="opacity:1;fill:#73b491;fill-opacity:1;stroke:none;stroke-width:15;stroke-miterlimit:4;stroke-dasharray:none;stroke-opacity:1"
         inkscape:connector-curvature="0" />
      <path
         id="path5205-6-7-0-1-2"
         d="m 25.279297,272.5957 c -21.3217752,-0.16998 -44.774953,5.68886 -63.287109,36.33789 -0.396163,0.62967 -0.784782,1.27278 -1.164063,1.92969 l 90.095703,52.01758 c 5.649937,-27.99891 47.3222,-34.72668 81.379432,-22.69199 0.35142,0.12418 1.00033,0.17302 1.35008,0.30119 -0.26254,-0.72564 -0.62564,-1.26796 -0.71723,-1.35787 -6.65262,-6.53094 -50.505094,-36.10648 -68.020094,-45.31578 2.105299,-1.44472 4.555003,-2.70797 7.412109,-3.75977 5.22006,-0.36059 -7.034624,-13.91792 -29.453125,-16.28516 -5.580596,-0.58927 -11.500416,-1.12718 -17.595703,-1.17578 z"
         style="opacity:1;fill:#e2efe8;fill-opacity:1;stroke:none;stroke-width:15;stroke-miterlimit:4;stroke-dasharray:none;stroke-opacity:1"
         inkscape:connector-curvature="0"
         sodipodi:nodetypes="scccscsccss" />
      <g
         id="g7690-5-0-8"
         transform="matrix(-0.10963042,-0.04224651,0.04580376,-0.11886155,273.22151,376.92559)">
        <g
           id="g7684-8-3-5"
           transform="translate(4.005192,0.33583065)">
          <path
             sodipodi:nodetypes="ccccc"
             inkscape:connector-curvature="0"
             id="path7463-2-4-4"
             d="m 1786.4745,-522.55707 c -124.993,-0.94065 -236.698,0.0391 -350.6951,0.68767 -10.7969,9.20065 -13.8201,35.03072 -0.3699,38.37732 l 348.669,5.90211 z"
             style="fill:#226b13;fill-opacity:1;fill-rule:evenodd;stroke:none;stroke-width:0.98905516px;stroke-linecap:butt;stroke-linejoin:miter;stroke-opacity:1" />
          <ellipse
             transform="matrix(0.99995636,0.00934208,-0.01098137,0.9999397,0,0)"
             ry="43.826298"
             rx="10.741114"
             cy="-517.48737"
             cx="1781.0135"
             id="path7465-1-0-4"
             style="fill:#184c0d;fill-opacity:1;stroke:none;stroke-width:10;stroke-miterlimit:4;stroke-dasharray:none;stroke-opacity:1" />
          <path
             inkscape:connector-curvature="0"
             id="rect7467-4-9-2"
             d="m 1764.5232,-522.68355 c -112.6255,-0.65751 -215.1243,0.14935 -318.9994,0.75648 -4.0713,13.2692 -7.1027,26.6414 -0.5661,38.59618 l 318.9091,5.39857 c 2.9807,-13.51386 7.4836,-26.25441 0.6564,-44.75123 z m -27.0068,8.28687 4.4389,13.35482 -6.8537,10.83902 -5.4756,-12.89278 7.8904,-11.30106 z m -71.3248,0.06 3.9519,11.44883 -6.3806,13.6948 -4.4528,-12.40504 6.8815,-12.73859 z m 35.0118,0.43687 5.994,12.66175 -6.3632,12.50757 -7.5351,-12.91848 7.9043,-12.25084 z m 17.7564,0.69653 4.9921,10.74934 -5.7995,9.18974 -4.759,-9.084 5.5664,-10.85508 z m -175.3236,-1.71262 5.9905,12.8992 -5.0341,9.67427 -7.2742,-13.15271 6.3178,-9.42076 z m 18.0208,0.22485 c 0.501,0.95619 4.7765,7.89676 4.7765,7.89676 l -4.1089,16.81052 c 0,0 -8.0814,-10.78787 -7.2951,-11.72803 0.7862,-0.94016 6.6275,-12.97925 6.6275,-12.97925 z m 119.7096,1.49368 6.2828,10.52795 -6.6276,12.97925 -5.994,-12.66176 6.3388,-10.84544 z m -210.3354,-2.14949 6.2096,15.51433 -6.0813,10.84865 -10.6,-14.61914 10.4717,-11.74384 z m 177.1152,2.44745 3.4405,11.20496 -3.7714,11.35245 -5.7504,-11.70875 6.0813,-10.84866 z m -122.037,-0.81025 5.0095,9.5621 -6.3353,10.608 -5.8062,-7.90961 7.132,-12.26049 z m 89.0742,1.11143 3.444,10.96751 -5.2916,9.67106 -5.747,-11.94621 7.5946,-8.69236 z m 15.7039,0.19595 4.2511,8.60267 -5.2986,10.14596 -4.4981,-9.31823 5.5456,-9.4304 z m -35.5337,0.0316 6.0427,9.33751 -5.5838,12.04231 -6.7977,-10.53438 6.3388,-10.84544 z m -87.5331,-0.8547 5.4791,12.65532 -3.98,8.025 c 0,0 -9.1145,-10.56328 -8.0848,-10.55043 1.0297,0.0128 6.5857,-10.12989 6.5857,-10.12989 z m 71.05,1.12401 5.246,10.99 -6.0465,8.47419 -4.9886,-10.98678 5.7891,-8.47741 z m -88.8377,0.31647 5.0304,8.13742 -5.549,9.66785 c 0,0 -7.8623,-8.17276 -6.8221,-8.87225 1.0401,-0.6995 7.3407,-8.93302 7.3407,-8.93302 z"
             style="fill:#292929;fill-opacity:1;stroke:none;stroke-width:10;stroke-miterlimit:4;stroke-dasharray:none;stroke-opacity:1" />
          <ellipse
             transform="matrix(0.99995636,0.00934208,-0.01098137,0.9999397,0,0)"
             ry="28.608475"
             rx="7.0114722"
             cy="-517.50537"
             cx="1782.9445"
             id="path7465-2-8-7-2"
             style="fill:#9bc195;fill-opacity:1;stroke:none;stroke-width:10;stroke-miterlimit:4;stroke-dasharray:none;stroke-opacity:1" />
        </g>
        <path
           style="fill:#73b491;fill-opacity:1;fill-rule:evenodd;stroke:none;stroke-width:0.98905516px;stroke-linecap:butt;stroke-linejoin:miter;stroke-opacity:1"
           d="m 2696.0387,-385.19648 c -290.2888,-69.66791 -596.9061,-93.36064 -906.5054,-96.3749 -1.8253,-14.00722 -1.4105,-27.55057 3.4459,-40.17417 307.3689,14.40369 601.9889,30.71607 872.7454,104.44359 26.6206,7.24882 26.6869,21.35709 30.3141,32.10548 z"
           id="path7461-2-1-4"
           inkscape:connector-curvature="0"
           sodipodi:nodetypes="cccsc" />
        <path
           style="fill:#ffffff;fill-opacity:0.79220779;fill-rule:evenodd;stroke:none;stroke-width:0.98905516px;stroke-linecap:butt;stroke-linejoin:miter;stroke-opacity:1"
           d="m 2696.1175,-390.56931 c -267.7764,-59.67475 -506.9495,-95.27586 -904.1396,-95.19755 -1.9617,-4.71132 -1.6999,-7.82385 3.0328,-12.01585 329.6253,-4.08477 705.4945,48.87547 886.9039,100.20275 25.662,7.26072 10.4713,3.37697 14.2029,7.01065 z"
           id="path7461-4-6-2-0"
           inkscape:connector-curvature="0"
           sodipodi:nodetypes="cccsc" />
        <path
           style="fill:#ffffff;fill-opacity:0.40784314;fill-rule:evenodd;stroke:none;stroke-width:0.98905516px;stroke-linecap:butt;stroke-linejoin:miter;stroke-opacity:1"
           d="m 7222.498,-577.64453 c -0.3884,1.09466 -0.7372,2.19911 -1.0683,3.30664 l 9.8984,15.70117 10.5996,-16.89258 10.5293,16.9375 10.7051,-16.82617 10.4219,17.00195 10.3535,-16.04687 c -20.4205,-1.08173 -40.8981,-2.138 -61.4395,-3.18164 z m 62.3555,3.23047 9.8555,16.30859 9.9726,-15.24805 c -6.601,-0.35738 -13.2138,-0.70986 -19.8281,-1.06054 z m 21.6895,1.16015 9.289,15.5918 9.6465,-14.54687 c -6.3082,-0.35036 -12.615,-0.702 -18.9355,-1.04493 z m 21.6152,1.19141 8.7949,14.97461 9.3731,-13.94531 c -6.0516,-0.34598 -12.1049,-0.69137 -18.168,-1.0293 z m 21.541,1.22266 8.3692,14.45898 9.1562,-13.43945 c -5.8353,-0.34453 -11.679,-0.68362 -17.5254,-1.01953 z m 21.4668,1.25586 8.0137,14.04492 8.9961,-13.02735 c -5.6616,-0.34624 -11.3376,-0.68052 -17.0098,-1.01757 z m 21.4004,1.28906 7.7188,13.72851 8.8789,-12.68554 c -5.5287,-0.35119 -11.0587,-0.7016 -16.5977,-1.04297 z m 21.3438,1.3418 7.4746,13.49218 8.8125,-12.42383 c -5.4264,-0.35889 -10.8506,-0.71993 -16.2871,-1.06835 z m 21.289,1.40039 7.2774,13.33007 8.7968,-12.23828 c -5.3529,-0.36944 -10.7111,-0.73354 -16.0742,-1.09179 z m 21.2363,1.45117 7.125,13.25 8.834,-12.12891 c -5.3117,-0.38329 -10.637,-0.74982 -15.959,-1.12109 z m 21.1836,1.50976 7.0157,13.24414 8.9043,-12.06445 c -5.3007,-0.40059 -10.6088,-0.79208 -15.92,-1.17969 z m 21.1368,1.56641 6.9433,13.3125 9.0137,-12.05469 c -5.3172,-0.42145 -10.6291,-0.85046 -15.957,-1.25781 z m 21.1054,1.66406 6.8907,13.41602 9.166,-12.09766 c -5.3479,-0.4451 -10.6977,-0.88857 -16.0567,-1.31836 z m 21.0664,1.73828 6.8672,13.57813 9.3594,-12.19336 c -5.4014,-0.47255 -10.8136,-0.92895 -16.2266,-1.38477 z m 21.0274,1.81446 6.8691,13.79687 9.584,-12.32617 c -5.475,-0.50388 -10.9659,-0.98515 -16.4531,-1.4707 z m 20.9961,1.89843 6.8906,14.0625 9.8223,-12.4707 c -5.5659,-0.5392 -11.1343,-1.07274 -16.7129,-1.5918 z m 20.9668,1.99805 6.9258,14.36133 10.0917,-12.64649 c -5.6686,-0.57834 -11.3353,-1.15866 -17.0175,-1.71484 z m 20.9511,2.11523 6.9629,14.67383 10.3828,-12.8457 c -5.775,-0.6207 -11.5562,-1.23176 -17.3457,-1.82813 z m 20.9258,2.2168 7.0098,15.01758 10.7031,-13.07227 c -5.8931,-0.66739 -11.8045,-1.30466 -17.7129,-1.94531 z m 20.8906,2.30664 7.0762,15.40235 11.0235,-13.29297 c -6.0242,-0.71892 -12.0591,-1.41991 -18.0997,-2.10938 z m 20.8848,2.44141 7.1289,15.78515 11.3477,-13.50976 c -6.151,-0.77349 -12.3082,-1.5342 -18.4766,-2.27539 z m 20.8711,2.57617 7.1777,16.16406 11.6758,-13.72461 c -6.2747,-0.83134 -12.5603,-1.6434 -18.8535,-2.43945 z m 20.8555,2.70703 7.2246,16.54297 11.9941,-13.92187 c -6.3967,-0.89277 -12.8023,-1.76679 -19.2187,-2.6211 z m 20.8457,2.84571 7.2597,16.91601 12.3047,-14.10351 c -6.5115,-0.95706 -13.0321,-1.89718 -19.5644,-2.8125 z m 20.8398,3 7.2813,17.26367 12.6074,-14.26758 c -6.6174,-1.02396 -13.2493,-2.01721 -19.8887,-2.99609 z m 20.8281,3.14453 7.293,17.59961 12.877,-14.38868 c -6.7125,-1.09305 -13.4344,-2.16632 -20.17,-3.21093 z m 20.8262,3.31836 7.2832,17.89257 13.125,-14.48242 c -6.7906,-1.16321 -13.5934,-2.29867 -20.4082,-3.41015 z m 20.8223,3.48242 7.2558,18.15039 13.3399,-14.5332 c -6.8518,-1.23407 -13.7188,-2.43803 -20.5957,-3.61719 z m 20.8183,3.65625 7.2071,18.36718 13.5097,-14.53515 c -6.8934,-1.30479 -13.7973,-2.58513 -20.7168,-3.83203 z m 20.8184,3.85156 7.1348,18.51758 13.6406,-14.49219 c -6.9114,-1.37407 -13.8374,-2.71186 -20.7754,-4.02539 z m 20.8164,4.03516 7.0371,18.61523 13.7129,-14.38672 c -6.9033,-1.4408 -13.8196,-2.85052 -20.75,-4.22851 z m 20.8203,4.24414 6.9102,18.63476 13.7246,-14.21875 c -6.8645,-1.50318 -13.7429,-2.97735 -20.6348,-4.41601 z m 20.8223,4.45703 6.7539,18.57031 13.6797,-13.99609 c -6.7965,-1.56062 -13.6097,-3.07928 -20.4336,-4.57422 z m 20.8203,4.66406 6.5723,18.42773 13.5507,-13.6875 c -6.6948,-1.611 -13.401,-3.19534 -20.123,-4.74023 z m 20.8301,4.91016 6.3515,18.16992 13.3457,-13.31445 c -6.5524,-1.65136 -13.1182,-3.26979 -19.6972,-4.85547 z m 20.8301,5.14257 6.1015,17.8086 13.0606,-12.86914 c -6.3737,-1.68131 -12.7628,-3.32254 -19.1621,-4.93946 z m 20.832,5.37891 5.8183,17.33985 12.6758,-12.33008 c -6.1538,-1.69804 -12.3159,-3.37391 -18.4941,-5.00977 z m 20.8437,5.65625 5.4942,16.72461 12.2011,-11.7207 c -5.8865,-1.69804 -11.7858,-3.36476 -17.6953,-5.00391 z m 20.8438,5.91992 5.1348,15.97266 11.0742,-10.50391 c -2.5506,-1.21055 -5.4627,-2.32571 -8.8184,-3.3164 -2.46,-0.72626 -4.9266,-1.43662 -7.3906,-2.15235 z m 21.5703,8.50196 4.0176,12.76757 4.498,-4.21484 c -1.9481,-3.0358 -4.6367,-5.942 -8.5156,-8.55273 z"
           transform="matrix(1.029854,0,0,0.94987257,-5645.1402,26.942717)"
           id="path7461-42-5-8-3"
           inkscape:connector-curvature="0" />
      </g>
    </g>
  </g>
</svg>
