<?xml version="1.0" encoding="iso-8859-1"?>
<!-- Generator: Adobe Illustrator 18.0.0, SVG Export Plug-In . SVG Version: 6.00 Build 0)  -->
<!DOCTYPE svg PUBLIC "-//W3C//DTD SVG 1.1//EN" "http://www.w3.org/Graphics/SVG/1.1/DTD/svg11.dtd">
<svg version="1.1" xmlns="http://www.w3.org/2000/svg" xmlns:xlink="http://www.w3.org/1999/xlink" x="0px" y="0px"
	 viewBox="0 0 276 74" style="enable-background:new 0 0 276 74;" xml:space="preserve">
<symbol  id="Shape_Icon_Coin" viewBox="-40 -42 80 82">
	<g>
		<g>
			<g>
				<g>
					<g>
						<g style="opacity:0.2;">
							<path d="M40-2c0-22.091-17.909-40-40-40S-40-24.091-40-2s17.909,40,40,40S40,20.092,40-2z"/>
						</g>
						<g>
							
								<linearGradient id="SVGID_1_" gradientUnits="userSpaceOnUse" x1="-1.475200e-09" y1="32.7769" x2="1.556565e-09" y2="-34.5966">
								<stop  offset="0" style="stop-color:#E3B137"/>
								<stop  offset="0.3252" style="stop-color:#BA8C1E"/>
								<stop  offset="0.6798" style="stop-color:#FFD859"/>
								<stop  offset="0.6854" style="stop-color:#F6BF20"/>
								<stop  offset="1" style="stop-color:#946622"/>
							</linearGradient>
							<path style="fill:url(#SVGID_1_);" d="M40,0c0-22.091-17.909-40-40-40S-40-22.091-40,0s17.909,40,40,40S40,22.092,40,0z"/>
						</g>
					</g>
					<path style="fill:#AF7B00;" d="M0-7.664c-13.161,0-24.835-6.358-32.125-16.168c7.29-9.81,18.964-16.168,32.125-16.168
						s24.835,6.358,32.125,16.168C24.835-14.022,13.161-7.664,0-7.664z"/>
					<path style="fill:#FFCD4E;" d="M0,40c-15.404,0-28.766-8.713-35.449-21.474C-28.766,5.765-15.404-2.948,0-2.948
						s28.766,8.713,35.449,21.474C28.766,31.288,15.404,40,0,40z"/>
					<path style="fill:#FFCD4E;" d="M35.449,1.436c0-19.578-15.871-35.449-35.449-35.449S-35.449-18.142-35.449,1.436
						S-19.578,36.885,0,36.885S35.449,21.014,35.449,1.436z"/>
					<radialGradient id="SVGID_2_" cx="0" cy="2.8054" r="34.0796" gradientUnits="userSpaceOnUse">
						<stop  offset="0" style="stop-color:#FDF9CD"/>
						<stop  offset="0.1333" style="stop-color:#FDF4BC"/>
						<stop  offset="0.3982" style="stop-color:#FEE78F"/>
						<stop  offset="0.6798" style="stop-color:#FFD859"/>
						<stop  offset="0.6854" style="stop-color:#F6BF20"/>
						<stop  offset="1" style="stop-color:#B97F2B"/>
					</radialGradient>
					<path style="fill:url(#SVGID_2_);" d="M34.08,2.805c0-18.822-15.258-34.08-34.08-34.08c-16.989,0-31.075,12.432-33.657,28.695
						l6.838,2.37L-33.921-0.5c0,0-0.158,2.191-0.158,3.306c0,18.822,15.258,34.08,34.08,34.08c17.563,0,32.023-13.285,33.878-30.355
						l-7.164,0.247l7.354-3.071C34.076,3.406,34.08,3.106,34.08,2.805z"/>
					<g>
						<path style="fill:#FDF0B4;" d="M0,34.817c14.206,0,26.413-8.118,31.794-19.741C26.867,27.833,14.494,36.885,0,36.885
							c-14.491,0-26.86-9.048-31.79-21.799C-26.406,26.704-14.202,34.817,0,34.817z"/>
					</g>
					<g>
						<path style="fill:#875C06;" d="M25.336,2.805C25.336-11.187,13.993-22.53,0-22.53S-25.336-11.187-25.336,2.805
							S-13.993,28.141,0,28.141S25.336,16.798,25.336,2.805z"/>
						<path style="fill:#885D06;" d="M25.052,2.805c0-13.836-11.216-25.052-25.052-25.052S-25.052-11.031-25.052,2.805
							S-13.836,27.858,0,27.858S25.052,16.641,25.052,2.805z"/>
						<path style="fill:#895E06;" d="M24.769,2.805c0-13.679-11.089-24.769-24.769-24.769S-24.769-10.874-24.769,2.805
							S-13.679,27.574,0,27.574S24.769,16.485,24.769,2.805z"/>
						<path style="fill:#8B5F05;" d="M24.485,2.805C24.485-10.717,13.523-21.68,0-21.68S-24.485-10.717-24.485,2.805
							S-13.523,27.29,0,27.29S24.485,16.328,24.485,2.805z"/>
						<path style="fill:#8C6005;" d="M24.201,2.805c0-13.366-10.835-24.201-24.201-24.201S-24.201-10.561-24.201,2.805
							S-13.366,27.007,0,27.007S24.201,16.171,24.201,2.805z"/>
						<path style="fill:#8D6105;" d="M23.918,2.805c0-13.209-10.708-23.918-23.918-23.918S-23.918-10.404-23.918,2.805
							S-13.209,26.723,0,26.723S23.918,16.015,23.918,2.805z"/>
						<path style="fill:#8E6105;" d="M23.634,2.805c0-13.053-10.581-23.634-23.634-23.634S-23.634-10.247-23.634,2.805
							S-13.053,26.44,0,26.44S23.634,15.858,23.634,2.805z"/>
						<path style="fill:#8F6205;" d="M23.351,2.805c0-12.896-10.454-23.351-23.351-23.351S-23.351-10.091-23.351,2.805
							S-12.896,26.156,0,26.156S23.351,15.702,23.351,2.805z"/>
						<path style="fill:#906305;" d="M23.067,2.805C23.067-9.934,12.74-20.262,0-20.262S-23.067-9.934-23.067,2.805
							S-12.74,25.872,0,25.872S23.067,15.545,23.067,2.805z"/>
						<path style="fill:#926404;" d="M22.783,2.805c0-12.583-10.2-22.783-22.783-22.783s-22.783,10.2-22.783,22.783
							S-12.583,25.589,0,25.589S22.783,15.388,22.783,2.805z"/>
						<path style="fill:#936504;" d="M22.5,2.805c0-12.426-10.073-22.5-22.5-22.5s-22.5,10.073-22.5,22.5s10.073,22.5,22.5,22.5
							S22.5,15.232,22.5,2.805z"/>
						<path style="fill:#946604;" d="M22.216,2.805c0-12.27-9.946-22.216-22.216-22.216S-22.216-9.464-22.216,2.805
							S-12.27,25.022,0,25.022S22.216,15.075,22.216,2.805z"/>
						<path style="fill:#956704;" d="M21.932,2.805c0-12.113-9.82-21.933-21.933-21.933s-21.933,9.82-21.933,21.933
							S-12.113,24.738,0,24.738S21.932,14.918,21.932,2.805z"/>
						<path style="fill:#966804;" d="M21.649,2.805c0-11.956-9.693-21.649-21.649-21.649S-21.649-9.151-21.649,2.805
							S-11.956,24.454,0,24.454S21.649,14.762,21.649,2.805z"/>
						<path style="fill:#976904;" d="M21.365,2.805C21.365-8.994,11.8-18.56,0-18.56S-21.365-8.994-21.365,2.805
							S-11.8,24.171,0,24.171S21.365,14.605,21.365,2.805z"/>
						<path style="fill:#996A03;" d="M21.082,2.805c0-11.643-9.439-21.082-21.082-21.082S-21.082-8.838-21.082,2.805
							S-11.643,23.887,0,23.887S21.082,14.448,21.082,2.805z"/>
						<path style="fill:#9A6B03;" d="M20.798,2.805c0-11.486-9.312-20.798-20.798-20.798S-20.798-8.681-20.798,2.805
							S-11.486,23.603,0,23.603S20.798,14.292,20.798,2.805z"/>
						<path style="fill:#9B6C03;" d="M20.514,2.805c0-11.33-9.185-20.514-20.514-20.514S-20.514-8.524-20.514,2.805
							S-11.33,23.32,0,23.32S20.514,14.135,20.514,2.805z"/>
						<path style="fill:#9C6C03;" d="M20.231,2.805c0-11.173-9.058-20.231-20.231-20.231S-20.231-8.368-20.231,2.805
							S-11.173,23.036,0,23.036S20.231,13.979,20.231,2.805z"/>
						<path style="fill:#9D6D03;" d="M19.947,2.805c0-11.017-8.931-19.947-19.947-19.947S-19.947-8.211-19.947,2.805
							S-11.017,22.753,0,22.753S19.947,13.822,19.947,2.805z"/>
						<path style="fill:#9F6E02;" d="M19.664,2.805c0-10.86-8.804-19.664-19.664-19.664S-19.664-8.055-19.664,2.805
							S-10.86,22.469,0,22.469S19.664,13.665,19.664,2.805z"/>
						<path style="fill:#A06F02;" d="M19.38,2.805c0-10.703-8.677-19.38-19.38-19.38s-19.38,8.677-19.38,19.38
							s8.677,19.38,19.38,19.38S19.38,13.509,19.38,2.805z"/>
						<path style="fill:#A17002;" d="M19.096,2.805c0-10.547-8.55-19.096-19.096-19.096s-19.096,8.55-19.096,19.096
							S-10.547,21.902,0,21.902S19.096,13.352,19.096,2.805z"/>
						<path style="fill:#A27102;" d="M18.813,2.805c0-10.39-8.423-18.813-18.813-18.813S-18.813-7.585-18.813,2.805
							S-10.39,21.618,0,21.618S18.813,13.195,18.813,2.805z"/>
						<path style="fill:#A37202;" d="M18.529,2.805c0-10.233-8.296-18.529-18.529-18.529S-18.529-7.428-18.529,2.805
							S-10.233,21.335,0,21.335S18.529,13.039,18.529,2.805z"/>
						<path style="fill:#A47302;" d="M18.246,2.805C18.246-7.271,10.077-15.44,0-15.44S-18.246-7.271-18.246,2.805
							S-10.077,21.051,0,21.051S18.246,12.882,18.246,2.805z"/>
						<path style="fill:#A67401;" d="M17.962,2.805c0-9.92-8.042-17.962-17.962-17.962S-17.962-7.115-17.962,2.805
							S-9.92,20.767,0,20.767S17.962,12.726,17.962,2.805z"/>
						<path style="fill:#A77501;" d="M17.678,2.805c0-9.763-7.915-17.678-17.678-17.678S-17.678-6.958-17.678,2.805
							S-9.763,20.484,0,20.484S17.678,12.569,17.678,2.805z"/>
						<path style="fill:#A87601;" d="M17.395,2.805c0-9.607-7.788-17.395-17.395-17.395S-17.395-6.801-17.395,2.805
							S-9.607,20.2,0,20.2S17.395,12.412,17.395,2.805z"/>
						<path style="fill:#A97601;" d="M17.111,2.805c0-9.45-7.661-17.111-17.111-17.111S-17.111-6.645-17.111,2.805
							S-9.45,19.917,0,19.917S17.111,12.256,17.111,2.805z"/>
						<path style="fill:#AA7701;" d="M16.827,2.805c0-9.294-7.534-16.828-16.828-16.828S-16.828-6.488-16.828,2.805
							S-9.294,19.633,0,19.633S16.827,12.099,16.827,2.805z"/>
						<path style="fill:#AB7801;" d="M16.544,2.805c0-9.137-7.407-16.544-16.544-16.544S-16.544-6.332-16.544,2.805
							S-9.137,19.349,0,19.349S16.544,11.942,16.544,2.805z"/>
						<path style="fill:#AD7900;" d="M16.26,2.805c0-8.98-7.28-16.26-16.26-16.26s-16.26,7.28-16.26,16.26S-8.98,19.066,0,19.066
							S16.26,11.786,16.26,2.805z"/>
						<path style="fill:#AE7A00;" d="M15.977,2.805c0-8.824-7.153-15.977-15.977-15.977S-15.977-6.018-15.977,2.805
							S-8.824,18.782,0,18.782S15.977,11.629,15.977,2.805z"/>
						<path style="fill:#AF7B00;" d="M15.693,2.805c0-8.667-7.026-15.693-15.693-15.693S-15.693-5.862-15.693,2.805
							S-8.667,18.498,0,18.498S15.693,11.472,15.693,2.805z"/>
					</g>
					<path style="opacity:0.2;" d="M0,24.038c13.301,0,24.201-10.252,25.246-23.284c0.054,0.677,0.09,1.36,0.09,2.052
						c0,13.992-11.343,25.336-25.336,25.336S-25.336,16.798-25.336,2.805c0-0.691,0.035-1.374,0.09-2.052
						C-24.201,13.786-13.301,24.038,0,24.038z"/>
					<polygon style="fill:#AF7B00;" points="-40,-1.297 -35.449,1.436 -26.818,-0.209 -34.08,-0.74 					"/>
					<polygon style="fill:#AF7B00;" points="39.896,5.688 35.345,8.422 26.714,6.777 33.976,6.245 					"/>
				</g>
			</g>
			<g>
				<radialGradient id="SVGID_3_" cx="-26.6598" cy="-0.4449" r="8.6343" gradientUnits="userSpaceOnUse">
					<stop  offset="0" style="stop-color:#FDF0B4"/>
					<stop  offset="0.135" style="stop-color:#FAE8A3;stop-opacity:0.865"/>
					<stop  offset="0.4034" style="stop-color:#F3D376;stop-opacity:0.5966"/>
					<stop  offset="0.7761" style="stop-color:#E7B22E;stop-opacity:0.2239"/>
					<stop  offset="1" style="stop-color:#DF9C00;stop-opacity:0"/>
					<stop  offset="1" style="stop-color:#FDF0B4"/>
				</radialGradient>
				<polygon style="fill:url(#SVGID_3_);" points="-19.159,-7.378 -26.532,-1.56 -27.297,-10.92 -27.344,-1.529 -35.139,-6.766 
					-27.826,-0.874 -36.782,1.956 -27.615,-0.088 -30.987,8.676 -26.87,0.237 -22.119,8.338 -26.151,-0.144 -16.855,1.192 
					-26,-0.944 				"/>
				<g>
					<radialGradient id="SVGID_4_" cx="-26.6598" cy="-0.4452" r="8.6346" gradientUnits="userSpaceOnUse">
						<stop  offset="0" style="stop-color:#FDF0B4"/>
						<stop  offset="0.135" style="stop-color:#FAE8A3;stop-opacity:0.865"/>
						<stop  offset="0.4034" style="stop-color:#F3D376;stop-opacity:0.5966"/>
						<stop  offset="0.7761" style="stop-color:#E7B22E;stop-opacity:0.2239"/>
						<stop  offset="1" style="stop-color:#DF9C00;stop-opacity:0"/>
						<stop  offset="1" style="stop-color:#FDF0B4"/>
					</radialGradient>
					<polygon style="fill:url(#SVGID_4_);" points="-21.028,-2.902 -26.428,-1.113 -24.929,-6.601 -26.898,-1.263 -30.253,-5.856 
						-27.307,-0.99 -32.991,-1.23 -27.349,-0.499 -31.08,3.796 -26.991,-0.159 -25.961,5.435 -26.504,-0.228 -21.487,2.454 
						-26.253,-0.652 					"/>
				</g>
			</g>
		</g>
		<g>
			<g style="opacity:0.2;">
				<path d="M-9.298-4.754c2.475,0.546,4.986,0.655,5.713,0.546c0.655-2.474,2.148-3.785,3.312-3.785
					c1.055,0,2.001,0.582,2.001,1.675c0,2.074-2.329,2.729-4.512,3.93c-3.239,1.71-6.368,3.567-6.368,8.77
					c0,3.457,2.729,6.295,7.242,6.514c-0.037,0.982-0.11,3.093-0.073,3.239c0.037,0.181,3.239,0.546,3.276,0.363
					c0.037-0.181,0.072-3.02,0.108-3.966c0.946-0.291,1.71-0.692,2.074-1.055l0.255,1.747c0,0,3.057,0.145,4.841-0.619
					c0.181-0.073-0.437-7.097-0.437-8.261c0-0.546-5.676-0.509-5.676-0.364C2.274,6.091,1.038,6.891-0.091,6.891
					c-0.654,0-2.001-0.328-2.001-1.783c0-1.309,2.73-2.11,5.423-3.712C6.569-0.495,9.298-2.425,9.298-6.9
					c0-3.967-3.311-6.952-6.804-7.17c0.072-1.529,0-3.457,0-3.565c0-0.11-3.458,0.035-3.53,0.035c-0.073,0-0.255,2.366-0.328,3.931
					c-1.602,0.473-2.584,1.201-2.911,1.601c-0.073-0.8-0.146-2.256-0.183-2.256c-0.181,0.073-4.766,0.328-4.766,0.328
					C-9.298-13.197-9.298-6.646-9.298-4.754z"/>
				<path d="M-9.298-4.754c2.475,0.546,4.986,0.655,5.713,0.546c0.655-2.474,2.148-3.785,3.312-3.785
					c1.055,0,2.001,0.582,2.001,1.675c0,2.074-2.329,2.729-4.512,3.93c-3.239,1.71-6.368,3.567-6.368,8.77
					c0,3.457,2.729,6.295,7.242,6.514c-0.037,0.982-0.11,3.093-0.073,3.239c0.037,0.181,3.239,0.546,3.276,0.363
					c0.037-0.181,0.072-3.02,0.108-3.966c0.946-0.291,1.71-0.692,2.074-1.055l0.255,1.747c0,0,3.057,0.145,4.841-0.619
					c0.181-0.073-0.437-7.097-0.437-8.261c0-0.546-5.676-0.509-5.676-0.364C2.274,6.091,1.038,6.891-0.091,6.891
					c-0.654,0-2.001-0.328-2.001-1.783c0-1.309,2.73-2.11,5.423-3.712C6.569-0.495,9.298-2.425,9.298-6.9
					c0-3.967-3.311-6.952-6.804-7.17c0.072-1.529,0-3.457,0-3.565c0-0.11-3.458,0.035-3.53,0.035c-0.073,0-0.255,2.366-0.328,3.931
					c-1.602,0.473-2.584,1.201-2.911,1.601c-0.073-0.8-0.146-2.256-0.183-2.256c-0.181,0.073-4.766,0.328-4.766,0.328
					C-9.298-13.197-9.298-6.646-9.298-4.754z"/>
			</g>
			<g>
				<g>
					<g>
						<path style="fill:#FFFFFF;" d="M-9.298-2.754c2.475,0.546,4.986,0.655,5.713,0.546c0.655-2.474,2.148-3.785,3.312-3.785
							c1.055,0,2.001,0.582,2.001,1.675c0,2.074-2.329,2.729-4.512,3.93c-3.239,1.71-6.368,3.567-6.368,8.77
							c0,3.457,2.729,6.295,7.242,6.514c-0.037,0.982-0.11,3.093-0.073,3.239c0.037,0.181,3.239,0.546,3.276,0.363
							c0.037-0.181,0.072-3.02,0.108-3.966c0.946-0.291,1.71-0.692,2.074-1.055l0.255,1.747c0,0,3.057,0.145,4.841-0.619
							c0.181-0.073-0.437-7.097-0.437-8.261c0-0.546-5.676-0.509-5.676-0.364C2.274,8.091,1.038,8.891-0.091,8.891
							c-0.654,0-2.001-0.328-2.001-1.783c0-1.309,2.73-2.11,5.423-3.712C6.569,1.505,9.298-0.425,9.298-4.9
							c0-3.967-3.311-6.952-6.804-7.17c0.072-1.529,0-3.457,0-3.565c0-0.11-3.458,0.035-3.53,0.035
							c-0.073,0-0.255,2.366-0.328,3.931c-1.602,0.473-2.584,1.201-2.911,1.601c-0.073-0.8-0.146-2.256-0.183-2.256
							c-0.181,0.073-4.766,0.328-4.766,0.328C-9.298-11.197-9.298-4.646-9.298-2.754z"/>
					</g>
				</g>
				<g>
					<g>
						<path style="fill:#FFFFFF;" d="M-9.298-2.754c2.475,0.546,4.986,0.655,5.713,0.546c0.655-2.474,2.148-3.785,3.312-3.785
							c1.055,0,2.001,0.582,2.001,1.675c0,2.074-2.329,2.729-4.512,3.93c-3.239,1.71-6.368,3.567-6.368,8.77
							c0,3.457,2.729,6.295,7.242,6.514c-0.037,0.982-0.11,3.093-0.073,3.239c0.037,0.181,3.239,0.546,3.276,0.363
							c0.037-0.181,0.072-3.02,0.108-3.966c0.946-0.291,1.71-0.692,2.074-1.055l0.255,1.747c0,0,3.057,0.145,4.841-0.619
							c0.181-0.073-0.437-7.097-0.437-8.261c0-0.546-5.676-0.509-5.676-0.364C2.274,8.091,1.038,8.891-0.091,8.891
							c-0.654,0-2.001-0.328-2.001-1.783c0-1.309,2.73-2.11,5.423-3.712C6.569,1.505,9.298-0.425,9.298-4.9
							c0-3.967-3.311-6.952-6.804-7.17c0.072-1.529,0-3.457,0-3.565c0-0.11-3.458,0.035-3.53,0.035
							c-0.073,0-0.255,2.366-0.328,3.931c-1.602,0.473-2.584,1.201-2.911,1.601c-0.073-0.8-0.146-2.256-0.183-2.256
							c-0.181,0.073-4.766,0.328-4.766,0.328C-9.298-11.197-9.298-4.646-9.298-2.754z"/>
					</g>
				</g>
			</g>
		</g>
	</g>
</symbol>
<symbol  id="Shape_Icon_Time" viewBox="-40 -42 80 82">
	<g>
		<g>
			<g>
				<g>
					<g>
						<g style="opacity:0.2;">
							<path d="M40-2c0-22.091-17.909-40-40-40S-40-24.091-40-2s17.909,40,40,40S40,20.092,40-2z"/>
						</g>
						<g>
							<path style="fill:#3479A3;" d="M40,0c0-22.091-17.909-40-40-40S-40-22.091-40,0s17.909,40,40,40S40,22.092,40,0z"/>
						</g>
					</g>
					<path style="fill:#276482;" d="M0-7.665c-13.161,0-24.835-6.358-32.125-16.168C-24.835-33.642-13.161-40,0-40
						s24.835,6.358,32.125,16.168C24.835-14.022,13.161-7.665,0-7.665z"/>
					<path style="fill:#A1E2FC;" d="M0,40c-15.404,0-28.766-8.713-35.449-21.474C-28.766,5.765-15.404-2.948,0-2.948
						s28.766,8.713,35.449,21.474C28.766,31.287,15.404,40,0,40z"/>
					<path style="fill:#A1E2FC;" d="M35.449,1.436c0-19.578-15.871-35.449-35.449-35.449S-35.449-18.142-35.449,1.436
						S-19.578,36.885,0,36.885S35.449,21.014,35.449,1.436z"/>
					<path style="fill:#5DAAE7;" d="M34.08,2.805c0-18.822-15.258-34.08-34.08-34.08c-16.989,0-31.075,12.432-33.657,28.695
						l6.838,2.37l-7.103-0.291c0,0-0.158,2.191-0.158,3.306c0,18.822,15.258,34.08,34.08,34.08
						c17.563,0,32.023-13.285,33.878-30.355l-7.164,0.247l7.354-3.071C34.076,3.406,34.08,3.106,34.08,2.805z"/>
					<path style="fill:#3479A3;" d="M25.336,2.805c0-13.993-11.343-25.336-25.336-25.336S-25.336-11.187-25.336,2.805
						S-13.993,28.141,0,28.141S25.336,16.798,25.336,2.805z"/>
					<path style="fill:#276482;" d="M0,24.038c13.301,0,24.201-10.252,25.246-23.284c0.054,0.677,0.09,1.36,0.09,2.052
						c0,13.992-11.343,25.336-25.336,25.336S-25.336,16.798-25.336,2.805c0-0.691,0.035-1.374,0.09-2.052
						C-24.201,13.786-13.301,24.038,0,24.038z"/>
					<polygon style="fill:#276482;" points="-40,-1.298 -35.449,1.436 -26.818,-0.209 -34.08,-0.74 					"/>
					<polygon style="fill:#276482;" points="39.594,5.716 35.345,8.421 26.714,6.777 33.976,6.245 					"/>
				</g>
			</g>
		</g>
		<polygon style="fill:#A1E2FC;" points="1,19 -4,19 -4,0 19,0 19,5 1,5 		"/>
	</g>
</symbol>
<pattern  x="2647" y="-342" width="315" height="270" patternUnits="userSpaceOnUse" id="Wooden_pattern_3" viewBox="0 -270 315 270" style="overflow:visible;">
	<g>
		<polygon style="fill:none;" points="0,-270 315,-270 315,0 0,0 		"/>
		<g>
			<polygon style="opacity:0.2;fill:#E7A149;" points="0,-102.596 0,-135.048 315,-135.048 315,-102.596 			"/>
			<polygon style="opacity:0.15;fill:#E7A149;" points="0,-68.767 0,-101.219 315,-101.219 315,-68.767 			"/>
			<polygon style="opacity:0.1;fill:#E7A149;" points="0,-35.191 0,-67.643 315,-67.643 315,-35.191 			"/>
			<polygon style="opacity:0.15;fill:#E7A149;" points="0,-1.362 0,-33.814 315,-33.814 315,-1.362 			"/>
			<polygon style="opacity:0.2;fill:#E7A149;" points="0,-237.548 0,-270 315,-270 315,-237.548 			"/>
			<polygon style="opacity:0.15;fill:#E7A149;" points="0,-203.719 0,-236.171 315,-236.171 315,-203.719 			"/>
			<polygon style="opacity:0.1;fill:#E7A149;" points="0,-170.143 0,-202.595 315,-202.595 315,-170.143 			"/>
			<polygon style="opacity:0.15;fill:#E7A149;" points="0,-136.314 0,-168.766 315,-168.766 315,-136.314 			"/>
		</g>
	</g>
</pattern>
<g id="element_x5F_rays">
</g>
<g id="element_x5F_ribbon">
</g>
<g id="element_x5F_board_x5F_title">
	<g id="Shield">
	</g>
	<g id="element_x5F_board">
	</g>
</g>
<g id="element_x5F_board_x5F_corner">
</g>
<g id="background_x5F_scene2">
	<g id="background_x5F_mountain">
	</g>
</g>
<g id="background_x5F_scene1">
	<g id="background_x5F_sky">
	</g>
	<g id="background_x5F_scene1_x5F_layer3">
		<g id="Background_Hill">
		</g>
	</g>
	<g id="background_x5F_scene1_x5F_layer2">
	</g>
	<g id="background_x5F_tree">
	</g>
	<g id="background_x5F_scene1_x5F_layer1">
		<g id="Background_Land">
		</g>
	</g>
</g>
<g id="background_x5F_clouds">
	<g id="Background_Clouds">
	</g>
</g>
<g id="element_x5F_tooltips">
	<g id="Element_Tooltips">
		<g id="Element_Board_Brown_Big_6_">
		</g>
	</g>
</g>
<g id="window_x5F_title_x5F_nail">
	<g id="Window_Title_Nail">
	</g>
</g>
<g id="window_x5F_title_x5F_empty">
	<g id="Window_Title_Rope">
	</g>
</g>
<g id="window_x5F_title_x5F_leaves">
	<g id="WIndow_Title_Rope_Leave">
	</g>
</g>
<g id="btn_x5F_text_x5F_grey_1_">
	<g id="Button_Text_Grey">
	</g>
</g>
<g id="btn_x5F_text_x5F_red">
	<g id="Element_Board_Red_Small">
	</g>
</g>
<g id="btn_x5F_text_x5F_green">
	<g id="Button_Text_Green">
	</g>
</g>
<g id="btn_x5F_text_x5F_brown">
	<g id="Button_Text_Brown">
	</g>
</g>
<g id="boards_x5F_small_x5F_grey">
	<g id="Element_Board_Grey_Small">
	</g>
</g>
<g id="boards_x5F_small_x5F_red">
	<g id="Button_Text_Red">
	</g>
</g>
<g id="boards_x5F_small_x5F_green_1_">
	<g id="Element_Board_Green_Small">
	</g>
</g>
<g id="boards_x5F_small_x5F_brown_1_">
	<g id="Element_Board_Brown_Small">
	</g>
</g>
<g id="boards_x5F_large_x5F_grey">
	<g id="Element_Board_Grey_Big">
	</g>
</g>
<g id="boards_x5F_large_x5F_red">
	<g id="Element_Board_Red_Big">
		<g id="Element_Board_Brown_Big_5_">
		</g>
	</g>
</g>
<g id="boards_x5F_large_x5F_green">
	<g id="Element_Board_Green_Big">
		<g id="Element_Board_Brown_Big_4_">
		</g>
	</g>
</g>
<g id="boards_x5F_large_x5F_brown">
	<g id="Element_Board_Brown_Big">
	</g>
</g>
<g id="boards_x5F_bar_x5F_top">
	<g id="window_bar_top">
		<g id="Window_tab_bar_bottom_1_">
		</g>
	</g>
</g>
<g id="boards_x5F_bar_x5F_bottom">
	<g id="Window_tab_bar_bottom">
	</g>
</g>
<g id="loader_x5F_bar_x5F_bg">
	<g id="Element_Loader_BG">
	</g>
</g>
<g id="loader_x5F_bar_x5F_blue_x5F_fill">
</g>
<g id="loader_x5F_bar_x5F_red_x5F_fill">
</g>
<g id="loader_x5F_bar_x5F_purple_x5F_fill">
</g>
<g id="loader_x5F_bar_x5F_green_x5F_fill">
</g>
<g id="loader_x5F_bar_x5F_grey_x5F_fill">
</g>
<g id="status_x5F_bar_x5F_life">
</g>
<g id="status_x5F_bar_x5F_power">
</g>
<g id="status_x5F_bar_x5F_defense">
</g>
<g id="status_x5F_bar_x5F_weapon">
</g>
<g id="status_x5F_bar_x5F_money">
</g>
<g id="status_x5F_bar_x5F_time">
</g>
<g id="status_x5F_bar_x5F_weapon_x5F_fill">
</g>
<g id="status_x5F_bar_x5F_power_x5F_fill">
</g>
<g id="status_x5F_bar_x5F_defense_x5F_fill">
</g>
<g id="status_x5F_bar_x5F_life_x5F_fill">
</g>
<g id="element_x5F_button_x5F_level_x5F_locked">
	<g id="Element_Level_Empty">
	</g>
</g>
<g id="element_x5F_button_x5F_level">
	<g id="Element_Level_BG">
	</g>
</g>
<g id="element_x5F_pagination_x5F_active">
	<g id="Element_Pagination_Active">
	</g>
</g>
<g id="element_x5F_pagination_x5F_empty">
	<g id="Element_Pagination_Default">
	</g>
</g>
<g id="element_x5F_star_x5F_small_1_">
	<g id="element_x5F_star_x5F_small_3_">
	</g>
</g>
<g id="element_x5F_radio_x5F_on">
	<g id="element_x5F_radio_x5F_on_1_">
	</g>
</g>
<g id="element_x5F_radio_x5F_off_1_">
	<g id="element_x5F_radio_x5F_off_3_">
	</g>
</g>
<g id="element_x5F_checkmark_x5F_unchecked_1_">
	<g id="element_x5F_checkmark_x5F_unchecked_3_">
	</g>
</g>
<g id="element_x5F_checkmark_x5F_checked_1_">
	<g id="element_x5F_checkmark_x5F_checked_2_">
	</g>
</g>
<g id="element_x5F_toggle_x5F_on">
	<g id="Element_Toggle_On">
	</g>
</g>
<g id="element_x5F_toggle_x5F_off">
	<g id="Element_Toggle_Off">
	</g>
</g>
<g id="element_x5F_small_x5F_weapon">
	<g id="Shape_Icon_Weapon_Small">
	</g>
</g>
<g id="element_x5F_small_x5F_power">
	<g id="Shape_Icon_Power_Small">
	</g>
</g>
<g id="element_x5F_small_x5F_heart">
	<g id="Shape_Icon_Heart_Small">
	</g>
</g>
<g id="element_x5F_small_x5F_defense">
	<g id="Shape_Icon_Defense_Small">
	</g>
</g>
<g id="element_x5F_big_x5F_power">
	<g id="Shape_Icon_Power_Big">
	</g>
</g>
<g id="element_x5F_weapon">
	<g id="Shape_Icon_Weapon_Big">
	</g>
</g>
<g id="element_x5F_big_x5F_life">
	<g id="Shape_Icon_Heart_Big">
	</g>
</g>
<g id="element_x5F_big_x5F_defense">
	<g id="Shape_Icon_Defense_Big">
	</g>
</g>
<g id="element_x5F_rope_x5F_tie">
</g>
<g id="element_x5F_rope">
</g>
<g id="element_x5F_new_x5F_score">
	<g id="Element_label_New">
	</g>
</g>
<g id="element_x5F_rope_x5F_right">
	<g id="Element_Rope__x23_1_1_">
	</g>
</g>
<g id="element_x5F_rope_x5F_left">
	<g id="Element_Rope__x23_1">
	</g>
</g>
<g id="element_x5F_rope2_x5F_left">
	<g id="Element_Rope__x23_2_14_">
	</g>
</g>
<g id="element_x5F_rope2_x5F_right">
	<g id="Element_Rope__x23_2">
	</g>
</g>
<g id="element_x5F_slider_x5F_bg">
</g>
<g id="element_x5F_slider_x5F_bar">
</g>
<g id="element_x5F_slider_x5F_button">
</g>
<g id="element_x5F_star_x5F_big_x5F_empty">
	<g id="Element_Star_Empty_Big">
	</g>
</g>
<g id="element_x5F_star_x5F_medium_x5F_empty">
	<g id="Element_Star_Empty_1_">
	</g>
</g>
<g id="element_x5F_star_x5F_big">
	<g id="Element_Star_Filled_Big_1_">
	</g>
</g>
<g id="element_x5F_star_x5F_medium">
	<g id="Element_Star_Filled_Medium">
		<g id="Element_Star_Empty">
		</g>
		<g id="Element_Star_Filled_Big">
		</g>
	</g>
</g>
<g id="window_x5F_panel_x5F_pause">
	<g id="Window_Panel_1_6_">
	</g>
</g>
<g id="window_x5F_panel_x5F_popup">
	<g id="Window_Panel_1_5_">
	</g>
</g>
<g id="window_x5F_panel_x5F_store">
	<g id="Window_Panel_1_4_">
	</g>
</g>
<g id="window_x5F_panel_x5F_upgrade">
	<g id="Window_Panel_1_3_">
	</g>
</g>
<g id="window_x5F_panel_x5F_setting_1_">
	<g id="window_x5F_panel_x5F_setting_2_">
	</g>
</g>
<g id="window_x5F_panel_x5F_level_1_">
	<g id="window_x5F_panel_x5F_level_2_">
	</g>
</g>
<g id="window_x5F_panel_x5F_option">
	<g id="Window_Panel_1_2_">
	</g>
</g>
<g id="window_x5F_panel_x5F_level_3_">
	<g id="Window_Panel_1_1_">
	</g>
</g>
<g id="window_x5F_title_x5F_3">
</g>
<g id="window_x5F_title_x5F_2">
</g>
<g id="window_x5F_panel_x5F_main">
	<g id="Window_Panel_1">
	</g>
</g>
<g id="window_x5F_title_x5F_1">
	<g>
		<g id="XMLID_1_">
			<g>
				<rect y="3" style="opacity:0.31;" width="276" height="71"/>
				<g>
					<rect x="2" style="fill:#CF883C;" width="271.984" height="70"/>
					<polygon style="fill:#FCC38B;" points="2,0 6.024,3.944 6.029,3.944 6.027,66.056 270.962,66 270.962,4 273.984,0 					"/>
					<polygon style="fill:#E7A149;" points="268.947,64.013 8.044,64.013 8.044,25 20.271,22 8.044,22 8.044,4 268.947,4 
						268.947,47 249.807,47 269,50 					"/>
					<path style="fill:#A56226;" d="M6.015,19H2v3h18.065L6.015,19z M6.012,66.056L2,70h271.818l-3.012-4L6.012,66.056z M269,44
						l-19,3h24v-3H269z"/>
				</g>
				<g>
					<g style="opacity:0.4;">
						<circle cx="253.413" cy="58.188" r="4.413"/>
					</g>
					<g style="opacity:0.4;">
						<circle cx="253.922" cy="14.795" r="4.413"/>
					</g>
					<path style="opacity:0.2;" d="M250.631,18.211c0.875,1.017-0.405,2.753,0.598,4.287c-0.005-0.011-0.005-0.026-0.01-0.037
						c0.753,1.168-0.617,2.829,0.294,4.486c-0.005-0.013-0.004-0.029-0.009-0.042c0.667,1.209-0.74,2.882,0.105,4.571
						c-0.004-0.012-0.003-0.027-0.007-0.04c0.651,1.303-0.916,2.83-0.038,4.586c-0.004-0.013-0.002-0.029-0.006-0.041
						c0.607,1.315-0.95,2.838-0.153,4.608c-0.004-0.013-0.001-0.029-0.005-0.042c0.57,1.317-1.001,2.815-0.255,4.593
						c-0.002-0.013-0.004-0.025-0.004-0.038c0.555,1.369-1.089,2.779-0.368,4.582c-0.003-0.012,0-0.027-0.003-0.04
						c0.499,1.322-1.128,2.731-0.497,4.52c-0.003-0.013,0.001-0.027-0.001-0.04c0.448,1.316-0.867,1.838-0.842,3.437
						c0.005,0.276,0.047,0.582,0.129,0.851c-0.002-0.01,0.003-0.023,0.001-0.033c0.303,1.042,1.422,2.137,2.391,2.501
						c-0.001-0.001,0.182-0.002,0.182-0.003c2.92,1.008,3.868-7.883,3.868-9.294c0,0,0,0.002,0,0.002c-1-1.651,1-2.664,0-4.7
						c0,0.001,0,0.003,0,0.005c-1-1.592,1-2.723,0-4.712c0,0.002,0,0.004,0,0.006c0-0.198-0.096-0.468-0.184-0.599
						c-0.299-0.019-0.509-0.038-0.808-0.057c1.707-0.279,2.86-1.661,1.493-4.052c0.001,0.003,0.21,0.007,0.211,0.01
						C255.907,35.923,258,34.686,257,32.75c0,0.002,0,0.004,0,0.006c-1-1.572,1.008-2.821-0.241-4.742
						c0.001,0.003-0.257,0.008-0.256,0.011c-0.897-1.522,1.497-2.941-0.503-4.797c0,0.001,0,0.002,0,0.003
						c-1-2.293,0.763-7.93-1.705-10.005c0.003,0.004,0.086,0.009,0.089,0.013c-0.186-0.171-0.601-0.37-0.762-0.47
						c-1.07-0.411-1.622-0.167-2.622,0.642c0-0.001,0-0.001,0-0.001c-1,1.292-1.826,3.32-0.515,4.832
						C250.479,18.233,250.637,18.221,250.631,18.211z M252.104,50.559l-0.374-0.047l0.268,0.034L252.104,50.559z"/>
					<g>
						<g>
							<path style="fill:#F7C99A;" d="M251.867,14.454c0,0,0.101-0.138,0.293-0.346c0.192-0.196,0.47-0.426,0.819-0.713
								c0.685-0.541,1.703-1.277,3.329-0.371L251.867,14.454z"/>
							<path style="fill:#C99561;" d="M251.867,14.454l1.377-0.444c0,0,0.083-0.146,0.251-0.38c0.165-0.22,0.402-0.537,0.697-0.932
								c-0.763,0.252-1.301,0.781-1.704,1.111c-0.198,0.161-0.355,0.319-0.46,0.448C251.925,14.383,251.867,14.454,251.867,14.454z"
								/>
							<path style="fill:#8E613F;" d="M253.415,13.081c-0.486,0.326-0.866,0.681-1.135,0.909c-0.269,0.264-0.413,0.465-0.413,0.465
								l0.564-0.182c0,0,0.086-0.136,0.258-0.357c0.171-0.208,0.418-0.476,0.736-0.838L253.415,13.081z"/>
						</g>
						<g>
							<path style="fill:#E0AF79;" d="M253.322,23.138c-1.415-1.117-1.667-3.07-0.592-4.496c-1.461-1.043-1.803-2.882-0.884-4.181
								l4.475-1.442c1.706,1.152,2.098,3.392,1.03,4.879c1.483,1.11,1.764,3.273,0.627,4.711l0.006,0.005L253.322,23.138z"/>
							<path style="fill:#AA784F;" d="M253.322,23.138c-1.415-1.117-1.667-3.07-0.592-4.496c-1.461-1.043-1.803-2.882-0.884-4.181
								l0.594-0.192c0.207,0.307,0.355,0.559,0.363,0.576c-0.174,1.02,0.023,2.088,0.275,2.923c0.251,0.833,0.555,1.425,0.559,1.463
								c-0.369,1.445,0.017,2.968,0.314,3.836L253.322,23.138z"/>
							<g>
								<path style="fill:#C99561;" d="M253.567,22.051l1.194,0.925l-1.438,0.162c-1.178-0.922-1.538-2.432-1.027-3.724
									C252.093,20.227,252.571,21.287,253.567,22.051z"/>
								<path style="fill:#C99561;" d="M257.806,16.951c-0.101,0.335-0.252,0.658-0.46,0.954c0,0-1.341-1.01-2.71-1.916
									c-0.694-0.451-1.381-0.875-1.91-1.141c-0.519-0.291-0.871-0.39-0.871-0.39l1.379-0.444c0,0,0.302,0.122,0.734,0.373
									c0.437,0.243,1.02,0.6,1.586,0.979C256.696,16.122,257.806,16.951,257.806,16.951z"/>
								<path style="fill:#C99561;" d="M251.488,15.166c-0.133,0.716,0.394,1.701,1.433,2.39c0,0,1.414,0.953,2.802,2.003
									c1.389,1.041,2.756,2.141,2.756,2.141c-0.117,0.323-0.284,0.633-0.506,0.915c0,0-1.288-1.045-2.602-2.04
									c-1.306-1.001-2.635-1.929-2.635-1.929C251.514,17.791,251.074,16.36,251.488,15.166z"/>
							</g>
							<g>
								<path style="fill:#F7C99A;" d="M252.037,14.534c0,0,0.087,0.034,0.24,0.095c0.151,0.078,0.366,0.189,0.625,0.322
									c0.526,0.271,1.204,0.704,1.89,1.153c1.36,0.906,2.687,1.911,2.687,1.911c1.073,0.802,1.629,2.587,0.877,3.981
									c0.239-1.122-1.279-3.169-2.915-4.803c-0.818-0.82-1.668-1.527-2.315-1.992c-0.328-0.227-0.599-0.398-0.787-0.514
									C252.147,14.576,252.037,14.534,252.037,14.534z"/>
								<path style="fill:#F7C99A;" d="M255.274,13.356l1.026-0.33l0.15,0.097c1.247,0.821,1.924,2.687,1.248,4.135
									C257.833,16.31,256.789,14.75,255.274,13.356z"/>
								<path style="fill:#F7C99A;" d="M256.893,22.736c-0.861-1.052-1.855-2.054-2.635-2.78c-0.788-0.724-1.35-1.179-1.35-1.179
									s1.284,0.9,2.54,1.869c1.267,0.961,2.511,1.97,2.511,1.97L256.893,22.736z"/>
							</g>
							<g>
								<path style="fill:#8E613F;" d="M253.323,23.138c-0.128-0.1-0.244-0.209-0.352-0.321l-0.07-0.073
									c-0.104-0.115-0.198-0.234-0.282-0.359l-0.046-0.073c-0.083-0.13-0.158-0.264-0.22-0.403l-0.004-0.008
									c-0.063-0.145-0.116-0.293-0.159-0.444l-0.018-0.062c-0.04-0.151-0.069-0.303-0.085-0.458l-0.003-0.037
									c-0.031-0.324-0.009-0.654,0.057-0.974l0.005-0.026c0.036-0.162,0.085-0.323,0.148-0.48l0.001-0.002
									c-0.201,0.812,0.277,1.872,1.272,2.635l0.121,0.093c0.081,0.353,0.177,0.667,0.265,0.923L253.323,23.138z"/>
								<path style="fill:#8E613F;" d="M252.92,17.556l0.123,0.084c0.256,0.899,0.59,1.55,0.594,1.591l-0.011,0.05l-0.891-0.634
									c-0.137-0.094-0.261-0.199-0.377-0.308l-0.073-0.068c-0.108-0.107-0.208-0.219-0.297-0.337l-0.049-0.069
									c-0.087-0.124-0.17-0.249-0.241-0.377l-0.004-0.007c-0.073-0.134-0.132-0.274-0.182-0.416l-0.021-0.059
									c-0.047-0.141-0.081-0.29-0.108-0.432l-0.006-0.034c-0.053-0.295-0.053-0.607-0.005-0.908l0.003-0.024
									c0.023-0.145,0.06-0.292,0.11-0.439l0.001-0.002C251.355,15.884,251.883,16.868,252.92,17.556z"/>
								<path style="fill:#8E613F;" d="M252.803,14.845l-0.005,0.04c0,0-0.235-0.121-0.469-0.242
									c-0.236-0.093-0.473-0.185-0.473-0.185l0.585-0.189C252.648,14.576,252.796,14.828,252.803,14.845z"/>
							</g>
						</g>
						<g>
							<path style="fill:#E0AF79;" d="M254.078,32.257c-1.355-1.196-1.484-3.203-0.313-4.57c-1.377-1.16-1.58-3.15-0.443-4.549
								l4.672-0.525c1.407,1.158,1.616,3.283,0.435,4.679c1.398,1.191,1.538,3.325,0.327,4.696l0.006,0.006L254.078,32.257z"/>
							<path style="fill:#AA784F;" d="M254.078,32.257c-1.355-1.196-1.484-3.203-0.313-4.57c-1.377-1.16-1.58-3.15-0.443-4.549
								l0.621-0.07c0.144,0.417,0.264,0.685,0.267,0.709c-0.316,1.064-0.214,2.181-0.028,3.049c0.18,0.868,0.447,1.484,0.451,1.523
								c-0.475,1.433-0.168,2.986,0.078,3.872L254.078,32.257z"/>
							<g>
								<path style="fill:#C99561;" d="M254.383,31.18l1.14,0.995l-1.445,0.081c-1.122-0.992-1.403-2.539-0.797-3.819
									C253.016,29.251,253.437,30.355,254.383,31.18z"/>
								<path style="fill:#C99561;" d="M258.961,26.403c-0.128,0.318-0.306,0.62-0.537,0.895c0,0-1.266-1.058-2.533-2.117
									c-1.273-1.044-2.559-2.045-2.559-2.045l1.44-0.162c0,0,1.052,0.845,2.104,1.69
									C257.919,25.534,258.961,26.403,258.961,26.403z"/>
								<path style="fill:#C99561;" d="M252.861,23.894c-0.233,0.816,0.204,1.906,1.18,2.705c0,0,1.323,1.112,2.646,2.223
									c1.31,1.146,2.62,2.293,2.62,2.293c-0.135,0.314-0.318,0.611-0.557,0.88c0,0-1.239-1.091-2.477-2.182
									c-1.245-1.077-2.503-2.12-2.503-2.12C252.617,26.731,252.294,25.189,252.861,23.894z"/>
							</g>
							<g>
								<path style="fill:#F7C99A;" d="M253.499,23.277c0,0,1.277,0.995,2.536,2.033c1.256,1.052,2.511,2.104,2.511,2.104
									c1.017,0.864,1.442,2.641,0.621,3.986c0.297-1.104-1.092-3.199-2.585-4.951C255.087,24.69,253.499,23.277,253.499,23.277z"
									/>
								<path style="fill:#F7C99A;" d="M256.901,22.736l1.071-0.12l0.126,0.101c1.037,0.837,1.519,2.609,0.729,3.976
									C259.05,25.778,258.104,24.211,256.901,22.736z"/>
								<path style="fill:#F7C99A;" d="M257.666,32.055c-1.601-2.196-3.733-4.216-3.733-4.216s1.207,1.024,2.414,2.049
									c1.195,1.053,2.39,2.107,2.39,2.107L257.666,32.055z"/>
							</g>
							<g>
								<path style="fill:#8E613F;" d="M254.078,32.257c-0.121-0.108-0.231-0.223-0.333-0.343l-0.066-0.077
									c-0.097-0.121-0.185-0.247-0.262-0.377l-0.042-0.076c-0.075-0.136-0.143-0.275-0.197-0.418l-0.003-0.008
									c-0.056-0.15-0.098-0.303-0.13-0.458l-0.014-0.064c-0.029-0.155-0.051-0.311-0.058-0.468l-0.001-0.038
									c-0.012-0.329,0.027-0.661,0.119-0.983l0.007-0.027c0.047-0.162,0.108-0.322,0.181-0.478l0.001-0.002
									c-0.264,0.814,0.157,1.916,1.102,2.741l0.115,0.1c0.061,0.359,0.14,0.679,0.213,0.941L254.078,32.257z"/>
								<path style="fill:#8E613F;" d="M254.041,26.598l0.116,0.096c0.179,0.936,0.472,1.614,0.475,1.655l-0.014,0.05l-0.848-0.706
									c-0.129-0.107-0.244-0.224-0.352-0.345l-0.067-0.076c-0.1-0.118-0.19-0.242-0.27-0.37l-0.043-0.075
									c-0.077-0.134-0.151-0.27-0.209-0.412l-0.004-0.008c-0.061-0.148-0.107-0.299-0.145-0.453l-0.016-0.064
									c-0.034-0.153-0.058-0.309-0.069-0.465l-0.002-0.038c-0.017-0.329,0.01-0.659,0.091-0.982l0.007-0.027
									c0.042-0.163,0.097-0.323,0.166-0.481l0.001-0.002C252.628,24.712,253.066,25.801,254.041,26.598z"/>
								<path style="fill:#8E613F;" d="M254.21,23.777l-0.01,0.042l-0.867-0.683l0.611-0.069
									C254.087,23.485,254.207,23.753,254.21,23.777z"/>
							</g>
						</g>
						<g>
							<path style="fill:#E0AF79;" d="M254.346,41.403c-1.283-1.264-1.308-3.265-0.067-4.571c-1.317-1.227-1.414-3.235-0.201-4.575
								l4.694-0.264c1.34,1.228,1.436,3.352,0.185,4.687c1.334,1.26,1.364,3.409,0.075,4.716l0.005,0.006L254.346,41.403z"/>
							<path style="fill:#AA784F;" d="M254.346,41.403c-1.283-1.264-1.308-3.265-0.067-4.571c-1.317-1.227-1.414-3.235-0.201-4.575
								l0.624-0.035c0.119,0.426,0.226,0.7,0.228,0.725c-0.372,1.048-0.331,2.171-0.188,3.048c0.134,0.876,0.367,1.505,0.368,1.544
								c-0.546,1.405-0.323,2.968-0.13,3.865L254.346,41.403z"/>
							<g>
								<path style="fill:#C99561;" d="M254.713,40.348l1.081,1.054l-1.447,0c-1.063-1.048-1.261-2.6-0.592-3.847
									C253.455,38.354,253.808,39.475,254.713,40.348z"/>
								<path style="fill:#C99561;" d="M259.536,35.82c-0.144,0.31-0.338,0.604-0.584,0.866c0,0-1.201-1.141-2.418-2.246
									c-1.223-1.092-2.445-2.184-2.445-2.184l1.447-0.081c0,0,1.005,0.901,2.01,1.802C258.54,34.898,259.536,35.82,259.536,35.82z
									"/>
								<path style="fill:#C99561;" d="M253.575,32.989c-0.277,0.807,0.104,1.921,1.035,2.77c0,0,1.265,1.179,2.53,2.358
									c1.254,1.195,2.492,2.434,2.492,2.434c-0.153,0.307-0.354,0.595-0.606,0.851c0,0-1.161-1.179-2.355-2.317
									c-1.181-1.142-2.387-2.247-2.387-2.247C253.184,35.819,252.938,34.258,253.575,32.989z"/>
							</g>
							<g>
								<path style="fill:#F7C99A;" d="M254.245,32.407c0,0,1.212,1.085,2.424,2.17c1.199,1.116,2.398,2.231,2.398,2.231
									c0.969,0.915,1.308,2.717,0.409,4.021c0.365-1.092-0.923-3.261-2.319-5.087C255.756,33.909,254.245,32.407,254.245,32.407z"
									/>
								<path style="fill:#F7C99A;" d="M257.673,32.054l1.076-0.061l0.119,0.108c0.991,0.889,1.375,2.676,0.518,4.001
									C259.654,35.199,258.794,33.591,257.673,32.054z"/>
								<path style="fill:#F7C99A;" d="M257.94,41.401c-1.47-2.286-3.502-4.409-3.502-4.409s1.151,1.086,2.303,2.172
									c1.151,1.099,2.272,2.237,2.272,2.237L257.94,41.401z"/>
							</g>
							<g>
								<path style="fill:#8E613F;" d="M254.347,41.403c-0.116-0.114-0.219-0.235-0.314-0.36l-0.061-0.081
									c-0.09-0.126-0.17-0.256-0.24-0.39l-0.037-0.078c-0.067-0.139-0.127-0.281-0.173-0.426l-0.003-0.008
									c-0.046-0.152-0.083-0.307-0.108-0.463l-0.011-0.065c-0.022-0.156-0.034-0.312-0.033-0.469l0.001-0.038
									c0.006-0.329,0.064-0.657,0.173-0.973l0.009-0.026c0.055-0.159,0.122-0.315,0.203-0.467l0.001-0.002
									c-0.299,0.798,0.054,1.918,0.958,2.79l0.109,0.106c0.04,0.361,0.1,0.683,0.159,0.948L254.347,41.403z"/>
								<path style="fill:#8E613F;" d="M254.61,35.759l0.112,0.102c0.133,0.944,0.385,1.637,0.387,1.677l-0.016,0.049l-0.809-0.75
									c-0.123-0.114-0.231-0.236-0.333-0.362l-0.063-0.079c-0.093-0.123-0.176-0.251-0.25-0.384l-0.04-0.077
									c-0.072-0.138-0.137-0.278-0.188-0.423l-0.003-0.008c-0.053-0.151-0.091-0.305-0.12-0.461l-0.012-0.064
									c-0.026-0.155-0.041-0.312-0.044-0.469l0-0.038c0-0.329,0.044-0.66,0.143-0.98l0.008-0.026
									c0.051-0.161,0.115-0.319,0.192-0.473l0.001-0.002C253.299,33.798,253.68,34.911,254.61,35.759z"/>
								<path style="fill:#8E613F;" d="M254.929,32.947l-0.013,0.041l-0.828-0.732l0.614-0.035
									C254.821,32.648,254.928,32.922,254.929,32.947z"/>
							</g>
						</g>
						<g>
							<path style="fill:#E0AF79;" d="M253.982,50.454c-1.159-1.351-1.039-3.289,0.289-4.5c-1.234-1.301-1.203-3.283,0.075-4.551
								l4.702-0.002c1.278,1.303,1.237,3.457-0.099,4.717c1.244,1.355,1.111,3.56-0.301,4.767l0.005,0.006L253.982,50.454z"/>
							<path style="fill:#AA784F;" d="M253.982,50.454c-1.159-1.351-1.039-3.289,0.289-4.5c-1.234-1.301-1.203-3.283,0.075-4.551
								l0.625,0c0.108,0.42,0.184,0.712,0.189,0.734c-0.436,1.022-0.455,2.139-0.375,3.017c0.086,0.878,0.262,1.516,0.264,1.555
								c-0.637,1.355-0.55,2.904-0.437,3.804L253.982,50.454z"/>
							<g>
								<path style="fill:#C99561;" d="M254.439,49.453l0.985,1.136l-1.441-0.135c-0.966-1.123-1.034-2.638-0.285-3.822
									C253.348,47.399,253.609,48.517,254.439,49.453z"/>
								<path style="fill:#C99561;" d="M259.581,45.291c-0.161,0.303-0.372,0.585-0.637,0.833c0,0-1.128-1.229-2.269-2.404
									c-1.154-1.181-2.318-2.317-2.318-2.317l1.449,0c0,0,0.951,0.957,1.902,1.915C258.656,44.286,259.581,45.291,259.581,45.291z
									"/>
								<path style="fill:#C99561;" d="M253.807,42.102c-0.329,0.785-0.005,1.91,0.864,2.81c0,0,1.196,1.228,2.366,2.519
									c1.161,1.283,2.287,2.65,2.287,2.65c-0.18,0.299-0.406,0.573-0.68,0.808c0,0-1.043-1.304-2.149-2.528
									c-1.083-1.23-2.217-2.403-2.217-2.403C253.246,44.878,253.095,43.327,253.807,42.102z"/>
							</g>
							<g>
								<path style="fill:#F7C99A;" d="M254.507,41.561c0,0,1.148,1.152,2.296,2.303c1.132,1.169,2.247,2.391,2.247,2.391
									c0.902,0.985,1.111,2.846,0.091,4.096c0.469-1.085-0.649-3.382-1.929-5.292C255.936,43.137,254.507,41.561,254.507,41.561z"
									/>
								<path style="fill:#F7C99A;" d="M257.948,41.401l1.078,0l0.114,0.115c0.942,0.945,1.216,2.771,0.277,4.05
									C259.741,44.673,258.986,42.999,257.948,41.401z"/>
								<path style="fill:#F7C99A;" d="M257.561,50.789c-1.248-2.437-3.141-4.666-3.141-4.666s1.092,1.135,2.138,2.324
									c1.067,1.183,2.073,2.442,2.073,2.442L257.561,50.789z"/>
							</g>
							<g>
								<path style="fill:#8E613F;" d="M253.983,50.454c-0.105-0.122-0.197-0.25-0.281-0.38l-0.054-0.084
									c-0.079-0.131-0.147-0.265-0.205-0.401l-0.031-0.079c-0.055-0.141-0.102-0.284-0.135-0.43l-0.002-0.008
									c-0.035-0.152-0.059-0.307-0.072-0.462l-0.006-0.064c-0.01-0.154-0.009-0.308,0.004-0.462l0.004-0.037
									c0.03-0.322,0.119-0.636,0.244-0.941l0.01-0.025c0.066-0.153,0.144-0.302,0.235-0.445l0.001-0.002
									c-0.348,0.768-0.088,1.885,0.742,2.82l0.1,0.113c0.009,0.358,0.04,0.68,0.075,0.946L253.983,50.454z"/>
								<path style="fill:#8E613F;" d="M254.67,44.912l0.105,0.108c0.081,0.946,0.272,1.648,0.275,1.689l-0.02,0.048l-0.753-0.797
									c-0.115-0.121-0.214-0.249-0.306-0.38l-0.059-0.082c-0.086-0.128-0.163-0.26-0.228-0.396l-0.035-0.079
									c-0.063-0.141-0.119-0.284-0.16-0.43l-0.003-0.008c-0.043-0.152-0.071-0.307-0.09-0.463l-0.008-0.064
									c-0.016-0.155-0.019-0.31-0.015-0.467l0.002-0.038c0.015-0.327,0.081-0.651,0.199-0.963l0.01-0.026
									c0.061-0.157,0.134-0.31,0.221-0.458l0.001-0.002C253.478,42.889,253.802,44.013,254.67,44.912z"/>
								<path style="fill:#8E613F;" d="M255.16,42.137l-0.015,0.04l-0.788-0.775l0.615,0
									C255.08,41.823,255.155,42.115,255.16,42.137z"/>
							</g>
						</g>
						<g>
							<path style="fill:#E0AF79;" d="M252.215,58.517c-0.363-0.699-0.444-1.301-0.249-1.968c0.203-0.636,0.668-1.286,1.421-1.736
								c-1.021-1.397-0.798-3.234,0.596-4.359l4.681,0.438c1.145,1.434,0.861,3.704-0.684,4.817c0.49,0.805,0.613,1.801,0.312,2.768
								c-0.271,0.948-1.017,1.892-1.985,2.325l0.001,0.009L252.215,58.517z"/>
							<path style="fill:#AA784F;" d="M252.215,58.517c-0.363-0.699-0.444-1.301-0.249-1.968c0.203-0.636,0.668-1.286,1.421-1.736
								c-1.021-1.397-0.798-3.234,0.596-4.359l0.622,0.058c0.066,0.422,0.113,0.716,0.116,0.738c-1.047,1.903-0.639,4.322-0.688,4.4
								c-0.847,1.165-1.087,2.505-1.265,3.177L252.215,58.517z"/>
							<g>
								<path style="fill:#C99561;" d="M252.887,57.951c0,0,0.175,0.313,0.314,0.616c0.146,0.311,0.277,0.658,0.277,0.658
									l-1.262-0.707c-0.595-1.068-0.427-2.218,0.5-3.181C252.25,55.982,252.327,56.942,252.887,57.951z"/>
								<path style="fill:#C99561;" d="M258.733,54.942c-0.21,0.294-0.463,0.557-0.759,0.772c0,0-0.904-1.446-1.918-2.739
									c-1.003-1.309-2.062-2.52-2.062-2.52l1.443,0.135c0,0,0.859,1.016,1.7,2.101c0.404,0.555,0.809,1.11,1.112,1.526
									C258.551,54.643,258.733,54.942,258.733,54.942z"/>
								<path style="fill:#C99561;" d="M253.377,51.081c-0.396,0.731-0.203,1.824,0.548,2.806c0,0,1.038,1.32,1.931,2.831
									c0.426,0.755,0.861,1.559,1.092,2.223c0.244,0.662,0.385,1.144,0.385,1.144c-0.317,0.307-0.667,0.555-1.034,0.719
									c0,0-0.08-0.485-0.252-1.133c-0.204-0.647-0.516-1.427-0.921-2.151c-0.385-0.724-0.821-1.396-1.164-1.894
									c-0.332-0.49-0.571-0.807-0.571-0.807C252.525,53.645,252.559,52.205,253.377,51.081z"/>
							</g>
							<g>
								<path style="fill:#F7C99A;" d="M254.128,50.625c0,0,1.05,1.206,2.036,2.509c0.496,0.65,0.981,1.324,1.32,1.847
									c0.345,0.531,0.575,0.885,0.575,0.885c0.341,0.594,0.516,1.383,0.344,2.224c-0.144,0.823-0.604,1.689-1.375,2.263
									c0.478-0.569,0.612-1.59,0.461-2.674c-0.143-1.091-0.57-2.254-1.067-3.301C255.412,52.282,254.128,50.625,254.128,50.625z"
									/>
								<path style="fill:#F7C99A;" d="M257.568,50.789l1.073,0.1l0.103,0.127c0.844,1.042,0.928,2.978-0.219,4.188
									C259.006,54.311,258.443,52.49,257.568,50.789z"/>
								<path style="fill:#F7C99A;" d="M255.35,60.274c0.001-1.519-0.582-2.811-0.998-3.747c-0.47-0.948-0.842-1.53-0.842-1.53
									s0.218,0.313,0.544,0.782c0.334,0.485,0.74,1.134,1.115,1.839c0.378,0.702,0.689,1.46,0.876,2.086
									c0.165,0.627,0.242,1.094,0.242,1.094L255.35,60.274z"/>
							</g>
							<g>
								<path style="fill:#8E613F;" d="M252.216,58.518c-0.066-0.131-0.119-0.256-0.166-0.375l-0.03-0.076
									c-0.042-0.116-0.076-0.226-0.098-0.33l-0.013-0.07c-0.025-0.128-0.043-0.252-0.046-0.372l-0.001-0.007
									c-0.003-0.125,0.008-0.245,0.029-0.362l0.009-0.048c0.019-0.127,0.045-0.259,0.085-0.382l0.011-0.03
									c0.085-0.264,0.234-0.493,0.401-0.75l0.014-0.02c0.089-0.124,0.189-0.242,0.303-0.355l0.002-0.002
									c-0.464,0.645-0.387,1.604,0.173,2.612l0.069,0.127c-0.081,0.288-0.15,0.525-0.188,0.749L252.216,58.518z"/>
								<path style="fill:#8E613F;" d="M253.925,53.887l0.088,0.117c-0.051,0.914,0.035,1.611,0.02,1.646l-0.028,0.041
									c0,0-0.151-0.219-0.303-0.439c-0.156-0.216-0.312-0.433-0.312-0.433c-0.098-0.132-0.18-0.269-0.254-0.406l-0.046-0.086
									c-0.067-0.133-0.124-0.266-0.169-0.401l-0.024-0.078c-0.043-0.14-0.075-0.277-0.102-0.423l-0.002-0.008
									c-0.026-0.15-0.037-0.301-0.039-0.451l-0.001-0.062c0.001-0.149,0.014-0.297,0.038-0.443l0.007-0.035
									c0.06-0.303,0.151-0.612,0.3-0.899l0.012-0.024c0.076-0.144,0.163-0.285,0.264-0.419l0.002-0.002
									C252.981,51.814,253.174,52.906,253.925,53.887z"/>
								<path style="fill:#8E613F;" d="M254.721,51.25l-0.019,0.038l-0.708-0.833l0.612,0.057
									C254.671,50.935,254.717,51.228,254.721,51.25z"/>
							</g>
						</g>
						<g>
							<path style="fill:#F7C99A;" d="M252.234,58.528c0.005,0.031,0.318,0.505,0.876,1.232c0.575,0.661,1.341,1.662,3.195,1.049
								L252.234,58.528z"/>
							<path style="fill:#C99561;" d="M252.234,58.528l1.262,0.707c0,0,0.059,0.144,0.165,0.404c0.107,0.251,0.267,0.62,0.482,1.066
								c-0.688-0.41-1.103-1.045-1.423-1.466C252.41,58.809,252.236,58.548,252.234,58.528z"/>
							<path style="fill:#8E613F;" d="M253.468,60.163c-0.405-0.425-0.698-0.861-0.91-1.152c-0.208-0.286-0.323-0.471-0.324-0.483
								l0.517,0.29c0,0,0.068,0.147,0.187,0.366c0.127,0.233,0.31,0.568,0.539,0.986L253.468,60.163z"/>
						</g>
					</g>
				</g>
				<g>
					<g style="opacity:0.4;">
						<circle cx="27.05" cy="14.795" r="4.413"/>
					</g>
					<g style="opacity:0.4;">
						<circle cx="26.541" cy="58.188" r="4.413"/>
					</g>
					<path style="opacity:0.2;" d="M29.831,54.772c-0.875-1.017,0.405-2.753-0.598-4.287c0.005,0.011,0.005,0.026,0.01,0.037
						c-0.753-1.168,0.617-2.829-0.294-4.486c0.005,0.013,0.004,0.029,0.009,0.042c-0.667-1.209,0.74-2.882-0.105-4.571
						c0.004,0.012,0.003,0.027,0.007,0.04c-0.651-1.303,0.916-2.83,0.038-4.586c0.004,0.013,0.002,0.029,0.006,0.041
						c-0.607-1.315,0.95-2.838,0.153-4.608c0.004,0.013,0.001,0.029,0.005,0.042c-0.57-1.317,1.001-2.815,0.255-4.593
						c0.002,0.013,0.004,0.025,0.004,0.038c-0.555-1.369,1.089-2.779,0.368-4.582c0.003,0.012,0,0.027,0.003,0.04
						c-0.499-1.322,1.128-2.731,0.497-4.52c0.003,0.013-0.001,0.027,0.001,0.04c-0.448-1.316,0.867-1.838,0.842-3.437
						c-0.005-0.276-0.047-0.582-0.129-0.851c0.002,0.01-0.003,0.023-0.001,0.033c-0.303-1.042-1.422-2.137-2.391-2.501
						c0.001,0.001,0.086,0.002,0.087,0.003C25.68,11.097,24,19.988,25,21.4c0-0.001,0-0.002,0-0.002c1,1.651-2,2.664-1,4.7
						c0-0.001,0-0.003,0-0.005c1,1.592-1,2.723,0,4.712c0-0.002,0-0.004,0-0.006c0,0.198,0.327,0.468,0.415,0.599
						c0.299,0.019,0.625,0.038,0.924,0.057c-1.707,0.279-2.802,1.661-1.435,4.052c-0.001-0.003,0.087-0.007,0.087-0.01
						C24.796,37.06,23,38.297,24,40.233c0-0.002,0-0.004,0-0.006c1,1.572-1.276,2.821-0.028,4.742
						c-0.001-0.003-0.109-0.008-0.11-0.011C24.76,46.48,23,47.899,24,49.755c0-0.001,0-0.002,0-0.003
						c2,2.293-0.531,7.93,1.937,10.005c-0.003-0.004,0.03-0.009,0.027-0.013c0.186,0.171,0.428,0.37,0.588,0.47
						C27.621,60.625,28,60.381,29,59.571c0,0.001,0,0.001,0,0.001c1-1.292,2.057-3.32,0.747-4.832
						C29.752,54.75,29.826,54.762,29.831,54.772z M28.358,22.424l0.374,0.047l-0.268-0.034L28.358,22.424z"/>
					<g>
						<g>
							<path style="fill:#F7C99A;" d="M29.133,13.454c0,0-0.101-0.138-0.293-0.346c-0.192-0.196-0.47-0.426-0.819-0.713
								c-0.685-0.541-1.703-1.277-3.329-0.371L29.133,13.454z"/>
							<path style="fill:#C99561;" d="M29.133,13.454l-1.377-0.444c0,0-0.083-0.146-0.251-0.38c-0.165-0.22-0.402-0.537-0.697-0.932
								c0.763,0.252,1.301,0.781,1.704,1.111c0.198,0.161,0.355,0.319,0.46,0.448C29.075,13.383,29.133,13.454,29.133,13.454z"/>
							<path style="fill:#8E613F;" d="M27.585,12.081c0.486,0.326,0.866,0.681,1.135,0.909c0.269,0.264,0.413,0.465,0.413,0.465
								l-0.564-0.182c0,0-0.086-0.136-0.258-0.357c-0.171-0.208-0.418-0.476-0.736-0.838L27.585,12.081z"/>
						</g>
						<g>
							<path style="fill:#E0AF79;" d="M27.678,22.138c1.415-1.117,1.667-3.07,0.592-4.496c1.461-1.043,1.803-2.882,0.884-4.181
								l-4.475-1.442c-1.706,1.152-2.098,3.392-1.03,4.879c-1.483,1.11-1.764,3.273-0.627,4.711l-0.006,0.005L27.678,22.138z"/>
							<path style="fill:#AA784F;" d="M27.678,22.138c1.415-1.117,1.667-3.07,0.592-4.496c1.461-1.043,1.803-2.882,0.884-4.181
								l-0.594-0.192c-0.207,0.307-0.355,0.559-0.363,0.576c0.174,1.02-0.023,2.088-0.275,2.923
								c-0.251,0.833-0.555,1.425-0.559,1.463c0.369,1.445-0.017,2.968-0.314,3.836L27.678,22.138z"/>
							<g>
								<path style="fill:#C99561;" d="M27.433,21.051l-1.194,0.925l1.438,0.162c1.178-0.922,1.538-2.432,1.027-3.724
									C28.907,19.227,28.429,20.287,27.433,21.051z"/>
								<path style="fill:#C99561;" d="M23.194,15.951c0.101,0.335,0.252,0.658,0.46,0.954c0,0,1.341-1.01,2.71-1.916
									c0.694-0.451,1.381-0.875,1.91-1.141c0.519-0.291,0.871-0.39,0.871-0.39l-1.379-0.444c0,0-0.302,0.122-0.734,0.373
									c-0.437,0.243-1.02,0.6-1.586,0.979C24.304,15.122,23.194,15.951,23.194,15.951z"/>
								<path style="fill:#C99561;" d="M29.512,14.166c0.133,0.716-0.394,1.701-1.433,2.39c0,0-1.414,0.953-2.802,2.003
									C23.889,19.6,22.521,20.7,22.521,20.7c0.117,0.323,0.284,0.633,0.506,0.915c0,0,1.288-1.045,2.602-2.04
									c1.306-1.001,2.635-1.929,2.635-1.929C29.486,16.791,29.926,15.36,29.512,14.166z"/>
							</g>
							<g>
								<path style="fill:#F7C99A;" d="M28.963,13.534c0,0-0.087,0.034-0.24,0.095c-0.151,0.078-0.366,0.189-0.625,0.322
									c-0.526,0.271-1.204,0.704-1.89,1.153c-1.36,0.906-2.687,1.911-2.687,1.911c-1.073,0.802-1.629,2.587-0.877,3.981
									c-0.239-1.122,1.279-3.169,2.915-4.803c0.818-0.82,1.668-1.527,2.315-1.992c0.328-0.227,0.599-0.398,0.787-0.514
									C28.853,13.576,28.963,13.534,28.963,13.534z"/>
								<path style="fill:#F7C99A;" d="M25.726,12.356l-1.026-0.33l-0.15,0.097c-1.247,0.821-1.924,2.687-1.248,4.135
									C23.167,15.31,24.211,13.75,25.726,12.356z"/>
								<path style="fill:#F7C99A;" d="M24.107,21.736c0.861-1.052,1.855-2.054,2.635-2.78c0.788-0.724,1.35-1.179,1.35-1.179
									s-1.284,0.9-2.54,1.869c-1.267,0.961-2.511,1.97-2.511,1.97L24.107,21.736z"/>
							</g>
							<g>
								<path style="fill:#8E613F;" d="M27.677,22.138c0.128-0.1,0.244-0.209,0.352-0.321l0.07-0.073
									c0.104-0.115,0.198-0.234,0.282-0.359l0.046-0.073c0.083-0.13,0.158-0.264,0.22-0.403l0.004-0.008
									c0.063-0.145,0.116-0.293,0.159-0.444l0.018-0.062c0.04-0.151,0.069-0.303,0.085-0.458l0.003-0.037
									c0.031-0.324,0.009-0.654-0.057-0.974l-0.005-0.026c-0.036-0.162-0.085-0.323-0.148-0.48l-0.001-0.002
									c0.201,0.812-0.277,1.872-1.272,2.635l-0.121,0.093c-0.081,0.353-0.177,0.667-0.265,0.923L27.677,22.138z"/>
								<path style="fill:#8E613F;" d="M28.08,16.556l-0.123,0.084c-0.256,0.899-0.59,1.55-0.594,1.591l0.011,0.05l0.891-0.634
									c0.137-0.094,0.261-0.199,0.377-0.308l0.073-0.068c0.108-0.107,0.208-0.219,0.297-0.337l0.049-0.069
									c0.087-0.124,0.17-0.249,0.241-0.377l0.004-0.007c0.073-0.134,0.132-0.274,0.182-0.416l0.021-0.059
									c0.047-0.141,0.081-0.29,0.108-0.432l0.006-0.034c0.053-0.295,0.053-0.607,0.005-0.908l-0.003-0.024
									c-0.023-0.145-0.06-0.292-0.11-0.439l-0.001-0.002C29.645,14.884,29.117,15.868,28.08,16.556z"/>
								<path style="fill:#8E613F;" d="M28.197,13.845l0.005,0.04c0,0,0.235-0.121,0.469-0.242c0.236-0.093,0.473-0.185,0.473-0.185
									l-0.585-0.189C28.352,13.576,28.204,13.828,28.197,13.845z"/>
							</g>
						</g>
						<g>
							<path style="fill:#E0AF79;" d="M26.922,31.257c1.355-1.196,1.484-3.203,0.313-4.57c1.377-1.16,1.58-3.15,0.443-4.549
								l-4.672-0.525c-1.407,1.158-1.616,3.283-0.435,4.679c-1.398,1.191-1.538,3.325-0.327,4.696l-0.006,0.006L26.922,31.257z"/>
							<path style="fill:#AA784F;" d="M26.922,31.257c1.355-1.196,1.484-3.203,0.313-4.57c1.377-1.16,1.58-3.15,0.443-4.549
								l-0.621-0.07c-0.144,0.417-0.264,0.685-0.267,0.709c0.316,1.064,0.214,2.181,0.028,3.049
								c-0.18,0.868-0.447,1.484-0.451,1.523c0.475,1.433,0.168,2.986-0.078,3.872L26.922,31.257z"/>
							<g>
								<path style="fill:#C99561;" d="M26.617,30.18l-1.14,0.995l1.445,0.081c1.122-0.992,1.403-2.539,0.797-3.819
									C27.984,28.251,27.563,29.355,26.617,30.18z"/>
								<path style="fill:#C99561;" d="M22.039,25.403c0.128,0.318,0.306,0.62,0.537,0.895c0,0,1.266-1.058,2.533-2.117
									c1.273-1.044,2.559-2.045,2.559-2.045l-1.44-0.162c0,0-1.052,0.845-2.104,1.69C23.081,24.534,22.039,25.403,22.039,25.403z"
									/>
								<path style="fill:#C99561;" d="M28.139,22.894c0.233,0.816-0.204,1.906-1.18,2.705c0,0-1.323,1.112-2.646,2.223
									c-1.31,1.146-2.62,2.293-2.62,2.293c0.135,0.314,0.318,0.611,0.557,0.88c0,0,1.239-1.091,2.477-2.182
									c1.245-1.077,2.503-2.12,2.503-2.12C28.383,25.731,28.706,24.189,28.139,22.894z"/>
							</g>
							<g>
								<path style="fill:#F7C99A;" d="M27.501,22.277c0,0-1.277,0.995-2.536,2.033c-1.256,1.052-2.511,2.104-2.511,2.104
									c-1.017,0.864-1.442,2.641-0.621,3.986c-0.297-1.104,1.092-3.199,2.585-4.951C25.913,23.69,27.501,22.277,27.501,22.277z"/>
								<path style="fill:#F7C99A;" d="M24.099,21.736l-1.071-0.12l-0.126,0.101c-1.037,0.837-1.519,2.609-0.729,3.976
									C21.95,24.778,22.896,23.211,24.099,21.736z"/>
								<path style="fill:#F7C99A;" d="M23.334,31.055c1.601-2.196,3.733-4.216,3.733-4.216s-1.207,1.024-2.414,2.049
									c-1.195,1.053-2.39,2.107-2.39,2.107L23.334,31.055z"/>
							</g>
							<g>
								<path style="fill:#8E613F;" d="M26.922,31.257c0.121-0.108,0.231-0.223,0.333-0.343l0.066-0.077
									c0.097-0.121,0.185-0.247,0.262-0.377l0.042-0.076c0.075-0.136,0.143-0.275,0.197-0.418l0.003-0.008
									c0.056-0.15,0.098-0.303,0.13-0.458l0.014-0.064c0.029-0.155,0.051-0.311,0.058-0.468l0.001-0.038
									c0.012-0.329-0.027-0.661-0.119-0.983l-0.007-0.027c-0.047-0.162-0.108-0.322-0.181-0.478l-0.001-0.002
									c0.264,0.814-0.157,1.916-1.102,2.741l-0.115,0.1c-0.061,0.359-0.14,0.679-0.213,0.941L26.922,31.257z"/>
								<path style="fill:#8E613F;" d="M26.959,25.598l-0.116,0.096c-0.179,0.936-0.472,1.614-0.475,1.655l0.014,0.05l0.848-0.706
									c0.129-0.107,0.244-0.224,0.352-0.345l0.067-0.076c0.1-0.118,0.19-0.242,0.27-0.37l0.043-0.075
									c0.077-0.134,0.151-0.27,0.209-0.412l0.004-0.008c0.061-0.148,0.107-0.299,0.145-0.453l0.016-0.064
									c0.034-0.153,0.058-0.309,0.069-0.465l0.002-0.038c0.017-0.329-0.01-0.659-0.091-0.982l-0.007-0.027
									c-0.042-0.163-0.097-0.323-0.166-0.481l-0.001-0.002C28.372,23.712,27.934,24.801,26.959,25.598z"/>
								<path style="fill:#8E613F;" d="M26.79,22.777l0.01,0.042l0.867-0.683l-0.611-0.069
									C26.913,22.485,26.793,22.753,26.79,22.777z"/>
							</g>
						</g>
						<g>
							<path style="fill:#E0AF79;" d="M26.654,40.403c1.283-1.264,1.308-3.265,0.067-4.571c1.317-1.227,1.414-3.235,0.201-4.575
								l-4.694-0.264c-1.34,1.228-1.436,3.352-0.185,4.687c-1.334,1.26-1.364,3.409-0.075,4.716l-0.005,0.006L26.654,40.403z"/>
							<path style="fill:#AA784F;" d="M26.654,40.403c1.283-1.264,1.308-3.265,0.067-4.571c1.317-1.227,1.414-3.235,0.201-4.575
								l-0.624-0.035c-0.119,0.426-0.226,0.7-0.228,0.725c0.372,1.048,0.331,2.171,0.188,3.048
								c-0.134,0.876-0.367,1.505-0.368,1.544c0.546,1.405,0.323,2.968,0.13,3.865L26.654,40.403z"/>
							<g>
								<path style="fill:#C99561;" d="M26.287,39.348l-1.081,1.054l1.447,0c1.063-1.048,1.261-2.6,0.592-3.847
									C27.545,37.354,27.192,38.475,26.287,39.348z"/>
								<path style="fill:#C99561;" d="M21.464,34.82c0.144,0.31,0.338,0.604,0.584,0.866c0,0,1.201-1.141,2.418-2.246
									c1.223-1.092,2.445-2.184,2.445-2.184l-1.447-0.081c0,0-1.005,0.901-2.01,1.802C22.46,33.898,21.464,34.82,21.464,34.82z"/>
								<path style="fill:#C99561;" d="M27.425,31.989c0.277,0.807-0.104,1.921-1.035,2.77c0,0-1.265,1.179-2.53,2.358
									c-1.254,1.195-2.492,2.434-2.492,2.434c0.153,0.307,0.354,0.595,0.606,0.851c0,0,1.161-1.179,2.355-2.317
									c1.181-1.142,2.387-2.247,2.387-2.247C27.816,34.819,28.062,33.258,27.425,31.989z"/>
							</g>
							<g>
								<path style="fill:#F7C99A;" d="M26.755,31.407c0,0-1.212,1.085-2.424,2.17c-1.199,1.116-2.398,2.231-2.398,2.231
									c-0.969,0.915-1.308,2.717-0.409,4.021c-0.365-1.092,0.923-3.261,2.319-5.087C25.244,32.909,26.755,31.407,26.755,31.407z"
									/>
								<path style="fill:#F7C99A;" d="M23.327,31.054l-1.076-0.061l-0.119,0.108c-0.991,0.889-1.375,2.676-0.518,4.001
									C21.346,34.199,22.206,32.591,23.327,31.054z"/>
								<path style="fill:#F7C99A;" d="M23.06,40.401c1.47-2.286,3.502-4.409,3.502-4.409s-1.151,1.086-2.303,2.172
									c-1.151,1.099-2.272,2.237-2.272,2.237L23.06,40.401z"/>
							</g>
							<g>
								<path style="fill:#8E613F;" d="M26.653,40.403c0.116-0.114,0.219-0.235,0.314-0.36l0.061-0.081
									c0.09-0.126,0.17-0.256,0.24-0.39l0.037-0.078c0.067-0.139,0.127-0.281,0.173-0.426l0.003-0.008
									c0.046-0.152,0.083-0.307,0.108-0.463l0.011-0.065c0.022-0.156,0.034-0.312,0.033-0.469l-0.001-0.038
									c-0.006-0.329-0.064-0.657-0.173-0.973l-0.009-0.026c-0.055-0.159-0.122-0.315-0.203-0.467l-0.001-0.002
									c0.299,0.798-0.054,1.918-0.958,2.79l-0.109,0.106c-0.04,0.361-0.1,0.683-0.159,0.948L26.653,40.403z"/>
								<path style="fill:#8E613F;" d="M26.39,34.759l-0.112,0.102c-0.133,0.944-0.385,1.637-0.387,1.677l0.016,0.049l0.809-0.75
									c0.123-0.114,0.231-0.236,0.333-0.362l0.063-0.079c0.093-0.123,0.176-0.251,0.25-0.384l0.04-0.077
									c0.072-0.138,0.137-0.278,0.188-0.423l0.003-0.008c0.053-0.151,0.091-0.305,0.12-0.461l0.012-0.064
									c0.026-0.155,0.041-0.312,0.044-0.469l0-0.038c0-0.329-0.044-0.66-0.143-0.98l-0.008-0.026
									c-0.051-0.161-0.115-0.319-0.192-0.473l-0.001-0.002C27.701,32.798,27.32,33.911,26.39,34.759z"/>
								<path style="fill:#8E613F;" d="M26.071,31.947l0.013,0.041l0.828-0.732l-0.614-0.035
									C26.179,31.648,26.072,31.922,26.071,31.947z"/>
							</g>
						</g>
						<g>
							<path style="fill:#E0AF79;" d="M27.018,49.454c1.159-1.351,1.039-3.289-0.289-4.5c1.234-1.301,1.203-3.283-0.075-4.551
								l-4.702-0.002c-1.278,1.303-1.237,3.457,0.099,4.717c-1.244,1.355-1.111,3.56,0.301,4.767l-0.005,0.006L27.018,49.454z"/>
							<path style="fill:#AA784F;" d="M27.018,49.454c1.159-1.351,1.039-3.289-0.289-4.5c1.234-1.301,1.203-3.283-0.075-4.551
								l-0.625,0c-0.108,0.42-0.184,0.712-0.189,0.734c0.436,1.022,0.455,2.139,0.375,3.017c-0.086,0.878-0.262,1.516-0.264,1.555
								c0.637,1.355,0.55,2.904,0.437,3.804L27.018,49.454z"/>
							<g>
								<path style="fill:#C99561;" d="M26.561,48.453l-0.985,1.136l1.441-0.135c0.966-1.123,1.034-2.638,0.285-3.822
									C27.652,46.399,27.391,47.517,26.561,48.453z"/>
								<path style="fill:#C99561;" d="M21.419,44.291c0.161,0.303,0.372,0.585,0.637,0.833c0,0,1.128-1.229,2.269-2.404
									c1.154-1.181,2.318-2.317,2.318-2.317l-1.449,0c0,0-0.951,0.957-1.902,1.915C22.344,43.286,21.419,44.291,21.419,44.291z"/>
								<path style="fill:#C99561;" d="M27.193,41.102c0.329,0.785,0.005,1.91-0.864,2.81c0,0-1.196,1.228-2.366,2.519
									c-1.161,1.283-2.287,2.65-2.287,2.65c0.18,0.299,0.406,0.573,0.68,0.808c0,0,1.043-1.304,2.149-2.528
									c1.083-1.23,2.217-2.403,2.217-2.403C27.754,43.878,27.905,42.327,27.193,41.102z"/>
							</g>
							<g>
								<path style="fill:#F7C99A;" d="M26.493,40.561c0,0-1.148,1.152-2.296,2.303c-1.132,1.169-2.247,2.391-2.247,2.391
									c-0.902,0.985-1.111,2.846-0.091,4.096c-0.469-1.085,0.649-3.382,1.929-5.292C25.064,42.137,26.493,40.561,26.493,40.561z"
									/>
								<path style="fill:#F7C99A;" d="M23.052,40.401l-1.078,0l-0.114,0.115c-0.942,0.945-1.216,2.771-0.277,4.05
									C21.259,43.673,22.014,41.999,23.052,40.401z"/>
								<path style="fill:#F7C99A;" d="M23.439,49.789c1.248-2.437,3.141-4.666,3.141-4.666s-1.092,1.135-2.138,2.324
									c-1.067,1.183-2.073,2.442-2.073,2.442L23.439,49.789z"/>
							</g>
							<g>
								<path style="fill:#8E613F;" d="M27.017,49.454c0.105-0.122,0.197-0.25,0.281-0.38l0.054-0.084
									c0.079-0.131,0.147-0.265,0.205-0.401l0.031-0.079c0.055-0.141,0.102-0.284,0.135-0.43l0.002-0.008
									c0.035-0.152,0.059-0.307,0.072-0.462l0.006-0.064c0.01-0.154,0.009-0.308-0.004-0.462l-0.004-0.037
									c-0.03-0.322-0.119-0.636-0.244-0.941l-0.01-0.025c-0.066-0.153-0.144-0.302-0.235-0.445l-0.001-0.002
									c0.348,0.768,0.088,1.885-0.742,2.82l-0.1,0.113c-0.009,0.358-0.04,0.68-0.075,0.946L27.017,49.454z"/>
								<path style="fill:#8E613F;" d="M26.33,43.912l-0.105,0.108c-0.081,0.946-0.272,1.648-0.275,1.689l0.02,0.048l0.753-0.797
									c0.115-0.121,0.214-0.249,0.306-0.38l0.059-0.082c0.086-0.128,0.163-0.26,0.228-0.396l0.035-0.079
									c0.063-0.141,0.119-0.284,0.16-0.43l0.003-0.008c0.043-0.152,0.071-0.307,0.09-0.463l0.008-0.064
									c0.016-0.155,0.019-0.31,0.015-0.467l-0.002-0.038c-0.015-0.327-0.081-0.651-0.199-0.963l-0.01-0.026
									c-0.061-0.157-0.134-0.31-0.221-0.458l-0.001-0.002C27.522,41.889,27.198,43.013,26.33,43.912z"/>
								<path style="fill:#8E613F;" d="M25.84,41.137l0.015,0.04l0.788-0.775l-0.615,0C25.92,40.823,25.845,41.115,25.84,41.137z"/>
							</g>
						</g>
						<g>
							<path style="fill:#E0AF79;" d="M28.785,57.517c0.363-0.699,0.444-1.301,0.249-1.968c-0.203-0.636-0.668-1.286-1.421-1.736
								c1.021-1.397,0.798-3.234-0.596-4.359l-4.681,0.438c-1.145,1.434-0.861,3.704,0.684,4.817
								c-0.49,0.805-0.613,1.801-0.312,2.768c0.271,0.948,1.017,1.892,1.985,2.325l-0.001,0.009L28.785,57.517z"/>
							<path style="fill:#AA784F;" d="M28.785,57.517c0.363-0.699,0.444-1.301,0.249-1.968c-0.203-0.636-0.668-1.286-1.421-1.736
								c1.021-1.397,0.798-3.234-0.596-4.359l-0.622,0.058c-0.066,0.422-0.113,0.716-0.116,0.738c1.047,1.903,0.639,4.322,0.688,4.4
								c0.847,1.165,1.087,2.505,1.265,3.177L28.785,57.517z"/>
							<g>
								<path style="fill:#C99561;" d="M28.113,56.951c0,0-0.175,0.313-0.314,0.616c-0.146,0.311-0.277,0.658-0.277,0.658
									l1.262-0.707c0.595-1.068,0.427-2.218-0.5-3.181C28.75,54.982,28.673,55.942,28.113,56.951z"/>
								<path style="fill:#C99561;" d="M22.267,53.942c0.21,0.294,0.463,0.557,0.759,0.772c0,0,0.904-1.446,1.918-2.739
									c1.003-1.309,2.062-2.52,2.062-2.52l-1.443,0.135c0,0-0.859,1.016-1.7,2.101c-0.404,0.555-0.809,1.11-1.112,1.526
									C22.449,53.643,22.267,53.942,22.267,53.942z"/>
								<path style="fill:#C99561;" d="M27.623,50.081c0.396,0.731,0.203,1.824-0.548,2.806c0,0-1.038,1.32-1.931,2.831
									c-0.426,0.755-0.861,1.559-1.092,2.223c-0.244,0.662-0.385,1.144-0.385,1.144c0.317,0.307,0.667,0.555,1.034,0.719
									c0,0,0.08-0.485,0.252-1.133c0.204-0.647,0.516-1.427,0.921-2.151c0.385-0.724,0.821-1.396,1.164-1.894
									c0.332-0.49,0.571-0.807,0.571-0.807C28.475,52.645,28.441,51.205,27.623,50.081z"/>
							</g>
							<g>
								<path style="fill:#F7C99A;" d="M26.872,49.625c0,0-1.05,1.206-2.036,2.509c-0.496,0.65-0.981,1.324-1.32,1.847
									c-0.345,0.531-0.575,0.885-0.575,0.885c-0.341,0.594-0.516,1.383-0.344,2.224c0.144,0.823,0.604,1.689,1.375,2.263
									c-0.478-0.569-0.612-1.59-0.461-2.674c0.143-1.091,0.57-2.254,1.067-3.301C25.588,51.282,26.872,49.625,26.872,49.625z"/>
								<path style="fill:#F7C99A;" d="M23.432,49.789l-1.073,0.1l-0.103,0.127c-0.844,1.042-0.928,2.978,0.219,4.188
									C21.994,53.311,22.557,51.49,23.432,49.789z"/>
								<path style="fill:#F7C99A;" d="M25.65,59.274c-0.001-1.519,0.582-2.811,0.998-3.747c0.47-0.948,0.842-1.53,0.842-1.53
									s-0.218,0.313-0.544,0.782c-0.334,0.485-0.74,1.134-1.115,1.839c-0.378,0.702-0.689,1.46-0.876,2.086
									c-0.165,0.627-0.242,1.094-0.242,1.094L25.65,59.274z"/>
							</g>
							<g>
								<path style="fill:#8E613F;" d="M28.784,57.518c0.066-0.131,0.119-0.256,0.166-0.375l0.03-0.076
									c0.042-0.116,0.076-0.226,0.098-0.33l0.013-0.07c0.025-0.128,0.043-0.252,0.046-0.372l0.001-0.007
									c0.003-0.125-0.008-0.245-0.029-0.362l-0.009-0.048c-0.019-0.127-0.045-0.259-0.085-0.382l-0.011-0.03
									c-0.085-0.264-0.234-0.493-0.401-0.75l-0.014-0.02c-0.089-0.124-0.189-0.242-0.303-0.355l-0.002-0.002
									c0.464,0.645,0.387,1.604-0.173,2.612l-0.069,0.127c0.081,0.288,0.15,0.525,0.188,0.749L28.784,57.518z"/>
								<path style="fill:#8E613F;" d="M27.075,52.887l-0.088,0.117c0.051,0.914-0.035,1.611-0.02,1.646l0.028,0.041
									c0,0,0.151-0.219,0.303-0.439c0.156-0.216,0.312-0.433,0.312-0.433c0.098-0.132,0.18-0.269,0.254-0.406l0.046-0.086
									c0.067-0.133,0.124-0.266,0.169-0.401l0.024-0.078c0.043-0.14,0.075-0.277,0.102-0.423l0.002-0.008
									c0.026-0.15,0.037-0.301,0.039-0.451l0.001-0.062c-0.001-0.149-0.014-0.297-0.038-0.443l-0.007-0.035
									c-0.06-0.303-0.151-0.612-0.3-0.899l-0.012-0.024c-0.076-0.144-0.163-0.285-0.264-0.419l-0.002-0.002
									C28.019,50.814,27.826,51.906,27.075,52.887z"/>
								<path style="fill:#8E613F;" d="M26.279,50.25l0.019,0.038l0.708-0.833l-0.612,0.057
									C26.329,49.935,26.283,50.228,26.279,50.25z"/>
							</g>
						</g>
						<g>
							<path style="fill:#F7C99A;" d="M28.766,57.528c-0.005,0.031-0.318,0.505-0.876,1.232c-0.575,0.661-1.341,1.662-3.195,1.049
								L28.766,57.528z"/>
							<path style="fill:#C99561;" d="M28.766,57.528l-1.262,0.707c0,0-0.059,0.144-0.165,0.404
								c-0.107,0.251-0.267,0.62-0.482,1.066c0.688-0.41,1.103-1.045,1.423-1.466C28.59,57.809,28.764,57.548,28.766,57.528z"/>
							<path style="fill:#8E613F;" d="M27.532,59.163c0.405-0.425,0.698-0.861,0.91-1.152c0.208-0.286,0.323-0.471,0.324-0.483
								l-0.517,0.29c0,0-0.068,0.147-0.187,0.366c-0.127,0.233-0.31,0.568-0.539,0.986L27.532,59.163z"/>
						</g>
					</g>
				</g>
			</g>
		</g>
	</g>
</g>
<g id="nyt_x5F_exporter_x5F_info" style="display:none;">
</g>
</svg>
