<?xml version="1.0" encoding="UTF-8" standalone="no"?>
<!-- Generator: Adobe Illustrator 18.0.0, SVG Export Plug-In . SVG Version: 6.00 Build 0)  -->

<svg
   xmlns:dc="http://purl.org/dc/elements/1.1/"
   xmlns:cc="http://creativecommons.org/ns#"
   xmlns:rdf="http://www.w3.org/1999/02/22-rdf-syntax-ns#"
   xmlns:svg="http://www.w3.org/2000/svg"
   xmlns="http://www.w3.org/2000/svg"
   xmlns:sodipodi="http://sodipodi.sourceforge.net/DTD/sodipodi-0.dtd"
   xmlns:inkscape="http://www.inkscape.org/namespaces/inkscape"
   version="1.1"
   x="0px"
   y="0px"
   viewBox="0 0 276.47098 100.97624"
   xml:space="preserve"
   id="svg2"
   inkscape:version="0.91 r13725"
   sodipodi:docname="title-tall.svg"
   width="276.47098"
   height="100.97624"><metadata
     id="metadata794"><rdf:RDF><cc:Work
         rdf:about=""><dc:format>image/svg+xml</dc:format><dc:type
           rdf:resource="http://purl.org/dc/dcmitype/StillImage" /><dc:title></dc:title></cc:Work></rdf:RDF></metadata><defs
     id="defs792" /><sodipodi:namedview
     pagecolor="#ffffff"
     bordercolor="#666666"
     borderopacity="1"
     objecttolerance="10"
     gridtolerance="10"
     guidetolerance="10"
     inkscape:pageopacity="0"
     inkscape:pageshadow="2"
     inkscape:window-width="1369"
     inkscape:window-height="929"
     id="namedview790"
     showgrid="false"
     fit-margin-top="0"
     fit-margin-left="0"
     fit-margin-right="0"
     fit-margin-bottom="0"
     inkscape:zoom="0.75066046"
     inkscape:cx="448.63815"
     inkscape:cy="-72.677062"
     inkscape:window-x="151"
     inkscape:window-y="35"
     inkscape:window-maximized="0"
     inkscape:current-layer="XMLID_1_" /><symbol
     id="Shape_Icon_Coin"
     viewBox="-40 -42 80 82"
     transform="translate(0.47098976,26.976244)"><g
       id="g5"><g
         id="g7"><g
           id="g9"><g
             id="g11"><g
               id="g13"><g
                 style="opacity:0.2"
                 id="g15"><path
                   d="m 40,-2 c 0,-22.091 -17.909,-40 -40,-40 -22.091,0 -40,17.909 -40,40 0,22.091 17.909,40 40,40 22.091,0 40,-17.908 40,-40 z"
                   id="path17"
                   inkscape:connector-curvature="0" /></g><g
                 id="g19"><linearGradient
                   id="SVGID_1_"
                   gradientUnits="userSpaceOnUse"
                   x1="-1.4752e-09"
                   y1="32.776901"
                   x2="1.556565e-09"
                   y2="-34.5966"><stop
                     offset="0"
                     style="stop-color:#E3B137"
                     id="stop22" /><stop
                     offset="0.3252"
                     style="stop-color:#BA8C1E"
                     id="stop24" /><stop
                     offset="0.6798"
                     style="stop-color:#FFD859"
                     id="stop26" /><stop
                     offset="0.6854"
                     style="stop-color:#F6BF20"
                     id="stop28" /><stop
                     offset="1"
                     style="stop-color:#946622"
                     id="stop30" /></linearGradient><path
                   style="fill:url(#SVGID_1_)"
                   d="M 40,0 C 40,-22.091 22.091,-40 0,-40 -22.091,-40 -40,-22.091 -40,0 -40,22.091 -22.091,40 0,40 22.091,40 40,22.092 40,0 Z"
                   id="path32"
                   inkscape:connector-curvature="0" /></g></g><path
               style="fill:#af7b00"
               d="m 0,-7.664 c -13.161,0 -24.835,-6.358 -32.125,-16.168 C -24.835,-33.642 -13.161,-40 0,-40 c 13.161,0 24.835,6.358 32.125,16.168 C 24.835,-14.022 13.161,-7.664 0,-7.664 Z"
               id="path34"
               inkscape:connector-curvature="0" /><path
               style="fill:#ffcd4e"
               d="M 0,40 C -15.404,40 -28.766,31.287 -35.449,18.526 -28.766,5.765 -15.404,-2.948 0,-2.948 c 15.404,0 28.766,8.713 35.449,21.474 C 28.766,31.288 15.404,40 0,40 Z"
               id="path36"
               inkscape:connector-curvature="0" /><path
               style="fill:#ffcd4e"
               d="m 35.449,1.436 c 0,-19.578 -15.871,-35.449 -35.449,-35.449 -19.578,0 -35.449,15.871 -35.449,35.449 0,19.578 15.871,35.449 35.449,35.449 19.578,0 35.449,-15.871 35.449,-35.449 z"
               id="path38"
               inkscape:connector-curvature="0" /><radialGradient
               id="SVGID_2_"
               cx="0"
               cy="2.8053999"
               r="34.079601"
               gradientUnits="userSpaceOnUse"><stop
                 offset="0"
                 style="stop-color:#FDF9CD"
                 id="stop41" /><stop
                 offset="0.1333"
                 style="stop-color:#FDF4BC"
                 id="stop43" /><stop
                 offset="0.3982"
                 style="stop-color:#FEE78F"
                 id="stop45" /><stop
                 offset="0.6798"
                 style="stop-color:#FFD859"
                 id="stop47" /><stop
                 offset="0.6854"
                 style="stop-color:#F6BF20"
                 id="stop49" /><stop
                 offset="1"
                 style="stop-color:#B97F2B"
                 id="stop51" /></radialGradient><path
               style="fill:url(#SVGID_2_)"
               d="m 34.08,2.805 c 0,-18.822 -15.258,-34.08 -34.08,-34.08 -16.989,0 -31.075,12.432 -33.657,28.695 l 6.838,2.37 -7.102,-0.29 c 0,0 -0.158,2.191 -0.158,3.306 0,18.822 15.258,34.08 34.08,34.08 17.563,0 32.023,-13.285 33.878,-30.355 L 26.715,6.778 34.069,3.707 C 34.076,3.406 34.08,3.106 34.08,2.805 Z"
               id="path53"
               inkscape:connector-curvature="0" /><g
               id="g55"><path
                 style="fill:#fdf0b4"
                 d="m 0,34.817 c 14.206,0 26.413,-8.118 31.794,-19.741 C 26.867,27.833 14.494,36.885 0,36.885 c -14.491,0 -26.86,-9.048 -31.79,-21.799 5.384,11.618 17.588,19.731 31.79,19.731 z"
                 id="path57"
                 inkscape:connector-curvature="0" /></g><g
               id="g59"><path
                 style="fill:#875c06"
                 d="M 25.336,2.805 C 25.336,-11.187 13.993,-22.53 0,-22.53 c -13.993,0 -25.336,11.343 -25.336,25.335 0,13.992 11.343,25.336 25.336,25.336 13.993,0 25.336,-11.343 25.336,-25.336 z"
                 id="path61"
                 inkscape:connector-curvature="0" /><path
                 style="fill:#885d06"
                 d="m 25.052,2.805 c 0,-13.836 -11.216,-25.052 -25.052,-25.052 -13.836,0 -25.052,11.216 -25.052,25.052 0,13.836 11.216,25.053 25.052,25.053 13.836,0 25.052,-11.217 25.052,-25.053 z"
                 id="path63"
                 inkscape:connector-curvature="0" /><path
                 style="fill:#895e06"
                 d="M 24.769,2.805 C 24.769,-10.874 13.68,-21.964 0,-21.964 c -13.68,0 -24.769,11.09 -24.769,24.769 0,13.679 11.09,24.769 24.769,24.769 13.679,0 24.769,-11.089 24.769,-24.769 z"
                 id="path65"
                 inkscape:connector-curvature="0" /><path
                 style="fill:#8b5f05"
                 d="M 24.485,2.805 C 24.485,-10.717 13.523,-21.68 0,-21.68 c -13.523,0 -24.485,10.963 -24.485,24.485 0,13.522 10.962,24.485 24.485,24.485 13.523,0 24.485,-10.962 24.485,-24.485 z"
                 id="path67"
                 inkscape:connector-curvature="0" /><path
                 style="fill:#8c6005"
                 d="m 24.201,2.805 c 0,-13.366 -10.835,-24.201 -24.201,-24.201 -13.366,0 -24.201,10.835 -24.201,24.201 0,13.366 10.835,24.202 24.201,24.202 13.366,0 24.201,-10.836 24.201,-24.202 z"
                 id="path69"
                 inkscape:connector-curvature="0" /><path
                 style="fill:#8d6105"
                 d="M 23.918,2.805 C 23.918,-10.404 13.21,-21.113 0,-21.113 c -13.21,0 -23.918,10.709 -23.918,23.918 0,13.209 10.709,23.918 23.918,23.918 13.209,0 23.918,-10.708 23.918,-23.918 z"
                 id="path71"
                 inkscape:connector-curvature="0" /><path
                 style="fill:#8e6105"
                 d="m 23.634,2.805 c 0,-13.053 -10.581,-23.634 -23.634,-23.634 -13.053,0 -23.634,10.582 -23.634,23.634 0,13.052 10.581,23.635 23.634,23.635 13.053,0 23.634,-10.582 23.634,-23.635 z"
                 id="path73"
                 inkscape:connector-curvature="0" /><path
                 style="fill:#8f6205"
                 d="m 23.351,2.805 c 0,-12.896 -10.454,-23.351 -23.351,-23.351 -12.897,0 -23.351,10.455 -23.351,23.351 0,12.896 10.455,23.351 23.351,23.351 12.896,0 23.351,-10.454 23.351,-23.351 z"
                 id="path75"
                 inkscape:connector-curvature="0" /><path
                 style="fill:#906305"
                 d="M 23.067,2.805 C 23.067,-9.934 12.74,-20.262 0,-20.262 c -12.74,0 -23.067,10.328 -23.067,23.067 0,12.739 10.327,23.067 23.067,23.067 12.74,0 23.067,-10.327 23.067,-23.067 z"
                 id="path77"
                 inkscape:connector-curvature="0" /><path
                 style="fill:#926404"
                 d="m 22.783,2.805 c 0,-12.583 -10.2,-22.783 -22.783,-22.783 -12.583,0 -22.783,10.2 -22.783,22.783 0,12.583 10.2,22.784 22.783,22.784 12.583,0 22.783,-10.201 22.783,-22.784 z"
                 id="path79"
                 inkscape:connector-curvature="0" /><path
                 style="fill:#936504"
                 d="m 22.5,2.805 c 0,-12.426 -10.073,-22.5 -22.5,-22.5 -12.427,0 -22.5,10.073 -22.5,22.5 0,12.427 10.073,22.5 22.5,22.5 12.427,0 22.5,-10.073 22.5,-22.5 z"
                 id="path81"
                 inkscape:connector-curvature="0" /><path
                 style="fill:#946604"
                 d="m 22.216,2.805 c 0,-12.27 -9.946,-22.216 -22.216,-22.216 -12.27,0 -22.216,9.947 -22.216,22.216 0,12.269 9.946,22.217 22.216,22.217 12.27,0 22.216,-9.947 22.216,-22.217 z"
                 id="path83"
                 inkscape:connector-curvature="0" /><path
                 style="fill:#956704"
                 d="m 21.932,2.805 c 0,-12.113 -9.82,-21.933 -21.933,-21.933 -12.113,0 -21.933,9.82 -21.933,21.933 0,12.113 9.821,21.933 21.934,21.933 12.113,0 21.932,-9.82 21.932,-21.933 z"
                 id="path85"
                 inkscape:connector-curvature="0" /><path
                 style="fill:#966804"
                 d="m 21.649,2.805 c 0,-11.956 -9.693,-21.649 -21.649,-21.649 -11.956,0 -21.649,9.693 -21.649,21.649 0,11.956 9.693,21.649 21.649,21.649 11.956,0 21.649,-9.692 21.649,-21.649 z"
                 id="path87"
                 inkscape:connector-curvature="0" /><path
                 style="fill:#976904"
                 d="M 21.365,2.805 C 21.365,-8.994 11.8,-18.56 0,-18.56 c -11.8,0 -21.365,9.566 -21.365,21.365 0,11.799 9.565,21.366 21.365,21.366 11.8,0 21.365,-9.566 21.365,-21.366 z"
                 id="path89"
                 inkscape:connector-curvature="0" /><path
                 style="fill:#996a03"
                 d="m 21.082,2.805 c 0,-11.643 -9.439,-21.082 -21.082,-21.082 -11.643,0 -21.082,9.439 -21.082,21.082 0,11.643 9.439,21.082 21.082,21.082 11.643,0 21.082,-9.439 21.082,-21.082 z"
                 id="path91"
                 inkscape:connector-curvature="0" /><path
                 style="fill:#9a6b03"
                 d="m 20.798,2.805 c 0,-11.486 -9.312,-20.798 -20.798,-20.798 -11.486,0 -20.798,9.312 -20.798,20.798 0,11.486 9.312,20.798 20.798,20.798 11.486,0 20.798,-9.311 20.798,-20.798 z"
                 id="path93"
                 inkscape:connector-curvature="0" /><path
                 style="fill:#9b6c03"
                 d="m 20.514,2.805 c 0,-11.33 -9.185,-20.514 -20.514,-20.514 -11.329,0 -20.514,9.185 -20.514,20.514 0,11.329 9.184,20.515 20.514,20.515 11.33,0 20.514,-9.185 20.514,-20.515 z"
                 id="path95"
                 inkscape:connector-curvature="0" /><path
                 style="fill:#9c6c03"
                 d="m 20.231,2.805 c 0,-11.173 -9.058,-20.231 -20.231,-20.231 -11.173,0 -20.231,9.058 -20.231,20.231 0,11.173 9.058,20.231 20.231,20.231 11.173,0 20.231,-9.057 20.231,-20.231 z"
                 id="path97"
                 inkscape:connector-curvature="0" /><path
                 style="fill:#9d6d03"
                 d="m 19.947,2.805 c 0,-11.017 -8.931,-19.947 -19.947,-19.947 -11.016,0 -19.947,8.931 -19.947,19.947 0,11.016 8.93,19.948 19.947,19.948 11.017,0 19.947,-8.931 19.947,-19.948 z"
                 id="path99"
                 inkscape:connector-curvature="0" /><path
                 style="fill:#9f6e02"
                 d="m 19.664,2.805 c 0,-10.86 -8.804,-19.664 -19.664,-19.664 -10.86,0 -19.664,8.804 -19.664,19.664 0,10.86 8.804,19.664 19.664,19.664 10.86,0 19.664,-8.804 19.664,-19.664 z"
                 id="path101"
                 inkscape:connector-curvature="0" /><path
                 style="fill:#a06f02"
                 d="m 19.38,2.805 c 0,-10.703 -8.677,-19.38 -19.38,-19.38 -10.703,0 -19.38,8.677 -19.38,19.38 0,10.703 8.677,19.38 19.38,19.38 10.703,0 19.38,-8.676 19.38,-19.38 z"
                 id="path103"
                 inkscape:connector-curvature="0" /><path
                 style="fill:#a17002"
                 d="m 19.096,2.805 c 0,-10.547 -8.55,-19.096 -19.096,-19.096 -10.546,0 -19.096,8.55 -19.096,19.096 0,10.546 8.549,19.097 19.096,19.097 10.547,0 19.096,-8.55 19.096,-19.097 z"
                 id="path105"
                 inkscape:connector-curvature="0" /><path
                 style="fill:#a27102"
                 d="m 18.813,2.805 c 0,-10.39 -8.423,-18.813 -18.813,-18.813 -10.39,0 -18.813,8.423 -18.813,18.813 0,10.39 8.423,18.813 18.813,18.813 10.39,0 18.813,-8.423 18.813,-18.813 z"
                 id="path107"
                 inkscape:connector-curvature="0" /><path
                 style="fill:#a37202"
                 d="m 18.529,2.805 c 0,-10.233 -8.296,-18.529 -18.529,-18.529 -10.233,0 -18.529,8.296 -18.529,18.529 0,10.233 8.296,18.53 18.529,18.53 10.233,0 18.529,-8.296 18.529,-18.53 z"
                 id="path109"
                 inkscape:connector-curvature="0" /><path
                 style="fill:#a47302"
                 d="M 18.246,2.805 C 18.246,-7.271 10.077,-15.44 0,-15.44 c -10.077,0 -18.246,8.169 -18.246,18.245 0,10.076 8.169,18.246 18.246,18.246 10.077,0 18.246,-8.169 18.246,-18.246 z"
                 id="path111"
                 inkscape:connector-curvature="0" /><path
                 style="fill:#a67401"
                 d="m 17.962,2.805 c 0,-9.92 -8.042,-17.962 -17.962,-17.962 -9.92,0 -17.962,8.042 -17.962,17.962 0,9.92 8.042,17.962 17.962,17.962 9.92,0 17.962,-8.041 17.962,-17.962 z"
                 id="path113"
                 inkscape:connector-curvature="0" /><path
                 style="fill:#a77501"
                 d="m 17.678,2.805 c 0,-9.763 -7.915,-17.678 -17.678,-17.678 -9.763,0 -17.678,7.915 -17.678,17.678 0,9.763 7.915,17.679 17.678,17.679 9.763,0 17.678,-7.915 17.678,-17.679 z"
                 id="path115"
                 inkscape:connector-curvature="0" /><path
                 style="fill:#a87601"
                 d="M 17.395,2.805 C 17.395,-6.802 9.607,-14.59 0,-14.59 c -9.607,0 -17.395,7.789 -17.395,17.395 0,9.606 7.788,17.395 17.395,17.395 9.607,0 17.395,-7.788 17.395,-17.395 z"
                 id="path117"
                 inkscape:connector-curvature="0" /><path
                 style="fill:#a97601"
                 d="m 17.111,2.805 c 0,-9.45 -7.661,-17.111 -17.111,-17.111 -9.45,0 -17.111,7.661 -17.111,17.111 0,9.45 7.661,17.112 17.111,17.112 9.45,0 17.111,-7.661 17.111,-17.112 z"
                 id="path119"
                 inkscape:connector-curvature="0" /><path
                 style="fill:#aa7701"
                 d="m 16.827,2.805 c 0,-9.294 -7.534,-16.828 -16.828,-16.828 -9.294,0 -16.827,7.535 -16.827,16.828 0,9.293 7.534,16.828 16.828,16.828 9.294,0 16.827,-7.534 16.827,-16.828 z"
                 id="path121"
                 inkscape:connector-curvature="0" /><path
                 style="fill:#ab7801"
                 d="m 16.544,2.805 c 0,-9.137 -7.407,-16.544 -16.544,-16.544 -9.137,0 -16.544,7.407 -16.544,16.544 0,9.137 7.407,16.544 16.544,16.544 9.137,0 16.544,-7.407 16.544,-16.544 z"
                 id="path123"
                 inkscape:connector-curvature="0" /><path
                 style="fill:#ad7900"
                 d="m 16.26,2.805 c 0,-8.98 -7.28,-16.26 -16.26,-16.26 -8.98,0 -16.26,7.28 -16.26,16.26 0,8.98 7.28,16.261 16.26,16.261 8.98,0 16.26,-7.28 16.26,-16.261 z"
                 id="path125"
                 inkscape:connector-curvature="0" /><path
                 style="fill:#ae7a00"
                 d="m 15.977,2.805 c 0,-8.824 -7.153,-15.977 -15.977,-15.977 -8.824,0 -15.977,7.154 -15.977,15.977 0,8.823 7.153,15.977 15.977,15.977 8.824,0 15.977,-7.153 15.977,-15.977 z"
                 id="path127"
                 inkscape:connector-curvature="0" /><path
                 style="fill:#af7b00"
                 d="m 15.693,2.805 c 0,-8.667 -7.026,-15.693 -15.693,-15.693 -8.667,0 -15.693,7.026 -15.693,15.693 0,8.667 7.026,15.693 15.693,15.693 8.667,0 15.693,-7.026 15.693,-15.693 z"
                 id="path129"
                 inkscape:connector-curvature="0" /></g><path
               style="opacity:0.2"
               d="m 0,24.038 c 13.301,0 24.201,-10.252 25.246,-23.284 0.054,0.677 0.09,1.36 0.09,2.052 0,13.992 -11.343,25.336 -25.336,25.336 -13.993,0 -25.336,-11.344 -25.336,-25.337 0,-0.691 0.035,-1.374 0.09,-2.052 1.045,13.033 11.945,23.285 25.246,23.285 z"
               id="path131"
               inkscape:connector-curvature="0" /><polygon
               style="fill:#af7b00"
               points="-34.08,-0.74 -40,-1.297 -35.449,1.436 -26.818,-0.209 "
               id="polygon133" /><polygon
               style="fill:#af7b00"
               points="33.976,6.245 39.896,5.688 35.345,8.422 26.714,6.777 "
               id="polygon135" /></g></g><g
           id="g137"><radialGradient
             id="SVGID_3_"
             cx="-26.6598"
             cy="-0.44490001"
             r="8.6343002"
             gradientUnits="userSpaceOnUse"><stop
               offset="0"
               style="stop-color:#FDF0B4"
               id="stop140" /><stop
               offset="0.135"
               style="stop-color:#FAE8A3;stop-opacity:0.865"
               id="stop142" /><stop
               offset="0.4034"
               style="stop-color:#F3D376;stop-opacity:0.5966"
               id="stop144" /><stop
               offset="0.7761"
               style="stop-color:#E7B22E;stop-opacity:0.2239"
               id="stop146" /><stop
               offset="1"
               style="stop-color:#DF9C00;stop-opacity:0"
               id="stop148" /><stop
               offset="1"
               style="stop-color:#FDF0B4"
               id="stop150" /></radialGradient><polygon
             style="fill:url(#SVGID_3_)"
             points="-27.344,-1.529 -35.139,-6.766 -27.826,-0.874 -36.782,1.956 -27.615,-0.088 -30.987,8.676 -26.87,0.237 -22.119,8.338 -26.151,-0.144 -16.855,1.192 -26,-0.944 -19.159,-7.378 -26.532,-1.56 -27.297,-10.92 "
             id="polygon152" /><g
             id="g154"><radialGradient
               id="SVGID_4_"
               cx="-26.6598"
               cy="-0.4452"
               r="8.6345997"
               gradientUnits="userSpaceOnUse"><stop
                 offset="0"
                 style="stop-color:#FDF0B4"
                 id="stop157" /><stop
                 offset="0.135"
                 style="stop-color:#FAE8A3;stop-opacity:0.865"
                 id="stop159" /><stop
                 offset="0.4034"
                 style="stop-color:#F3D376;stop-opacity:0.5966"
                 id="stop161" /><stop
                 offset="0.7761"
                 style="stop-color:#E7B22E;stop-opacity:0.2239"
                 id="stop163" /><stop
                 offset="1"
                 style="stop-color:#DF9C00;stop-opacity:0"
                 id="stop165" /><stop
                 offset="1"
                 style="stop-color:#FDF0B4"
                 id="stop167" /></radialGradient><polygon
               style="fill:url(#SVGID_4_)"
               points="-26.898,-1.263 -30.253,-5.856 -27.307,-0.99 -32.991,-1.23 -27.349,-0.499 -31.08,3.796 -26.991,-0.159 -25.961,5.435 -26.504,-0.228 -21.487,2.454 -26.253,-0.652 -21.028,-2.902 -26.428,-1.113 -24.929,-6.601 "
               id="polygon169" /></g></g></g><g
         id="g171"><g
           style="opacity:0.2"
           id="g173"><path
             d="m -9.298,-4.754 c 2.475,0.546 4.986,0.655 5.713,0.546 0.655,-2.474 2.148,-3.785 3.312,-3.785 1.055,0 2.001,0.582 2.001,1.675 0,2.074 -2.329,2.729 -4.512,3.93 -3.239,1.71 -6.368,3.567 -6.368,8.77 0,3.457 2.729,6.295 7.242,6.514 -0.037,0.982 -0.11,3.093 -0.073,3.239 0.037,0.181 3.239,0.546 3.276,0.363 0.037,-0.181 0.072,-3.02 0.108,-3.966 0.946,-0.291 1.71,-0.692 2.074,-1.055 l 0.255,1.747 c 0,0 3.057,0.145 4.841,-0.619 C 8.752,12.532 8.134,5.508 8.134,4.344 8.134,3.798 2.458,3.835 2.458,3.98 2.274,6.091 1.038,6.891 -0.091,6.891 c -0.654,0 -2.001,-0.328 -2.001,-1.783 0,-1.309 2.73,-2.11 5.423,-3.712 3.238,-1.891 5.967,-3.821 5.967,-8.296 0,-3.967 -3.311,-6.952 -6.804,-7.17 0.072,-1.529 0,-3.457 0,-3.565 0,-0.11 -3.458,0.035 -3.53,0.035 -0.073,0 -0.255,2.366 -0.328,3.931 -1.602,0.473 -2.584,1.201 -2.911,1.601 -0.073,-0.8 -0.146,-2.256 -0.183,-2.256 -0.181,0.073 -4.766,0.328 -4.766,0.328 -0.074,0.799 -0.074,7.35 -0.074,9.242 z"
             id="path175"
             inkscape:connector-curvature="0" /><path
             d="m -9.298,-4.754 c 2.475,0.546 4.986,0.655 5.713,0.546 0.655,-2.474 2.148,-3.785 3.312,-3.785 1.055,0 2.001,0.582 2.001,1.675 0,2.074 -2.329,2.729 -4.512,3.93 -3.239,1.71 -6.368,3.567 -6.368,8.77 0,3.457 2.729,6.295 7.242,6.514 -0.037,0.982 -0.11,3.093 -0.073,3.239 0.037,0.181 3.239,0.546 3.276,0.363 0.037,-0.181 0.072,-3.02 0.108,-3.966 0.946,-0.291 1.71,-0.692 2.074,-1.055 l 0.255,1.747 c 0,0 3.057,0.145 4.841,-0.619 C 8.752,12.532 8.134,5.508 8.134,4.344 8.134,3.798 2.458,3.835 2.458,3.98 2.274,6.091 1.038,6.891 -0.091,6.891 c -0.654,0 -2.001,-0.328 -2.001,-1.783 0,-1.309 2.73,-2.11 5.423,-3.712 3.238,-1.891 5.967,-3.821 5.967,-8.296 0,-3.967 -3.311,-6.952 -6.804,-7.17 0.072,-1.529 0,-3.457 0,-3.565 0,-0.11 -3.458,0.035 -3.53,0.035 -0.073,0 -0.255,2.366 -0.328,3.931 -1.602,0.473 -2.584,1.201 -2.911,1.601 -0.073,-0.8 -0.146,-2.256 -0.183,-2.256 -0.181,0.073 -4.766,0.328 -4.766,0.328 -0.074,0.799 -0.074,7.35 -0.074,9.242 z"
             id="path177"
             inkscape:connector-curvature="0" /></g><g
           id="g179"><g
             id="g181"><g
               id="g183"><path
                 style="fill:#ffffff"
                 d="m -9.298,-2.754 c 2.475,0.546 4.986,0.655 5.713,0.546 0.655,-2.474 2.148,-3.785 3.312,-3.785 1.055,0 2.001,0.582 2.001,1.675 0,2.074 -2.329,2.729 -4.512,3.93 -3.239,1.71 -6.368,3.567 -6.368,8.77 0,3.457 2.729,6.295 7.242,6.514 -0.037,0.982 -0.11,3.093 -0.073,3.239 0.037,0.181 3.239,0.546 3.276,0.363 0.037,-0.181 0.072,-3.02 0.108,-3.966 0.946,-0.291 1.71,-0.692 2.074,-1.055 l 0.255,1.747 c 0,0 3.057,0.145 4.841,-0.619 C 8.752,14.532 8.134,7.508 8.134,6.344 8.134,5.798 2.458,5.835 2.458,5.98 2.274,8.091 1.038,8.891 -0.091,8.891 c -0.654,0 -2.001,-0.328 -2.001,-1.783 0,-1.309 2.73,-2.11 5.423,-3.712 3.238,-1.891 5.967,-3.821 5.967,-8.296 0,-3.967 -3.311,-6.952 -6.804,-7.17 0.072,-1.529 0,-3.457 0,-3.565 0,-0.11 -3.458,0.035 -3.53,0.035 -0.073,0 -0.255,2.366 -0.328,3.931 -1.602,0.473 -2.584,1.201 -2.911,1.601 -0.073,-0.8 -0.146,-2.256 -0.183,-2.256 -0.181,0.073 -4.766,0.328 -4.766,0.328 -0.074,0.799 -0.074,7.35 -0.074,9.242 z"
                 id="path185"
                 inkscape:connector-curvature="0" /></g></g><g
             id="g187"><g
               id="g189"><path
                 style="fill:#ffffff"
                 d="m -9.298,-2.754 c 2.475,0.546 4.986,0.655 5.713,0.546 0.655,-2.474 2.148,-3.785 3.312,-3.785 1.055,0 2.001,0.582 2.001,1.675 0,2.074 -2.329,2.729 -4.512,3.93 -3.239,1.71 -6.368,3.567 -6.368,8.77 0,3.457 2.729,6.295 7.242,6.514 -0.037,0.982 -0.11,3.093 -0.073,3.239 0.037,0.181 3.239,0.546 3.276,0.363 0.037,-0.181 0.072,-3.02 0.108,-3.966 0.946,-0.291 1.71,-0.692 2.074,-1.055 l 0.255,1.747 c 0,0 3.057,0.145 4.841,-0.619 C 8.752,14.532 8.134,7.508 8.134,6.344 8.134,5.798 2.458,5.835 2.458,5.98 2.274,8.091 1.038,8.891 -0.091,8.891 c -0.654,0 -2.001,-0.328 -2.001,-1.783 0,-1.309 2.73,-2.11 5.423,-3.712 3.238,-1.891 5.967,-3.821 5.967,-8.296 0,-3.967 -3.311,-6.952 -6.804,-7.17 0.072,-1.529 0,-3.457 0,-3.565 0,-0.11 -3.458,0.035 -3.53,0.035 -0.073,0 -0.255,2.366 -0.328,3.931 -1.602,0.473 -2.584,1.201 -2.911,1.601 -0.073,-0.8 -0.146,-2.256 -0.183,-2.256 -0.181,0.073 -4.766,0.328 -4.766,0.328 -0.074,0.799 -0.074,7.35 -0.074,9.242 z"
                 id="path191"
                 inkscape:connector-curvature="0" /></g></g></g></g></g></symbol><symbol
     id="Shape_Icon_Time"
     viewBox="-40 -42 80 82"
     transform="translate(0.47098976,26.976244)"><g
       id="g194"><g
         id="g196"><g
           id="g198"><g
             id="g200"><g
               id="g202"><g
                 style="opacity:0.2"
                 id="g204"><path
                   d="m 40,-2 c 0,-22.091 -17.909,-40 -40,-40 -22.091,0 -40,17.909 -40,40 0,22.091 17.909,40 40,40 22.091,0 40,-17.908 40,-40 z"
                   id="path206"
                   inkscape:connector-curvature="0" /></g><g
                 id="g208"><path
                   style="fill:#3479a3"
                   d="M 40,0 C 40,-22.091 22.091,-40 0,-40 -22.091,-40 -40,-22.091 -40,0 -40,22.091 -22.091,40 0,40 22.091,40 40,22.092 40,0 Z"
                   id="path210"
                   inkscape:connector-curvature="0" /></g></g><path
               style="fill:#276482"
               d="m 0,-7.665 c -13.161,0 -24.835,-6.358 -32.125,-16.168 C -24.835,-33.642 -13.161,-40 0,-40 c 13.161,0 24.835,6.358 32.125,16.168 C 24.835,-14.022 13.161,-7.665 0,-7.665 Z"
               id="path212"
               inkscape:connector-curvature="0" /><path
               style="fill:#a1e2fc"
               d="M 0,40 C -15.404,40 -28.766,31.287 -35.449,18.526 -28.766,5.765 -15.404,-2.948 0,-2.948 c 15.404,0 28.766,8.713 35.449,21.474 C 28.766,31.287 15.404,40 0,40 Z"
               id="path214"
               inkscape:connector-curvature="0" /><path
               style="fill:#a1e2fc"
               d="m 35.449,1.436 c 0,-19.578 -15.871,-35.449 -35.449,-35.449 -19.578,0 -35.449,15.871 -35.449,35.449 0,19.578 15.871,35.449 35.449,35.449 19.578,0 35.449,-15.871 35.449,-35.449 z"
               id="path216"
               inkscape:connector-curvature="0" /><path
               style="fill:#5daae7"
               d="m 34.08,2.805 c 0,-18.822 -15.258,-34.08 -34.08,-34.08 -16.989,0 -31.075,12.432 -33.657,28.695 l 6.838,2.37 -7.103,-0.291 c 0,0 -0.158,2.191 -0.158,3.306 0,18.822 15.258,34.08 34.08,34.08 17.563,0 32.023,-13.285 33.878,-30.355 l -7.164,0.247 7.354,-3.071 c 0.008,-0.3 0.012,-0.6 0.012,-0.901 z"
               id="path218"
               inkscape:connector-curvature="0" /><path
               style="fill:#3479a3"
               d="m 25.336,2.805 c 0,-13.993 -11.343,-25.336 -25.336,-25.336 -13.993,0 -25.336,11.344 -25.336,25.336 0,13.992 11.343,25.336 25.336,25.336 13.993,0 25.336,-11.343 25.336,-25.336 z"
               id="path220"
               inkscape:connector-curvature="0" /><path
               style="fill:#276482"
               d="m 0,24.038 c 13.301,0 24.201,-10.252 25.246,-23.284 0.054,0.677 0.09,1.36 0.09,2.052 0,13.992 -11.343,25.336 -25.336,25.336 -13.993,0 -25.336,-11.344 -25.336,-25.337 0,-0.691 0.035,-1.374 0.09,-2.052 1.045,13.033 11.945,23.285 25.246,23.285 z"
               id="path222"
               inkscape:connector-curvature="0" /><polygon
               style="fill:#276482"
               points="-34.08,-0.74 -40,-1.298 -35.449,1.436 -26.818,-0.209 "
               id="polygon224" /><polygon
               style="fill:#276482"
               points="33.976,6.245 39.594,5.716 35.345,8.421 26.714,6.777 "
               id="polygon226" /></g></g></g><polygon
         style="fill:#a1e2fc"
         points="19,0 19,5 1,5 1,19 -4,19 -4,0 "
         id="polygon228" /></g></symbol><pattern
     x="2647"
     y="-342"
     width="315"
     height="270"
     patternUnits="userSpaceOnUse"
     id="Wooden_pattern_3"
     viewBox="0 -270 315 270"><g
       id="g231"><polygon
         style="fill:none;"
         points="0,-270 315,-270 315,0 0,0   "
         id="polygon233" /><g
         id="g235"><polygon
           style="opacity:0.2;fill:#E7A149;"
           points="0,-102.596 0,-135.048 315,-135.048 315,-102.596    "
           id="polygon237" /><polygon
           style="opacity:0.15;fill:#E7A149;"
           points="0,-68.767 0,-101.219 315,-101.219 315,-68.767    "
           id="polygon239" /><polygon
           style="opacity:0.1;fill:#E7A149;"
           points="0,-35.191 0,-67.643 315,-67.643 315,-35.191    "
           id="polygon241" /><polygon
           style="opacity:0.15;fill:#E7A149;"
           points="0,-1.362 0,-33.814 315,-33.814 315,-1.362    "
           id="polygon243" /><polygon
           style="opacity:0.2;fill:#E7A149;"
           points="0,-237.548 0,-270 315,-270 315,-237.548    "
           id="polygon245" /><polygon
           style="opacity:0.15;fill:#E7A149;"
           points="0,-203.719 0,-236.171 315,-236.171 315,-203.719    "
           id="polygon247" /><polygon
           style="opacity:0.1;fill:#E7A149;"
           points="0,-170.143 0,-202.595 315,-202.595 315,-170.143    "
           id="polygon249" /><polygon
           style="opacity:0.15;fill:#E7A149;"
           points="0,-136.314 0,-168.766 315,-168.766 315,-136.314    "
           id="polygon251" /></g></g></pattern><g
     id="element_x5F_rays"
     transform="translate(0.47098976,26.976244)" /><g
     id="element_x5F_ribbon"
     transform="translate(0.47098976,26.976244)" /><g
     id="element_x5F_board_x5F_title"
     transform="translate(0.47098976,26.976244)"><g
       id="Shield" /><g
       id="element_x5F_board" /></g><g
     id="element_x5F_board_x5F_corner"
     transform="translate(0.47098976,26.976244)" /><g
     id="background_x5F_scene2"
     transform="translate(0.47098976,26.976244)"><g
       id="background_x5F_mountain" /></g><g
     id="background_x5F_scene1"
     transform="translate(0.47098976,26.976244)"><g
       id="background_x5F_sky" /><g
       id="background_x5F_scene1_x5F_layer3"><g
         id="Background_Hill" /></g><g
       id="background_x5F_scene1_x5F_layer2" /><g
       id="background_x5F_tree" /><g
       id="background_x5F_scene1_x5F_layer1"><g
         id="Background_Land" /></g></g><g
     id="background_x5F_clouds"
     transform="translate(0.47098976,26.976244)"><g
       id="Background_Clouds" /></g><g
     id="element_x5F_tooltips"
     transform="translate(0.47098976,26.976244)"><g
       id="Element_Tooltips"><g
         id="Element_Board_Brown_Big_6_" /></g></g><g
     id="window_x5F_title_x5F_nail"
     transform="translate(0.47098976,26.976244)"><g
       id="Window_Title_Nail" /></g><g
     id="window_x5F_title_x5F_empty"
     transform="translate(0.47098976,26.976244)"><g
       id="Window_Title_Rope" /></g><g
     id="window_x5F_title_x5F_leaves"
     transform="translate(0.47098976,26.976244)"><g
       id="WIndow_Title_Rope_Leave" /></g><g
     id="btn_x5F_text_x5F_grey_1_"
     transform="translate(0.47098976,26.976244)"><g
       id="Button_Text_Grey" /></g><g
     id="btn_x5F_text_x5F_red"
     transform="translate(0.47098976,26.976244)"><g
       id="Element_Board_Red_Small" /></g><g
     id="btn_x5F_text_x5F_green"
     transform="translate(0.47098976,26.976244)"><g
       id="Button_Text_Green" /></g><g
     id="btn_x5F_text_x5F_brown"
     transform="translate(0.47098976,26.976244)"><g
       id="Button_Text_Brown" /></g><g
     id="boards_x5F_small_x5F_grey"
     transform="translate(0.47098976,26.976244)"><g
       id="Element_Board_Grey_Small" /></g><g
     id="boards_x5F_small_x5F_red"
     transform="translate(0.47098976,26.976244)"><g
       id="Button_Text_Red" /></g><g
     id="boards_x5F_small_x5F_green_1_"
     transform="translate(0.47098976,26.976244)"><g
       id="Element_Board_Green_Small" /></g><g
     id="boards_x5F_small_x5F_brown_1_"
     transform="translate(0.47098976,26.976244)"><g
       id="Element_Board_Brown_Small" /></g><g
     id="boards_x5F_large_x5F_grey"
     transform="translate(0.47098976,26.976244)"><g
       id="Element_Board_Grey_Big" /></g><g
     id="boards_x5F_large_x5F_red"
     transform="translate(0.47098976,26.976244)"><g
       id="Element_Board_Red_Big"><g
         id="Element_Board_Brown_Big_5_" /></g></g><g
     id="boards_x5F_large_x5F_green"
     transform="translate(0.47098976,26.976244)"><g
       id="Element_Board_Green_Big"><g
         id="Element_Board_Brown_Big_4_" /></g></g><g
     id="boards_x5F_large_x5F_brown"
     transform="translate(0.47098976,26.976244)"><g
       id="Element_Board_Brown_Big" /></g><g
     id="boards_x5F_bar_x5F_top"
     transform="translate(0.47098976,26.976244)"><g
       id="window_bar_top"><g
         id="Window_tab_bar_bottom_1_" /></g></g><g
     id="boards_x5F_bar_x5F_bottom"
     transform="translate(0.47098976,26.976244)"><g
       id="Window_tab_bar_bottom" /></g><g
     id="loader_x5F_bar_x5F_bg"
     transform="translate(0.47098976,26.976244)"><g
       id="Element_Loader_BG" /></g><g
     id="loader_x5F_bar_x5F_blue_x5F_fill"
     transform="translate(0.47098976,26.976244)" /><g
     id="loader_x5F_bar_x5F_red_x5F_fill"
     transform="translate(0.47098976,26.976244)" /><g
     id="loader_x5F_bar_x5F_purple_x5F_fill"
     transform="translate(0.47098976,26.976244)" /><g
     id="loader_x5F_bar_x5F_green_x5F_fill"
     transform="translate(0.47098976,26.976244)" /><g
     id="loader_x5F_bar_x5F_grey_x5F_fill"
     transform="translate(0.47098976,26.976244)" /><g
     id="status_x5F_bar_x5F_life"
     transform="translate(0.47098976,26.976244)" /><g
     id="status_x5F_bar_x5F_power"
     transform="translate(0.47098976,26.976244)" /><g
     id="status_x5F_bar_x5F_defense"
     transform="translate(0.47098976,26.976244)" /><g
     id="status_x5F_bar_x5F_weapon"
     transform="translate(0.47098976,26.976244)" /><g
     id="status_x5F_bar_x5F_money"
     transform="translate(0.47098976,26.976244)" /><g
     id="status_x5F_bar_x5F_time"
     transform="translate(0.47098976,26.976244)" /><g
     id="status_x5F_bar_x5F_weapon_x5F_fill"
     transform="translate(0.47098976,26.976244)" /><g
     id="status_x5F_bar_x5F_power_x5F_fill"
     transform="translate(0.47098976,26.976244)" /><g
     id="status_x5F_bar_x5F_defense_x5F_fill"
     transform="translate(0.47098976,26.976244)" /><g
     id="status_x5F_bar_x5F_life_x5F_fill"
     transform="translate(0.47098976,26.976244)" /><g
     id="element_x5F_button_x5F_level_x5F_locked"
     transform="translate(0.47098976,26.976244)"><g
       id="Element_Level_Empty" /></g><g
     id="element_x5F_button_x5F_level"
     transform="translate(0.47098976,26.976244)"><g
       id="Element_Level_BG" /></g><g
     id="element_x5F_pagination_x5F_active"
     transform="translate(0.47098976,26.976244)"><g
       id="Element_Pagination_Active" /></g><g
     id="element_x5F_pagination_x5F_empty"
     transform="translate(0.47098976,26.976244)"><g
       id="Element_Pagination_Default" /></g><g
     id="element_x5F_star_x5F_small_1_"
     transform="translate(0.47098976,26.976244)"><g
       id="element_x5F_star_x5F_small_3_" /></g><g
     id="element_x5F_radio_x5F_on"
     transform="translate(0.47098976,26.976244)"><g
       id="element_x5F_radio_x5F_on_1_" /></g><g
     id="element_x5F_radio_x5F_off_1_"
     transform="translate(0.47098976,26.976244)"><g
       id="element_x5F_radio_x5F_off_3_" /></g><g
     id="element_x5F_checkmark_x5F_unchecked_1_"
     transform="translate(0.47098976,26.976244)"><g
       id="element_x5F_checkmark_x5F_unchecked_3_" /></g><g
     id="element_x5F_checkmark_x5F_checked_1_"
     transform="translate(0.47098976,26.976244)"><g
       id="element_x5F_checkmark_x5F_checked_2_" /></g><g
     id="element_x5F_toggle_x5F_on"
     transform="translate(0.47098976,26.976244)"><g
       id="Element_Toggle_On" /></g><g
     id="element_x5F_toggle_x5F_off"
     transform="translate(0.47098976,26.976244)"><g
       id="Element_Toggle_Off" /></g><g
     id="element_x5F_small_x5F_weapon"
     transform="translate(0.47098976,26.976244)"><g
       id="Shape_Icon_Weapon_Small" /></g><g
     id="element_x5F_small_x5F_power"
     transform="translate(0.47098976,26.976244)"><g
       id="Shape_Icon_Power_Small" /></g><g
     id="element_x5F_small_x5F_heart"
     transform="translate(0.47098976,26.976244)"><g
       id="Shape_Icon_Heart_Small" /></g><g
     id="element_x5F_small_x5F_defense"
     transform="translate(0.47098976,26.976244)"><g
       id="Shape_Icon_Defense_Small" /></g><g
     id="element_x5F_big_x5F_power"
     transform="translate(0.47098976,26.976244)"><g
       id="Shape_Icon_Power_Big" /></g><g
     id="element_x5F_weapon"
     transform="translate(0.47098976,26.976244)"><g
       id="Shape_Icon_Weapon_Big" /></g><g
     id="element_x5F_big_x5F_life"
     transform="translate(0.47098976,26.976244)"><g
       id="Shape_Icon_Heart_Big" /></g><g
     id="element_x5F_big_x5F_defense"
     transform="translate(0.47098976,26.976244)"><g
       id="Shape_Icon_Defense_Big" /></g><g
     id="element_x5F_rope_x5F_tie"
     transform="translate(0.47098976,26.976244)" /><g
     id="element_x5F_rope"
     transform="translate(0.47098976,26.976244)" /><g
     id="element_x5F_new_x5F_score"
     transform="translate(0.47098976,26.976244)"><g
       id="Element_label_New" /></g><g
     id="element_x5F_rope_x5F_right"
     transform="translate(0.47098976,26.976244)"><g
       id="Element_Rope__x23_1_1_" /></g><g
     id="element_x5F_rope_x5F_left"
     transform="translate(0.47098976,26.976244)"><g
       id="Element_Rope__x23_1" /></g><g
     id="element_x5F_rope2_x5F_left"
     transform="translate(0.47098976,26.976244)"><g
       id="Element_Rope__x23_2_14_" /></g><g
     id="element_x5F_rope2_x5F_right"
     transform="translate(0.47098976,26.976244)"><g
       id="Element_Rope__x23_2" /></g><g
     id="element_x5F_slider_x5F_bg"
     transform="translate(0.47098976,26.976244)" /><g
     id="element_x5F_slider_x5F_bar"
     transform="translate(0.47098976,26.976244)" /><g
     id="element_x5F_slider_x5F_button"
     transform="translate(0.47098976,26.976244)" /><g
     id="element_x5F_star_x5F_big_x5F_empty"
     transform="translate(0.47098976,26.976244)"><g
       id="Element_Star_Empty_Big" /></g><g
     id="element_x5F_star_x5F_medium_x5F_empty"
     transform="translate(0.47098976,26.976244)"><g
       id="Element_Star_Empty_1_" /></g><g
     id="element_x5F_star_x5F_big"
     transform="translate(0.47098976,26.976244)"><g
       id="Element_Star_Filled_Big_1_" /></g><g
     id="element_x5F_star_x5F_medium"
     transform="translate(0.47098976,26.976244)"><g
       id="Element_Star_Filled_Medium"><g
         id="Element_Star_Empty" /><g
         id="Element_Star_Filled_Big" /></g></g><g
     id="window_x5F_panel_x5F_pause"
     transform="translate(0.47098976,26.976244)"><g
       id="Window_Panel_1_6_" /></g><g
     id="window_x5F_panel_x5F_popup"
     transform="translate(0.47098976,26.976244)"><g
       id="Window_Panel_1_5_" /></g><g
     id="window_x5F_panel_x5F_store"
     transform="translate(0.47098976,26.976244)"><g
       id="Window_Panel_1_4_" /></g><g
     id="window_x5F_panel_x5F_upgrade"
     transform="translate(0.47098976,26.976244)"><g
       id="Window_Panel_1_3_" /></g><g
     id="window_x5F_panel_x5F_setting_1_"
     transform="translate(0.47098976,26.976244)"><g
       id="window_x5F_panel_x5F_setting_2_" /></g><g
     id="window_x5F_panel_x5F_level_1_"
     transform="translate(0.47098976,26.976244)"><g
       id="window_x5F_panel_x5F_level_2_" /></g><g
     id="window_x5F_panel_x5F_option"
     transform="translate(0.47098976,26.976244)"><g
       id="Window_Panel_1_2_" /></g><g
     id="window_x5F_panel_x5F_level_3_"
     transform="translate(0.47098976,26.976244)"><g
       id="Window_Panel_1_1_" /></g><g
     id="window_x5F_title_x5F_3"
     transform="translate(0.47098976,26.976244)" /><g
     id="window_x5F_title_x5F_2"
     transform="translate(0.47098976,26.976244)" /><g
     id="window_x5F_panel_x5F_main"
     transform="translate(0.47098976,26.976244)"><g
       id="Window_Panel_1" /></g><g
     id="window_x5F_title_x5F_1"
     transform="translate(0.47098976,26.976244)"><g
       id="g412"><g
         id="XMLID_1_"><g
           id="g415"><rect
             y="-23.375427"
             style="opacity:0.31000001"
             width="276.47098"
             height="97.375427"
             id="rect417"
             rx="0"
             ry="0"
             x="-0.47098976" /><g
             id="g419"><rect
               x="2"
               style="fill:#cf883c"
               width="271.98401"
               height="96.976242"
               id="rect421"
               y="-26.976244" /><path
               transform="matrix(1,0,0,1.4083845,0,-26.976244)"
               style="fill:#fcc38b"
               d="M 6.024,1.815774 6.029,4.1213522 6.027,66.056 270.962,66 270.962,1.6648632 273.984,0 2,0 Z"
               id="polygon423"
               inkscape:connector-curvature="0"
               sodipodi:nodetypes="cccccccc" /><path
               transform="matrix(1,0,0,1.477254,0,-30.550461)"
               style="fill:#e7a149"
               d="m 8.044,64.013 0,-39.013 12.227,-3 -12.227,0 0,-18 260.903,0 0,48.26066 -19.14,0 19.193,3 -0.053,8.75234 z"
               id="polygon425"
               inkscape:connector-curvature="0"
               sodipodi:nodetypes="ccccccccccc" /><path
               style="fill:#a56226"
               d="m 6.015,-0.98240325 -4.015,0 0,2.99999995 18.065,0 z M 6.012,66.056 2,70 273.818,70 270.806,66 Z M 269,44 l -19,3 24,0 0,-3 z"
               id="path427"
               inkscape:connector-curvature="0"
               sodipodi:nodetypes="ccccccccccccccc" /></g><g
             id="g429"
             transform="translate(0,-13.321602)"><g
               style="opacity:0.4"
               id="g431"><circle
                 cx="253.41299"
                 cy="58.188"
                 r="4.4130001"
                 id="circle433" /></g><g
               style="opacity:0.4"
               id="g435"><circle
                 cx="253.922"
                 cy="14.795"
                 r="4.4130001"
                 id="circle437" /></g><path
               style="opacity:0.2"
               d="m 250.631,18.211 c 0.875,1.017 -0.405,2.753 0.598,4.287 -0.005,-0.011 -0.005,-0.026 -0.01,-0.037 0.753,1.168 -0.617,2.829 0.294,4.486 -0.005,-0.013 -0.004,-0.029 -0.009,-0.042 0.667,1.209 -0.74,2.882 0.105,4.571 -0.004,-0.012 -0.003,-0.027 -0.007,-0.04 0.651,1.303 -0.916,2.83 -0.038,4.586 -0.004,-0.013 -0.002,-0.029 -0.006,-0.041 0.607,1.315 -0.95,2.838 -0.153,4.608 -0.004,-0.013 -0.001,-0.029 -0.005,-0.042 0.57,1.317 -1.001,2.815 -0.255,4.593 -0.002,-0.013 -0.004,-0.025 -0.004,-0.038 0.555,1.369 -1.089,2.779 -0.368,4.582 -0.003,-0.012 0,-0.027 -0.003,-0.04 0.499,1.322 -1.128,2.731 -0.497,4.52 -0.003,-0.013 0.001,-0.027 -0.001,-0.04 0.448,1.316 -0.867,1.838 -0.842,3.437 0.005,0.276 0.047,0.582 0.129,0.851 -0.002,-0.01 0.003,-0.023 0.001,-0.033 0.303,1.042 1.422,2.137 2.391,2.501 -0.001,-0.001 0.182,-0.002 0.182,-0.003 2.92,1.008 3.868,-7.883 3.868,-9.294 0,0 0,0.002 0,0.002 -1,-1.651 1,-2.664 0,-4.7 0,0.001 0,0.003 0,0.005 -1,-1.592 1,-2.723 0,-4.712 0,0.002 0,0.004 0,0.006 0,-0.198 -0.096,-0.468 -0.184,-0.599 -0.299,-0.019 -0.509,-0.038 -0.808,-0.057 1.707,-0.279 2.86,-1.661 1.493,-4.052 10e-4,0.003 0.21,0.007 0.211,0.01 -0.806,-1.563 1.287,-2.8 0.287,-4.736 0,0.002 0,0.004 0,0.006 -1,-1.572 1.008,-2.821 -0.241,-4.742 10e-4,0.003 -0.257,0.008 -0.256,0.011 -0.897,-1.522 1.497,-2.941 -0.503,-4.797 0,10e-4 0,0.002 0,0.003 -1,-2.293 0.763,-7.93 -1.705,-10.005 0.003,0.004 0.086,0.009 0.089,0.013 -0.186,-0.171 -0.601,-0.37 -0.762,-0.47 -1.07,-0.411 -1.622,-0.167 -2.622,0.642 0,-10e-4 0,-10e-4 0,-10e-4 -1,1.292 -1.826,3.32 -0.515,4.832 -0.006,-0.009 0.152,-0.021 0.146,-0.031 z m 1.473,32.348 -0.374,-0.047 0.268,0.034 0.106,0.013 z"
               id="path439"
               inkscape:connector-curvature="0" /><g
               id="g441"><g
                 id="g443"><path
                   style="fill:#f7c99a"
                   d="m 251.867,14.454 c 0,0 0.101,-0.138 0.293,-0.346 0.192,-0.196 0.47,-0.426 0.819,-0.713 0.685,-0.541 1.703,-1.277 3.329,-0.371 l -4.441,1.43 z"
                   id="path445"
                   inkscape:connector-curvature="0" /><path
                   style="fill:#c99561"
                   d="m 251.867,14.454 1.377,-0.444 c 0,0 0.083,-0.146 0.251,-0.38 0.165,-0.22 0.402,-0.537 0.697,-0.932 -0.763,0.252 -1.301,0.781 -1.704,1.111 -0.198,0.161 -0.355,0.319 -0.46,0.448 -0.103,0.126 -0.161,0.197 -0.161,0.197 z"
                   id="path447"
                   inkscape:connector-curvature="0" /><path
                   style="fill:#8e613f"
                   d="m 253.415,13.081 c -0.486,0.326 -0.866,0.681 -1.135,0.909 -0.269,0.264 -0.413,0.465 -0.413,0.465 l 0.564,-0.182 c 0,0 0.086,-0.136 0.258,-0.357 0.171,-0.208 0.418,-0.476 0.736,-0.838 l -0.01,0.003 z"
                   id="path449"
                   inkscape:connector-curvature="0" /></g><g
                 id="g451"><path
                   style="fill:#e0af79"
                   d="m 253.322,23.138 c -1.415,-1.117 -1.667,-3.07 -0.592,-4.496 -1.461,-1.043 -1.803,-2.882 -0.884,-4.181 l 4.475,-1.442 c 1.706,1.152 2.098,3.392 1.03,4.879 1.483,1.11 1.764,3.273 0.627,4.711 l 0.006,0.005 -4.662,0.524 z"
                   id="path453"
                   inkscape:connector-curvature="0" /><path
                   style="fill:#aa784f"
                   d="m 253.322,23.138 c -1.415,-1.117 -1.667,-3.07 -0.592,-4.496 -1.461,-1.043 -1.803,-2.882 -0.884,-4.181 l 0.594,-0.192 c 0.207,0.307 0.355,0.559 0.363,0.576 -0.174,1.02 0.023,2.088 0.275,2.923 0.251,0.833 0.555,1.425 0.559,1.463 -0.369,1.445 0.017,2.968 0.314,3.836 l -0.629,0.071 z"
                   id="path455"
                   inkscape:connector-curvature="0" /><g
                   id="g457"><path
                     style="fill:#c99561"
                     d="m 253.567,22.051 1.194,0.925 -1.438,0.162 c -1.178,-0.922 -1.538,-2.432 -1.027,-3.724 -0.203,0.813 0.275,1.873 1.271,2.637 z"
                     id="path459"
                     inkscape:connector-curvature="0" /><path
                     style="fill:#c99561"
                     d="m 257.806,16.951 c -0.101,0.335 -0.252,0.658 -0.46,0.954 0,0 -1.341,-1.01 -2.71,-1.916 -0.694,-0.451 -1.381,-0.875 -1.91,-1.141 -0.519,-0.291 -0.871,-0.39 -0.871,-0.39 l 1.379,-0.444 c 0,0 0.302,0.122 0.734,0.373 0.437,0.243 1.02,0.6 1.586,0.979 1.142,0.756 2.252,1.585 2.252,1.585 z"
                     id="path461"
                     inkscape:connector-curvature="0" /><path
                     style="fill:#c99561"
                     d="m 251.488,15.166 c -0.133,0.716 0.394,1.701 1.433,2.39 0,0 1.414,0.953 2.802,2.003 1.389,1.041 2.756,2.141 2.756,2.141 -0.117,0.323 -0.284,0.633 -0.506,0.915 0,0 -1.288,-1.045 -2.602,-2.04 -1.306,-1.001 -2.635,-1.929 -2.635,-1.929 -1.222,-0.855 -1.662,-2.286 -1.248,-3.48 z"
                     id="path463"
                     inkscape:connector-curvature="0" /></g><g
                   id="g465"><path
                     style="fill:#f7c99a"
                     d="m 252.037,14.534 c 0,0 0.087,0.034 0.24,0.095 0.151,0.078 0.366,0.189 0.625,0.322 0.526,0.271 1.204,0.704 1.89,1.153 1.36,0.906 2.687,1.911 2.687,1.911 1.073,0.802 1.629,2.587 0.877,3.981 0.239,-1.122 -1.279,-3.169 -2.915,-4.803 -0.818,-0.82 -1.668,-1.527 -2.315,-1.992 -0.328,-0.227 -0.599,-0.398 -0.787,-0.514 -0.192,-0.111 -0.302,-0.153 -0.302,-0.153 z"
                     id="path467"
                     inkscape:connector-curvature="0" /><path
                     style="fill:#f7c99a"
                     d="m 255.274,13.356 1.026,-0.33 0.15,0.097 c 1.247,0.821 1.924,2.687 1.248,4.135 0.135,-0.948 -0.909,-2.508 -2.424,-3.902 z"
                     id="path469"
                     inkscape:connector-curvature="0" /><path
                     style="fill:#f7c99a"
                     d="m 256.893,22.736 c -0.861,-1.052 -1.855,-2.054 -2.635,-2.78 -0.788,-0.724 -1.35,-1.179 -1.35,-1.179 0,0 1.284,0.9 2.54,1.869 1.267,0.961 2.511,1.97 2.511,1.97 l -1.066,0.12 z"
                     id="path471"
                     inkscape:connector-curvature="0" /></g><g
                   id="g473"><path
                     style="fill:#8e613f"
                     d="m 253.323,23.138 c -0.128,-0.1 -0.244,-0.209 -0.352,-0.321 l -0.07,-0.073 c -0.104,-0.115 -0.198,-0.234 -0.282,-0.359 l -0.046,-0.073 c -0.083,-0.13 -0.158,-0.264 -0.22,-0.403 l -0.004,-0.008 c -0.063,-0.145 -0.116,-0.293 -0.159,-0.444 l -0.018,-0.062 c -0.04,-0.151 -0.069,-0.303 -0.085,-0.458 L 252.084,20.9 c -0.031,-0.324 -0.009,-0.654 0.057,-0.974 l 0.005,-0.026 c 0.036,-0.162 0.085,-0.323 0.148,-0.48 l 10e-4,-0.002 c -0.201,0.812 0.277,1.872 1.272,2.635 l 0.121,0.093 c 0.081,0.353 0.177,0.667 0.265,0.923 l -0.63,0.069 z"
                     id="path475"
                     inkscape:connector-curvature="0" /><path
                     style="fill:#8e613f"
                     d="m 252.92,17.556 0.123,0.084 c 0.256,0.899 0.59,1.55 0.594,1.591 l -0.011,0.05 -0.891,-0.634 c -0.137,-0.094 -0.261,-0.199 -0.377,-0.308 l -0.073,-0.068 c -0.108,-0.107 -0.208,-0.219 -0.297,-0.337 l -0.049,-0.069 c -0.087,-0.124 -0.17,-0.249 -0.241,-0.377 l -0.004,-0.007 c -0.073,-0.134 -0.132,-0.274 -0.182,-0.416 l -0.021,-0.059 c -0.047,-0.141 -0.081,-0.29 -0.108,-0.432 l -0.006,-0.034 c -0.053,-0.295 -0.053,-0.607 -0.005,-0.908 l 0.003,-0.024 c 0.023,-0.145 0.06,-0.292 0.11,-0.439 l 10e-4,-0.002 c -0.131,0.717 0.397,1.701 1.434,2.389 z"
                     id="path477"
                     inkscape:connector-curvature="0" /><path
                     style="fill:#8e613f"
                     d="m 252.803,14.845 -0.005,0.04 c 0,0 -0.235,-0.121 -0.469,-0.242 -0.236,-0.093 -0.473,-0.185 -0.473,-0.185 l 0.585,-0.189 c 0.207,0.307 0.355,0.559 0.362,0.576 z"
                     id="path479"
                     inkscape:connector-curvature="0" /></g></g><g
                 id="g481"><path
                   style="fill:#e0af79"
                   d="m 254.078,32.257 c -1.355,-1.196 -1.484,-3.203 -0.313,-4.57 -1.377,-1.16 -1.58,-3.15 -0.443,-4.549 l 4.672,-0.525 c 1.407,1.158 1.616,3.283 0.435,4.679 1.398,1.191 1.538,3.325 0.327,4.696 l 0.006,0.006 -4.684,0.263 z"
                   id="path483"
                   inkscape:connector-curvature="0" /><path
                   style="fill:#aa784f"
                   d="m 254.078,32.257 c -1.355,-1.196 -1.484,-3.203 -0.313,-4.57 -1.377,-1.16 -1.58,-3.15 -0.443,-4.549 l 0.621,-0.07 c 0.144,0.417 0.264,0.685 0.267,0.709 -0.316,1.064 -0.214,2.181 -0.028,3.049 0.18,0.868 0.447,1.484 0.451,1.523 -0.475,1.433 -0.168,2.986 0.078,3.872 l -0.633,0.036 z"
                   id="path485"
                   inkscape:connector-curvature="0" /><g
                   id="g487"><path
                     style="fill:#c99561"
                     d="m 254.383,31.18 1.14,0.995 -1.445,0.081 c -1.122,-0.992 -1.403,-2.539 -0.797,-3.819 -0.265,0.814 0.156,1.918 1.102,2.743 z"
                     id="path489"
                     inkscape:connector-curvature="0" /><path
                     style="fill:#c99561"
                     d="m 258.961,26.403 c -0.128,0.318 -0.306,0.62 -0.537,0.895 0,0 -1.266,-1.058 -2.533,-2.117 -1.273,-1.044 -2.559,-2.045 -2.559,-2.045 l 1.44,-0.162 c 0,0 1.052,0.845 2.104,1.69 1.043,0.87 2.085,1.739 2.085,1.739 z"
                     id="path491"
                     inkscape:connector-curvature="0" /><path
                     style="fill:#c99561"
                     d="m 252.861,23.894 c -0.233,0.816 0.204,1.906 1.18,2.705 0,0 1.323,1.112 2.646,2.223 1.31,1.146 2.62,2.293 2.62,2.293 -0.135,0.314 -0.318,0.611 -0.557,0.88 0,0 -1.239,-1.091 -2.477,-2.182 -1.245,-1.077 -2.503,-2.12 -2.503,-2.12 -1.153,-0.962 -1.476,-2.504 -0.909,-3.799 z"
                     id="path493"
                     inkscape:connector-curvature="0" /></g><g
                   id="g495"><path
                     style="fill:#f7c99a"
                     d="m 253.499,23.277 c 0,0 1.277,0.995 2.536,2.033 1.256,1.052 2.511,2.104 2.511,2.104 1.017,0.864 1.442,2.641 0.621,3.986 0.297,-1.104 -1.092,-3.199 -2.585,-4.951 -1.495,-1.759 -3.083,-3.172 -3.083,-3.172 z"
                     id="path497"
                     inkscape:connector-curvature="0" /><path
                     style="fill:#f7c99a"
                     d="m 256.901,22.736 1.071,-0.12 0.126,0.101 c 1.037,0.837 1.519,2.609 0.729,3.976 0.223,-0.915 -0.723,-2.482 -1.926,-3.957 z"
                     id="path499"
                     inkscape:connector-curvature="0" /><path
                     style="fill:#f7c99a"
                     d="m 257.666,32.055 c -1.601,-2.196 -3.733,-4.216 -3.733,-4.216 0,0 1.207,1.024 2.414,2.049 1.195,1.053 2.39,2.107 2.39,2.107 l -1.071,0.06 z"
                     id="path501"
                     inkscape:connector-curvature="0" /></g><g
                   id="g503"><path
                     style="fill:#8e613f"
                     d="m 254.078,32.257 c -0.121,-0.108 -0.231,-0.223 -0.333,-0.343 l -0.066,-0.077 c -0.097,-0.121 -0.185,-0.247 -0.262,-0.377 l -0.042,-0.076 c -0.075,-0.136 -0.143,-0.275 -0.197,-0.418 l -0.003,-0.008 c -0.056,-0.15 -0.098,-0.303 -0.13,-0.458 l -0.014,-0.064 c -0.029,-0.155 -0.051,-0.311 -0.058,-0.468 l -0.001,-0.038 c -0.012,-0.329 0.027,-0.661 0.119,-0.983 l 0.007,-0.027 c 0.047,-0.162 0.108,-0.322 0.181,-0.478 l 0.001,-0.002 c -0.264,0.814 0.157,1.916 1.102,2.741 l 0.115,0.1 c 0.061,0.359 0.14,0.679 0.213,0.941 l -0.632,0.035 z"
                     id="path505"
                     inkscape:connector-curvature="0" /><path
                     style="fill:#8e613f"
                     d="m 254.041,26.598 0.116,0.096 c 0.179,0.936 0.472,1.614 0.475,1.655 l -0.014,0.05 -0.848,-0.706 c -0.129,-0.107 -0.244,-0.224 -0.352,-0.345 l -0.067,-0.076 c -0.1,-0.118 -0.19,-0.242 -0.27,-0.37 l -0.043,-0.075 c -0.077,-0.134 -0.151,-0.27 -0.209,-0.412 l -0.004,-0.008 c -0.061,-0.148 -0.107,-0.299 -0.145,-0.453 l -0.016,-0.064 c -0.034,-0.153 -0.058,-0.309 -0.069,-0.465 l -0.002,-0.038 c -0.017,-0.329 0.01,-0.659 0.091,-0.982 l 0.007,-0.027 c 0.042,-0.163 0.097,-0.323 0.166,-0.481 l 0.001,-0.002 c -0.23,0.817 0.208,1.906 1.183,2.703 z"
                     id="path507"
                     inkscape:connector-curvature="0" /><path
                     style="fill:#8e613f"
                     d="m 254.21,23.777 -0.01,0.042 -0.867,-0.683 0.611,-0.069 c 0.143,0.418 0.263,0.686 0.266,0.71 z"
                     id="path509"
                     inkscape:connector-curvature="0" /></g></g><g
                 id="g511"><path
                   style="fill:#e0af79"
                   d="m 254.346,41.403 c -1.283,-1.264 -1.308,-3.265 -0.067,-4.571 -1.317,-1.227 -1.414,-3.235 -0.201,-4.575 l 4.694,-0.264 c 1.34,1.228 1.436,3.352 0.185,4.687 1.334,1.26 1.364,3.409 0.075,4.716 l 0.005,0.006 -4.691,10e-4 z"
                   id="path513"
                   inkscape:connector-curvature="0" /><path
                   style="fill:#aa784f"
                   d="m 254.346,41.403 c -1.283,-1.264 -1.308,-3.265 -0.067,-4.571 -1.317,-1.227 -1.414,-3.235 -0.201,-4.575 l 0.624,-0.035 c 0.119,0.426 0.226,0.7 0.228,0.725 -0.372,1.048 -0.331,2.171 -0.188,3.048 0.134,0.876 0.367,1.505 0.368,1.544 -0.546,1.405 -0.323,2.968 -0.13,3.865 l -0.634,-0.001 z"
                   id="path515"
                   inkscape:connector-curvature="0" /><g
                   id="g517"><path
                     style="fill:#c99561"
                     d="m 254.713,40.348 1.081,1.054 -1.447,0 c -1.063,-1.048 -1.261,-2.6 -0.592,-3.847 -0.3,0.799 0.053,1.92 0.958,2.793 z"
                     id="path519"
                     inkscape:connector-curvature="0" /><path
                     style="fill:#c99561"
                     d="m 259.536,35.82 c -0.144,0.31 -0.338,0.604 -0.584,0.866 0,0 -1.201,-1.141 -2.418,-2.246 -1.223,-1.092 -2.445,-2.184 -2.445,-2.184 l 1.447,-0.081 c 0,0 1.005,0.901 2.01,1.802 0.994,0.921 1.99,1.843 1.99,1.843 z"
                     id="path521"
                     inkscape:connector-curvature="0" /><path
                     style="fill:#c99561"
                     d="m 253.575,32.989 c -0.277,0.807 0.104,1.921 1.035,2.77 0,0 1.265,1.179 2.53,2.358 1.254,1.195 2.492,2.434 2.492,2.434 -0.153,0.307 -0.354,0.595 -0.606,0.851 0,0 -1.161,-1.179 -2.355,-2.317 -1.181,-1.142 -2.387,-2.247 -2.387,-2.247 -1.1,-1.019 -1.346,-2.58 -0.709,-3.849 z"
                     id="path523"
                     inkscape:connector-curvature="0" /></g><g
                   id="g525"><path
                     style="fill:#f7c99a"
                     d="m 254.245,32.407 c 0,0 1.212,1.085 2.424,2.17 1.199,1.116 2.398,2.231 2.398,2.231 0.969,0.915 1.308,2.717 0.409,4.021 0.365,-1.092 -0.923,-3.261 -2.319,-5.087 -1.401,-1.833 -2.912,-3.335 -2.912,-3.335 z"
                     id="path527"
                     inkscape:connector-curvature="0" /><path
                     style="fill:#f7c99a"
                     d="m 257.673,32.054 1.076,-0.061 0.119,0.108 c 0.991,0.889 1.375,2.676 0.518,4.001 0.268,-0.903 -0.592,-2.511 -1.713,-4.048 z"
                     id="path529"
                     inkscape:connector-curvature="0" /><path
                     style="fill:#f7c99a"
                     d="m 257.94,41.401 c -1.47,-2.286 -3.502,-4.409 -3.502,-4.409 0,0 1.151,1.086 2.303,2.172 1.151,1.099 2.272,2.237 2.272,2.237 l -1.073,0 z"
                     id="path531"
                     inkscape:connector-curvature="0" /></g><g
                   id="g533"><path
                     style="fill:#8e613f"
                     d="m 254.347,41.403 c -0.116,-0.114 -0.219,-0.235 -0.314,-0.36 l -0.061,-0.081 c -0.09,-0.126 -0.17,-0.256 -0.24,-0.39 l -0.037,-0.078 c -0.067,-0.139 -0.127,-0.281 -0.173,-0.426 l -0.003,-0.008 c -0.046,-0.152 -0.083,-0.307 -0.108,-0.463 L 253.4,39.532 c -0.022,-0.156 -0.034,-0.312 -0.033,-0.469 l 0.001,-0.038 c 0.006,-0.329 0.064,-0.657 0.173,-0.973 l 0.009,-0.026 c 0.055,-0.159 0.122,-0.315 0.203,-0.467 l 0.001,-0.002 c -0.299,0.798 0.054,1.918 0.958,2.79 l 0.109,0.106 c 0.04,0.361 0.1,0.683 0.159,0.948 l -0.633,0.002 z"
                     id="path535"
                     inkscape:connector-curvature="0" /><path
                     style="fill:#8e613f"
                     d="m 254.61,35.759 0.112,0.102 c 0.133,0.944 0.385,1.637 0.387,1.677 l -0.016,0.049 -0.809,-0.75 c -0.123,-0.114 -0.231,-0.236 -0.333,-0.362 l -0.063,-0.079 c -0.093,-0.123 -0.176,-0.251 -0.25,-0.384 l -0.04,-0.077 c -0.072,-0.138 -0.137,-0.278 -0.188,-0.423 l -0.003,-0.008 c -0.053,-0.151 -0.091,-0.305 -0.12,-0.461 l -0.012,-0.064 c -0.026,-0.155 -0.041,-0.312 -0.044,-0.469 l 0,-0.038 c 0,-0.329 0.044,-0.66 0.143,-0.98 l 0.008,-0.026 c 0.051,-0.161 0.115,-0.319 0.192,-0.473 l 10e-4,-0.002 c -0.276,0.807 0.105,1.92 1.035,2.768 z"
                     id="path537"
                     inkscape:connector-curvature="0" /><path
                     style="fill:#8e613f"
                     d="m 254.929,32.947 -0.013,0.041 -0.828,-0.732 0.614,-0.035 c 0.119,0.427 0.226,0.701 0.227,0.726 z"
                     id="path539"
                     inkscape:connector-curvature="0" /></g></g><g
                 id="g541"><path
                   style="fill:#e0af79"
                   d="m 253.982,50.454 c -1.159,-1.351 -1.039,-3.289 0.289,-4.5 -1.234,-1.301 -1.203,-3.283 0.075,-4.551 l 4.702,-0.002 c 1.278,1.303 1.237,3.457 -0.099,4.717 1.244,1.355 1.111,3.56 -0.301,4.767 l 0.005,0.006 -4.671,-0.437 z"
                   id="path543"
                   inkscape:connector-curvature="0" /><path
                   style="fill:#aa784f"
                   d="m 253.982,50.454 c -1.159,-1.351 -1.039,-3.289 0.289,-4.5 -1.234,-1.301 -1.203,-3.283 0.075,-4.551 l 0.625,0 c 0.108,0.42 0.184,0.712 0.189,0.734 -0.436,1.022 -0.455,2.139 -0.375,3.017 0.086,0.878 0.262,1.516 0.264,1.555 -0.637,1.355 -0.55,2.904 -0.437,3.804 l -0.63,-0.059 z"
                   id="path545"
                   inkscape:connector-curvature="0" /><g
                   id="g547"><path
                     style="fill:#c99561"
                     d="m 254.439,49.453 0.985,1.136 -1.441,-0.135 c -0.966,-1.123 -1.034,-2.638 -0.285,-3.822 -0.35,0.767 -0.089,1.885 0.741,2.821 z"
                     id="path549"
                     inkscape:connector-curvature="0" /><path
                     style="fill:#c99561"
                     d="m 259.581,45.291 c -0.161,0.303 -0.372,0.585 -0.637,0.833 0,0 -1.128,-1.229 -2.269,-2.404 -1.154,-1.181 -2.318,-2.317 -2.318,-2.317 l 1.449,0 c 0,0 0.951,0.957 1.902,1.915 0.948,0.968 1.873,1.973 1.873,1.973 z"
                     id="path551"
                     inkscape:connector-curvature="0" /><path
                     style="fill:#c99561"
                     d="m 253.807,42.102 c -0.329,0.785 -0.005,1.91 0.864,2.81 0,0 1.196,1.228 2.366,2.519 1.161,1.283 2.287,2.65 2.287,2.65 -0.18,0.299 -0.406,0.573 -0.68,0.808 0,0 -1.043,-1.304 -2.149,-2.528 -1.083,-1.23 -2.217,-2.403 -2.217,-2.403 -1.032,-1.08 -1.183,-2.631 -0.471,-3.856 z"
                     id="path553"
                     inkscape:connector-curvature="0" /></g><g
                   id="g555"><path
                     style="fill:#f7c99a"
                     d="m 254.507,41.561 c 0,0 1.148,1.152 2.296,2.303 1.132,1.169 2.247,2.391 2.247,2.391 0.902,0.985 1.111,2.846 0.091,4.096 0.469,-1.085 -0.649,-3.382 -1.929,-5.292 -1.276,-1.922 -2.705,-3.498 -2.705,-3.498 z"
                     id="path557"
                     inkscape:connector-curvature="0" /><path
                     style="fill:#f7c99a"
                     d="m 257.948,41.401 1.078,0 0.114,0.115 c 0.942,0.945 1.216,2.771 0.277,4.05 0.324,-0.893 -0.431,-2.567 -1.469,-4.165 z"
                     id="path559"
                     inkscape:connector-curvature="0" /><path
                     style="fill:#f7c99a"
                     d="m 257.561,50.789 c -1.248,-2.437 -3.141,-4.666 -3.141,-4.666 0,0 1.092,1.135 2.138,2.324 1.067,1.183 2.073,2.442 2.073,2.442 l -1.07,-0.1 z"
                     id="path561"
                     inkscape:connector-curvature="0" /></g><g
                   id="g563"><path
                     style="fill:#8e613f"
                     d="m 253.983,50.454 c -0.105,-0.122 -0.197,-0.25 -0.281,-0.38 l -0.054,-0.084 c -0.079,-0.131 -0.147,-0.265 -0.205,-0.401 l -0.031,-0.079 c -0.055,-0.141 -0.102,-0.284 -0.135,-0.43 l -0.002,-0.008 c -0.035,-0.152 -0.059,-0.307 -0.072,-0.462 l -0.006,-0.064 c -0.01,-0.154 -0.009,-0.308 0.004,-0.462 l 0.004,-0.037 c 0.03,-0.322 0.119,-0.636 0.244,-0.941 l 0.01,-0.025 c 0.066,-0.153 0.144,-0.302 0.235,-0.445 l 0.001,-0.002 c -0.348,0.768 -0.088,1.885 0.742,2.82 l 0.1,0.113 c 0.009,0.358 0.04,0.68 0.075,0.946 l -0.629,-0.059 z"
                     id="path565"
                     inkscape:connector-curvature="0" /><path
                     style="fill:#8e613f"
                     d="m 254.67,44.912 0.105,0.108 c 0.081,0.946 0.272,1.648 0.275,1.689 l -0.02,0.048 -0.753,-0.797 c -0.115,-0.121 -0.214,-0.249 -0.306,-0.38 l -0.059,-0.082 c -0.086,-0.128 -0.163,-0.26 -0.228,-0.396 l -0.035,-0.079 c -0.063,-0.141 -0.119,-0.284 -0.16,-0.43 l -0.003,-0.008 c -0.043,-0.152 -0.071,-0.307 -0.09,-0.463 l -0.008,-0.064 c -0.016,-0.155 -0.019,-0.31 -0.015,-0.467 l 0.002,-0.038 c 0.015,-0.327 0.081,-0.651 0.199,-0.963 l 0.01,-0.026 c 0.061,-0.157 0.134,-0.31 0.221,-0.458 l 0.001,-0.002 c -0.328,0.785 -0.004,1.909 0.864,2.808 z"
                     id="path567"
                     inkscape:connector-curvature="0" /><path
                     style="fill:#8e613f"
                     d="m 255.16,42.137 -0.015,0.04 -0.788,-0.775 0.615,0 c 0.108,0.421 0.183,0.713 0.188,0.735 z"
                     id="path569"
                     inkscape:connector-curvature="0" /></g></g><g
                 id="g571"><path
                   style="fill:#e0af79"
                   d="m 252.215,58.517 c -0.363,-0.699 -0.444,-1.301 -0.249,-1.968 0.203,-0.636 0.668,-1.286 1.421,-1.736 -1.021,-1.397 -0.798,-3.234 0.596,-4.359 l 4.681,0.438 c 1.145,1.434 0.861,3.704 -0.684,4.817 0.49,0.805 0.613,1.801 0.312,2.768 -0.271,0.948 -1.017,1.892 -1.985,2.325 l 10e-4,0.009 -4.093,-2.294 z"
                   id="path573"
                   inkscape:connector-curvature="0" /><path
                   style="fill:#aa784f"
                   d="m 252.215,58.517 c -0.363,-0.699 -0.444,-1.301 -0.249,-1.968 0.203,-0.636 0.668,-1.286 1.421,-1.736 -1.021,-1.397 -0.798,-3.234 0.596,-4.359 l 0.622,0.058 c 0.066,0.422 0.113,0.716 0.116,0.738 -1.047,1.903 -0.639,4.322 -0.688,4.4 -0.847,1.165 -1.087,2.505 -1.265,3.177 l -0.553,-0.31 z"
                   id="path575"
                   inkscape:connector-curvature="0" /><g
                   id="g577"><path
                     style="fill:#c99561"
                     d="m 252.887,57.951 c 0,0 0.175,0.313 0.314,0.616 0.146,0.311 0.277,0.658 0.277,0.658 l -1.262,-0.707 c -0.595,-1.068 -0.427,-2.218 0.5,-3.181 -0.466,0.645 -0.389,1.605 0.171,2.614 z"
                     id="path579"
                     inkscape:connector-curvature="0" /><path
                     style="fill:#c99561"
                     d="m 258.733,54.942 c -0.21,0.294 -0.463,0.557 -0.759,0.772 0,0 -0.904,-1.446 -1.918,-2.739 -1.003,-1.309 -2.062,-2.52 -2.062,-2.52 l 1.443,0.135 c 0,0 0.859,1.016 1.7,2.101 0.404,0.555 0.809,1.11 1.112,1.526 0.302,0.426 0.484,0.725 0.484,0.725 z"
                     id="path581"
                     inkscape:connector-curvature="0" /><path
                     style="fill:#c99561"
                     d="m 253.377,51.081 c -0.396,0.731 -0.203,1.824 0.548,2.806 0,0 1.038,1.32 1.931,2.831 0.426,0.755 0.861,1.559 1.092,2.223 0.244,0.662 0.385,1.144 0.385,1.144 -0.317,0.307 -0.667,0.555 -1.034,0.719 0,0 -0.08,-0.485 -0.252,-1.133 -0.204,-0.647 -0.516,-1.427 -0.921,-2.151 -0.385,-0.724 -0.821,-1.396 -1.164,-1.894 -0.332,-0.49 -0.571,-0.807 -0.571,-0.807 -0.866,-1.174 -0.832,-2.614 -0.014,-3.738 z"
                     id="path583"
                     inkscape:connector-curvature="0" /></g><g
                   id="g585"><path
                     style="fill:#f7c99a"
                     d="m 254.128,50.625 c 0,0 1.05,1.206 2.036,2.509 0.496,0.65 0.981,1.324 1.32,1.847 0.345,0.531 0.575,0.885 0.575,0.885 0.341,0.594 0.516,1.383 0.344,2.224 -0.144,0.823 -0.604,1.689 -1.375,2.263 0.478,-0.569 0.612,-1.59 0.461,-2.674 -0.143,-1.091 -0.57,-2.254 -1.067,-3.301 -1.01,-2.096 -2.294,-3.753 -2.294,-3.753 z"
                     id="path587"
                     inkscape:connector-curvature="0" /><path
                     style="fill:#f7c99a"
                     d="m 257.568,50.789 1.073,0.1 0.103,0.127 c 0.844,1.042 0.928,2.978 -0.219,4.188 0.481,-0.893 -0.082,-2.714 -0.957,-4.415 z"
                     id="path589"
                     inkscape:connector-curvature="0" /><path
                     style="fill:#f7c99a"
                     d="m 255.35,60.274 c 0.001,-1.519 -0.582,-2.811 -0.998,-3.747 -0.47,-0.948 -0.842,-1.53 -0.842,-1.53 0,0 0.218,0.313 0.544,0.782 0.334,0.485 0.74,1.134 1.115,1.839 0.378,0.702 0.689,1.46 0.876,2.086 0.165,0.627 0.242,1.094 0.242,1.094 l -0.937,-0.524 z"
                     id="path591"
                     inkscape:connector-curvature="0" /></g><g
                   id="g593"><path
                     style="fill:#8e613f"
                     d="m 252.216,58.518 c -0.066,-0.131 -0.119,-0.256 -0.166,-0.375 l -0.03,-0.076 c -0.042,-0.116 -0.076,-0.226 -0.098,-0.33 l -0.013,-0.07 c -0.025,-0.128 -0.043,-0.252 -0.046,-0.372 l -0.001,-0.007 c -0.003,-0.125 0.008,-0.245 0.029,-0.362 l 0.009,-0.048 c 0.019,-0.127 0.045,-0.259 0.085,-0.382 l 0.011,-0.03 c 0.085,-0.264 0.234,-0.493 0.401,-0.75 l 0.014,-0.02 c 0.089,-0.124 0.189,-0.242 0.303,-0.355 l 0.002,-0.002 c -0.464,0.645 -0.387,1.604 0.173,2.612 l 0.069,0.127 c -0.081,0.288 -0.15,0.525 -0.188,0.749 l -0.554,-0.309 z"
                     id="path595"
                     inkscape:connector-curvature="0" /><path
                     style="fill:#8e613f"
                     d="m 253.925,53.887 0.088,0.117 c -0.051,0.914 0.035,1.611 0.02,1.646 l -0.028,0.041 c 0,0 -0.151,-0.219 -0.303,-0.439 -0.156,-0.216 -0.312,-0.433 -0.312,-0.433 -0.098,-0.132 -0.18,-0.269 -0.254,-0.406 l -0.046,-0.086 c -0.067,-0.133 -0.124,-0.266 -0.169,-0.401 l -0.024,-0.078 c -0.043,-0.14 -0.075,-0.277 -0.102,-0.423 l -0.002,-0.008 c -0.026,-0.15 -0.037,-0.301 -0.039,-0.451 l -0.001,-0.062 c 0.001,-0.149 0.014,-0.297 0.038,-0.443 l 0.007,-0.035 c 0.06,-0.303 0.151,-0.612 0.3,-0.899 l 0.012,-0.024 c 0.076,-0.144 0.163,-0.285 0.264,-0.419 l 0.002,-0.002 c -0.395,0.732 -0.202,1.824 0.549,2.805 z"
                     id="path597"
                     inkscape:connector-curvature="0" /><path
                     style="fill:#8e613f"
                     d="m 254.721,51.25 -0.019,0.038 -0.708,-0.833 0.612,0.057 c 0.065,0.423 0.111,0.716 0.115,0.738 z"
                     id="path599"
                     inkscape:connector-curvature="0" /></g></g><g
                 id="g601"><path
                   style="fill:#f7c99a"
                   d="m 252.234,58.528 c 0.005,0.031 0.318,0.505 0.876,1.232 0.575,0.661 1.341,1.662 3.195,1.049 l -4.071,-2.281 z"
                   id="path603"
                   inkscape:connector-curvature="0" /><path
                   style="fill:#c99561"
                   d="m 252.234,58.528 1.262,0.707 c 0,0 0.059,0.144 0.165,0.404 0.107,0.251 0.267,0.62 0.482,1.066 -0.688,-0.41 -1.103,-1.045 -1.423,-1.466 -0.31,-0.43 -0.484,-0.691 -0.486,-0.711 z"
                   id="path605"
                   inkscape:connector-curvature="0" /><path
                   style="fill:#8e613f"
                   d="m 253.468,60.163 c -0.405,-0.425 -0.698,-0.861 -0.91,-1.152 -0.208,-0.286 -0.323,-0.471 -0.324,-0.483 l 0.517,0.29 c 0,0 0.068,0.147 0.187,0.366 0.127,0.233 0.31,0.568 0.539,0.986 l -0.009,-0.007 z"
                   id="path607"
                   inkscape:connector-curvature="0" /></g></g></g><g
             id="g609"
             transform="translate(0,-13.321602)"><g
               style="opacity:0.4"
               id="g611"><circle
                 cx="27.049999"
                 cy="14.795"
                 r="4.4130001"
                 id="circle613" /></g><g
               style="opacity:0.4"
               id="g615"><circle
                 cx="26.541"
                 cy="58.188"
                 r="4.4130001"
                 id="circle617" /></g><path
               style="opacity:0.2"
               d="m 29.831,54.772 c -0.875,-1.017 0.405,-2.753 -0.598,-4.287 0.005,0.011 0.005,0.026 0.01,0.037 -0.753,-1.168 0.617,-2.829 -0.294,-4.486 0.005,0.013 0.004,0.029 0.009,0.042 -0.667,-1.209 0.74,-2.882 -0.105,-4.571 0.004,0.012 0.003,0.027 0.007,0.04 -0.651,-1.303 0.916,-2.83 0.038,-4.586 0.004,0.013 0.002,0.029 0.006,0.041 -0.607,-1.315 0.95,-2.838 0.153,-4.608 0.004,0.013 0.001,0.029 0.005,0.042 -0.57,-1.317 1.001,-2.815 0.255,-4.593 0.002,0.013 0.004,0.025 0.004,0.038 -0.555,-1.369 1.089,-2.779 0.368,-4.582 0.003,0.012 0,0.027 0.003,0.04 -0.499,-1.322 1.128,-2.731 0.497,-4.52 0.003,0.013 -0.001,0.027 0.001,0.04 -0.448,-1.316 0.867,-1.838 0.842,-3.437 -0.005,-0.276 -0.047,-0.582 -0.129,-0.851 0.002,0.01 -0.003,0.023 -10e-4,0.033 -0.303,-1.042 -1.422,-2.137 -2.391,-2.501 0.001,10e-4 0.086,0.002 0.087,0.003 C 25.68,11.097 24,19.988 25,21.4 c 0,-10e-4 0,-0.002 0,-0.002 1,1.651 -2,2.664 -1,4.7 0,-10e-4 0,-0.003 0,-0.005 1,1.592 -1,2.723 0,4.712 0,-0.002 0,-0.004 0,-0.006 0,0.198 0.327,0.468 0.415,0.599 0.299,0.019 0.625,0.038 0.924,0.057 -1.707,0.279 -2.802,1.661 -1.435,4.052 -0.001,-0.003 0.087,-0.007 0.087,-0.01 0.805,1.563 -0.991,2.8 0.009,4.736 0,-0.002 0,-0.004 0,-0.006 1,1.572 -1.276,2.821 -0.028,4.742 -0.001,-0.003 -0.109,-0.008 -0.11,-0.011 C 24.76,46.48 23,47.899 24,49.755 c 0,-0.001 0,-0.002 0,-0.003 2,2.293 -0.531,7.93 1.937,10.005 -0.003,-0.004 0.03,-0.009 0.027,-0.013 0.186,0.171 0.428,0.37 0.588,0.47 1.069,0.411 1.448,0.167 2.448,-0.643 0,0.001 0,0.001 0,0.001 1,-1.292 2.057,-3.32 0.747,-4.832 0.005,0.01 0.079,0.022 0.084,0.032 z m -1.473,-32.348 0.374,0.047 -0.268,-0.034 -0.106,-0.013 z"
               id="path619"
               inkscape:connector-curvature="0" /><g
               id="g621"><g
                 id="g623"><path
                   style="fill:#f7c99a"
                   d="m 29.133,13.454 c 0,0 -0.101,-0.138 -0.293,-0.346 -0.192,-0.196 -0.47,-0.426 -0.819,-0.713 -0.685,-0.541 -1.703,-1.277 -3.329,-0.371 l 4.441,1.43 z"
                   id="path625"
                   inkscape:connector-curvature="0" /><path
                   style="fill:#c99561"
                   d="M 29.133,13.454 27.756,13.01 c 0,0 -0.083,-0.146 -0.251,-0.38 -0.165,-0.22 -0.402,-0.537 -0.697,-0.932 0.763,0.252 1.301,0.781 1.704,1.111 0.198,0.161 0.355,0.319 0.46,0.448 0.103,0.126 0.161,0.197 0.161,0.197 z"
                   id="path627"
                   inkscape:connector-curvature="0" /><path
                   style="fill:#8e613f"
                   d="m 27.585,12.081 c 0.486,0.326 0.866,0.681 1.135,0.909 0.269,0.264 0.413,0.465 0.413,0.465 l -0.564,-0.182 c 0,0 -0.086,-0.136 -0.258,-0.357 -0.171,-0.208 -0.418,-0.476 -0.736,-0.838 l 0.01,0.003 z"
                   id="path629"
                   inkscape:connector-curvature="0" /></g><g
                 id="g631"><path
                   style="fill:#e0af79"
                   d="m 27.678,22.138 c 1.415,-1.117 1.667,-3.07 0.592,-4.496 1.461,-1.043 1.803,-2.882 0.884,-4.181 l -4.475,-1.442 c -1.706,1.152 -2.098,3.392 -1.03,4.879 -1.483,1.11 -1.764,3.273 -0.627,4.711 l -0.006,0.005 4.662,0.524 z"
                   id="path633"
                   inkscape:connector-curvature="0" /><path
                   style="fill:#aa784f"
                   d="m 27.678,22.138 c 1.415,-1.117 1.667,-3.07 0.592,-4.496 1.461,-1.043 1.803,-2.882 0.884,-4.181 L 28.56,13.269 c -0.207,0.307 -0.355,0.559 -0.363,0.576 0.174,1.02 -0.023,2.088 -0.275,2.923 -0.251,0.833 -0.555,1.425 -0.559,1.463 0.369,1.445 -0.017,2.968 -0.314,3.836 l 0.629,0.071 z"
                   id="path635"
                   inkscape:connector-curvature="0" /><g
                   id="g637"><path
                     style="fill:#c99561"
                     d="m 27.433,21.051 -1.194,0.925 1.438,0.162 c 1.178,-0.922 1.538,-2.432 1.027,-3.724 0.203,0.813 -0.275,1.873 -1.271,2.637 z"
                     id="path639"
                     inkscape:connector-curvature="0" /><path
                     style="fill:#c99561"
                     d="m 23.194,15.951 c 0.101,0.335 0.252,0.658 0.46,0.954 0,0 1.341,-1.01 2.71,-1.916 0.694,-0.451 1.381,-0.875 1.91,-1.141 0.519,-0.291 0.871,-0.39 0.871,-0.39 l -1.379,-0.444 c 0,0 -0.302,0.122 -0.734,0.373 -0.437,0.243 -1.02,0.6 -1.586,0.979 -1.142,0.756 -2.252,1.585 -2.252,1.585 z"
                     id="path641"
                     inkscape:connector-curvature="0" /><path
                     style="fill:#c99561"
                     d="m 29.512,14.166 c 0.133,0.716 -0.394,1.701 -1.433,2.39 0,0 -1.414,0.953 -2.802,2.003 -1.388,1.041 -2.756,2.141 -2.756,2.141 0.117,0.323 0.284,0.633 0.506,0.915 0,0 1.288,-1.045 2.602,-2.04 1.306,-1.001 2.635,-1.929 2.635,-1.929 1.222,-0.855 1.662,-2.286 1.248,-3.48 z"
                     id="path643"
                     inkscape:connector-curvature="0" /></g><g
                   id="g645"><path
                     style="fill:#f7c99a"
                     d="m 28.963,13.534 c 0,0 -0.087,0.034 -0.24,0.095 -0.151,0.078 -0.366,0.189 -0.625,0.322 -0.526,0.271 -1.204,0.704 -1.89,1.153 -1.36,0.906 -2.687,1.911 -2.687,1.911 -1.073,0.802 -1.629,2.587 -0.877,3.981 -0.239,-1.122 1.279,-3.169 2.915,-4.803 0.818,-0.82 1.668,-1.527 2.315,-1.992 0.328,-0.227 0.599,-0.398 0.787,-0.514 0.192,-0.111 0.302,-0.153 0.302,-0.153 z"
                     id="path647"
                     inkscape:connector-curvature="0" /><path
                     style="fill:#f7c99a"
                     d="m 25.726,12.356 -1.026,-0.33 -0.15,0.097 c -1.247,0.821 -1.924,2.687 -1.248,4.135 -0.135,-0.948 0.909,-2.508 2.424,-3.902 z"
                     id="path649"
                     inkscape:connector-curvature="0" /><path
                     style="fill:#f7c99a"
                     d="m 24.107,21.736 c 0.861,-1.052 1.855,-2.054 2.635,-2.78 0.788,-0.724 1.35,-1.179 1.35,-1.179 0,0 -1.284,0.9 -2.54,1.869 -1.267,0.961 -2.511,1.97 -2.511,1.97 l 1.066,0.12 z"
                     id="path651"
                     inkscape:connector-curvature="0" /></g><g
                   id="g653"><path
                     style="fill:#8e613f"
                     d="m 27.677,22.138 c 0.128,-0.1 0.244,-0.209 0.352,-0.321 l 0.07,-0.073 c 0.104,-0.115 0.198,-0.234 0.282,-0.359 l 0.046,-0.073 c 0.083,-0.13 0.158,-0.264 0.22,-0.403 l 0.004,-0.008 c 0.063,-0.145 0.116,-0.293 0.159,-0.444 l 0.018,-0.062 c 0.04,-0.151 0.069,-0.303 0.085,-0.458 L 28.916,19.9 c 0.031,-0.324 0.009,-0.654 -0.057,-0.974 L 28.854,18.9 c -0.036,-0.162 -0.085,-0.323 -0.148,-0.48 l -0.001,-0.002 c 0.201,0.812 -0.277,1.872 -1.272,2.635 l -0.121,0.093 c -0.081,0.353 -0.177,0.667 -0.265,0.923 l 0.63,0.069 z"
                     id="path655"
                     inkscape:connector-curvature="0" /><path
                     style="fill:#8e613f"
                     d="m 28.08,16.556 -0.123,0.084 c -0.256,0.899 -0.59,1.55 -0.594,1.591 l 0.011,0.05 0.891,-0.634 c 0.137,-0.094 0.261,-0.199 0.377,-0.308 l 0.073,-0.068 c 0.108,-0.107 0.208,-0.219 0.297,-0.337 l 0.049,-0.069 c 0.087,-0.124 0.17,-0.249 0.241,-0.377 l 0.004,-0.007 c 0.073,-0.134 0.132,-0.274 0.182,-0.416 l 0.021,-0.059 c 0.047,-0.141 0.081,-0.29 0.108,-0.432 l 0.006,-0.034 c 0.053,-0.295 0.053,-0.607 0.005,-0.908 l -0.003,-0.024 c -0.023,-0.145 -0.06,-0.292 -0.11,-0.439 l -0.001,-0.002 c 0.131,0.717 -0.397,1.701 -1.434,2.389 z"
                     id="path657"
                     inkscape:connector-curvature="0" /><path
                     style="fill:#8e613f"
                     d="m 28.197,13.845 0.005,0.04 c 0,0 0.235,-0.121 0.469,-0.242 0.236,-0.093 0.473,-0.185 0.473,-0.185 l -0.585,-0.189 c -0.207,0.307 -0.355,0.559 -0.362,0.576 z"
                     id="path659"
                     inkscape:connector-curvature="0" /></g></g><g
                 id="g661"><path
                   style="fill:#e0af79"
                   d="m 26.922,31.257 c 1.355,-1.196 1.484,-3.203 0.313,-4.57 1.377,-1.16 1.58,-3.15 0.443,-4.549 l -4.672,-0.525 c -1.407,1.158 -1.616,3.283 -0.435,4.679 -1.398,1.191 -1.538,3.325 -0.327,4.696 l -0.006,0.006 4.684,0.263 z"
                   id="path663"
                   inkscape:connector-curvature="0" /><path
                   style="fill:#aa784f"
                   d="m 26.922,31.257 c 1.355,-1.196 1.484,-3.203 0.313,-4.57 1.377,-1.16 1.58,-3.15 0.443,-4.549 l -0.621,-0.07 c -0.144,0.417 -0.264,0.685 -0.267,0.709 0.316,1.064 0.214,2.181 0.028,3.049 -0.18,0.868 -0.447,1.484 -0.451,1.523 0.475,1.433 0.168,2.986 -0.078,3.872 l 0.633,0.036 z"
                   id="path665"
                   inkscape:connector-curvature="0" /><g
                   id="g667"><path
                     style="fill:#c99561"
                     d="m 26.617,30.18 -1.14,0.995 1.445,0.081 c 1.122,-0.992 1.403,-2.539 0.797,-3.819 0.265,0.814 -0.156,1.918 -1.102,2.743 z"
                     id="path669"
                     inkscape:connector-curvature="0" /><path
                     style="fill:#c99561"
                     d="m 22.039,25.403 c 0.128,0.318 0.306,0.62 0.537,0.895 0,0 1.266,-1.058 2.533,-2.117 1.273,-1.044 2.559,-2.045 2.559,-2.045 l -1.44,-0.162 c 0,0 -1.052,0.845 -2.104,1.69 -1.043,0.87 -2.085,1.739 -2.085,1.739 z"
                     id="path671"
                     inkscape:connector-curvature="0" /><path
                     style="fill:#c99561"
                     d="m 28.139,22.894 c 0.233,0.816 -0.204,1.906 -1.18,2.705 0,0 -1.323,1.112 -2.646,2.223 -1.31,1.146 -2.62,2.293 -2.62,2.293 0.135,0.314 0.318,0.611 0.557,0.88 0,0 1.239,-1.091 2.477,-2.182 1.245,-1.077 2.503,-2.12 2.503,-2.12 1.153,-0.962 1.476,-2.504 0.909,-3.799 z"
                     id="path673"
                     inkscape:connector-curvature="0" /></g><g
                   id="g675"><path
                     style="fill:#f7c99a"
                     d="m 27.501,22.277 c 0,0 -1.277,0.995 -2.536,2.033 -1.256,1.052 -2.511,2.104 -2.511,2.104 -1.017,0.864 -1.442,2.641 -0.621,3.986 -0.297,-1.104 1.092,-3.199 2.585,-4.951 1.495,-1.759 3.083,-3.172 3.083,-3.172 z"
                     id="path677"
                     inkscape:connector-curvature="0" /><path
                     style="fill:#f7c99a"
                     d="m 24.099,21.736 -1.071,-0.12 -0.126,0.101 c -1.037,0.837 -1.519,2.609 -0.729,3.976 -0.223,-0.915 0.723,-2.482 1.926,-3.957 z"
                     id="path679"
                     inkscape:connector-curvature="0" /><path
                     style="fill:#f7c99a"
                     d="m 23.334,31.055 c 1.601,-2.196 3.733,-4.216 3.733,-4.216 0,0 -1.207,1.024 -2.414,2.049 -1.195,1.053 -2.39,2.107 -2.39,2.107 l 1.071,0.06 z"
                     id="path681"
                     inkscape:connector-curvature="0" /></g><g
                   id="g683"><path
                     style="fill:#8e613f"
                     d="m 26.922,31.257 c 0.121,-0.108 0.231,-0.223 0.333,-0.343 l 0.066,-0.077 c 0.097,-0.121 0.185,-0.247 0.262,-0.377 l 0.042,-0.076 c 0.075,-0.136 0.143,-0.275 0.197,-0.418 l 0.003,-0.008 c 0.056,-0.15 0.098,-0.303 0.13,-0.458 l 0.014,-0.064 c 0.029,-0.155 0.051,-0.311 0.058,-0.468 L 28.028,28.93 C 28.04,28.601 28.001,28.269 27.909,27.947 L 27.902,27.92 C 27.855,27.758 27.794,27.598 27.721,27.442 L 27.72,27.44 c 0.264,0.814 -0.157,1.916 -1.102,2.741 l -0.115,0.1 c -0.061,0.359 -0.14,0.679 -0.213,0.941 l 0.632,0.035 z"
                     id="path685"
                     inkscape:connector-curvature="0" /><path
                     style="fill:#8e613f"
                     d="m 26.959,25.598 -0.116,0.096 c -0.179,0.936 -0.472,1.614 -0.475,1.655 l 0.014,0.05 0.848,-0.706 c 0.129,-0.107 0.244,-0.224 0.352,-0.345 l 0.067,-0.076 c 0.1,-0.118 0.19,-0.242 0.27,-0.37 l 0.043,-0.075 c 0.077,-0.134 0.151,-0.27 0.209,-0.412 l 0.004,-0.008 c 0.061,-0.148 0.107,-0.299 0.145,-0.453 l 0.016,-0.064 c 0.034,-0.153 0.058,-0.309 0.069,-0.465 l 0.002,-0.038 c 0.017,-0.329 -0.01,-0.659 -0.091,-0.982 l -0.007,-0.027 c -0.042,-0.163 -0.097,-0.323 -0.166,-0.481 l -0.001,-0.002 c 0.23,0.817 -0.208,1.906 -1.183,2.703 z"
                     id="path687"
                     inkscape:connector-curvature="0" /><path
                     style="fill:#8e613f"
                     d="m 26.79,22.777 0.01,0.042 0.867,-0.683 -0.611,-0.069 c -0.143,0.418 -0.263,0.686 -0.266,0.71 z"
                     id="path689"
                     inkscape:connector-curvature="0" /></g></g><g
                 id="g691"><path
                   style="fill:#e0af79"
                   d="m 26.654,40.403 c 1.283,-1.264 1.308,-3.265 0.067,-4.571 1.317,-1.227 1.414,-3.235 0.201,-4.575 l -4.694,-0.264 c -1.34,1.228 -1.436,3.352 -0.185,4.687 -1.334,1.26 -1.364,3.409 -0.075,4.716 l -0.005,0.006 4.691,10e-4 z"
                   id="path693"
                   inkscape:connector-curvature="0" /><path
                   style="fill:#aa784f"
                   d="m 26.654,40.403 c 1.283,-1.264 1.308,-3.265 0.067,-4.571 1.317,-1.227 1.414,-3.235 0.201,-4.575 l -0.624,-0.035 c -0.119,0.426 -0.226,0.7 -0.228,0.725 0.372,1.048 0.331,2.171 0.188,3.048 -0.134,0.876 -0.367,1.505 -0.368,1.544 0.546,1.405 0.323,2.968 0.13,3.865 l 0.634,-0.001 z"
                   id="path695"
                   inkscape:connector-curvature="0" /><g
                   id="g697"><path
                     style="fill:#c99561"
                     d="m 26.287,39.348 -1.081,1.054 1.447,0 c 1.063,-1.048 1.261,-2.6 0.592,-3.847 0.3,0.799 -0.053,1.92 -0.958,2.793 z"
                     id="path699"
                     inkscape:connector-curvature="0" /><path
                     style="fill:#c99561"
                     d="m 21.464,34.82 c 0.144,0.31 0.338,0.604 0.584,0.866 0,0 1.201,-1.141 2.418,-2.246 1.223,-1.092 2.445,-2.184 2.445,-2.184 l -1.447,-0.081 c 0,0 -1.005,0.901 -2.01,1.802 -0.994,0.921 -1.99,1.843 -1.99,1.843 z"
                     id="path701"
                     inkscape:connector-curvature="0" /><path
                     style="fill:#c99561"
                     d="m 27.425,31.989 c 0.277,0.807 -0.104,1.921 -1.035,2.77 0,0 -1.265,1.179 -2.53,2.358 -1.254,1.195 -2.492,2.434 -2.492,2.434 0.153,0.307 0.354,0.595 0.606,0.851 0,0 1.161,-1.179 2.355,-2.317 1.181,-1.142 2.387,-2.247 2.387,-2.247 1.1,-1.019 1.346,-2.58 0.709,-3.849 z"
                     id="path703"
                     inkscape:connector-curvature="0" /></g><g
                   id="g705"><path
                     style="fill:#f7c99a"
                     d="m 26.755,31.407 c 0,0 -1.212,1.085 -2.424,2.17 -1.199,1.116 -2.398,2.231 -2.398,2.231 -0.969,0.915 -1.308,2.717 -0.409,4.021 -0.365,-1.092 0.923,-3.261 2.319,-5.087 1.401,-1.833 2.912,-3.335 2.912,-3.335 z"
                     id="path707"
                     inkscape:connector-curvature="0" /><path
                     style="fill:#f7c99a"
                     d="m 23.327,31.054 -1.076,-0.061 -0.119,0.108 c -0.991,0.889 -1.375,2.676 -0.518,4.001 -0.268,-0.903 0.592,-2.511 1.713,-4.048 z"
                     id="path709"
                     inkscape:connector-curvature="0" /><path
                     style="fill:#f7c99a"
                     d="m 23.06,40.401 c 1.47,-2.286 3.502,-4.409 3.502,-4.409 0,0 -1.151,1.086 -2.303,2.172 -1.151,1.099 -2.272,2.237 -2.272,2.237 l 1.073,0 z"
                     id="path711"
                     inkscape:connector-curvature="0" /></g><g
                   id="g713"><path
                     style="fill:#8e613f"
                     d="m 26.653,40.403 c 0.116,-0.114 0.219,-0.235 0.314,-0.36 l 0.061,-0.081 c 0.09,-0.126 0.17,-0.256 0.24,-0.39 l 0.037,-0.078 c 0.067,-0.139 0.127,-0.281 0.173,-0.426 l 0.003,-0.008 c 0.046,-0.152 0.083,-0.307 0.108,-0.463 L 27.6,38.532 c 0.022,-0.156 0.034,-0.312 0.033,-0.469 L 27.632,38.025 C 27.626,37.696 27.568,37.368 27.459,37.052 L 27.45,37.026 c -0.055,-0.159 -0.122,-0.315 -0.203,-0.467 l -0.001,-0.002 c 0.299,0.798 -0.054,1.918 -0.958,2.79 l -0.109,0.106 c -0.04,0.361 -0.1,0.683 -0.159,0.948 l 0.633,0.002 z"
                     id="path715"
                     inkscape:connector-curvature="0" /><path
                     style="fill:#8e613f"
                     d="m 26.39,34.759 -0.112,0.102 c -0.133,0.944 -0.385,1.637 -0.387,1.677 l 0.016,0.049 0.809,-0.75 c 0.123,-0.114 0.231,-0.236 0.333,-0.362 l 0.063,-0.079 c 0.093,-0.123 0.176,-0.251 0.25,-0.384 l 0.04,-0.077 c 0.072,-0.138 0.137,-0.278 0.188,-0.423 l 0.003,-0.008 c 0.053,-0.151 0.091,-0.305 0.12,-0.461 l 0.012,-0.064 c 0.026,-0.155 0.041,-0.312 0.044,-0.469 l 0,-0.038 c 0,-0.329 -0.044,-0.66 -0.143,-0.98 l -0.008,-0.026 c -0.051,-0.161 -0.115,-0.319 -0.192,-0.473 l -10e-4,-0.002 c 0.276,0.807 -0.105,1.92 -1.035,2.768 z"
                     id="path717"
                     inkscape:connector-curvature="0" /><path
                     style="fill:#8e613f"
                     d="m 26.071,31.947 0.013,0.041 0.828,-0.732 -0.614,-0.035 c -0.119,0.427 -0.226,0.701 -0.227,0.726 z"
                     id="path719"
                     inkscape:connector-curvature="0" /></g></g><g
                 id="g721"><path
                   style="fill:#e0af79"
                   d="m 27.018,49.454 c 1.159,-1.351 1.039,-3.289 -0.289,-4.5 1.234,-1.301 1.203,-3.283 -0.075,-4.551 l -4.702,-0.002 c -1.278,1.303 -1.237,3.457 0.099,4.717 -1.244,1.355 -1.111,3.56 0.301,4.767 l -0.005,0.006 4.671,-0.437 z"
                   id="path723"
                   inkscape:connector-curvature="0" /><path
                   style="fill:#aa784f"
                   d="m 27.018,49.454 c 1.159,-1.351 1.039,-3.289 -0.289,-4.5 1.234,-1.301 1.203,-3.283 -0.075,-4.551 l -0.625,0 c -0.108,0.42 -0.184,0.712 -0.189,0.734 0.436,1.022 0.455,2.139 0.375,3.017 -0.086,0.878 -0.262,1.516 -0.264,1.555 0.637,1.355 0.55,2.904 0.437,3.804 l 0.63,-0.059 z"
                   id="path725"
                   inkscape:connector-curvature="0" /><g
                   id="g727"><path
                     style="fill:#c99561"
                     d="m 26.561,48.453 -0.985,1.136 1.441,-0.135 c 0.966,-1.123 1.034,-2.638 0.285,-3.822 0.35,0.767 0.089,1.885 -0.741,2.821 z"
                     id="path729"
                     inkscape:connector-curvature="0" /><path
                     style="fill:#c99561"
                     d="m 21.419,44.291 c 0.161,0.303 0.372,0.585 0.637,0.833 0,0 1.128,-1.229 2.269,-2.404 1.154,-1.181 2.318,-2.317 2.318,-2.317 l -1.449,0 c 0,0 -0.951,0.957 -1.902,1.915 -0.948,0.968 -1.873,1.973 -1.873,1.973 z"
                     id="path731"
                     inkscape:connector-curvature="0" /><path
                     style="fill:#c99561"
                     d="m 27.193,41.102 c 0.329,0.785 0.005,1.91 -0.864,2.81 0,0 -1.196,1.228 -2.366,2.519 -1.161,1.283 -2.287,2.65 -2.287,2.65 0.18,0.299 0.406,0.573 0.68,0.808 0,0 1.043,-1.304 2.149,-2.528 1.083,-1.23 2.217,-2.403 2.217,-2.403 1.032,-1.08 1.183,-2.631 0.471,-3.856 z"
                     id="path733"
                     inkscape:connector-curvature="0" /></g><g
                   id="g735"><path
                     style="fill:#f7c99a"
                     d="m 26.493,40.561 c 0,0 -1.148,1.152 -2.296,2.303 -1.132,1.169 -2.247,2.391 -2.247,2.391 -0.902,0.985 -1.111,2.846 -0.091,4.096 -0.469,-1.085 0.649,-3.382 1.929,-5.292 1.276,-1.922 2.705,-3.498 2.705,-3.498 z"
                     id="path737"
                     inkscape:connector-curvature="0" /><path
                     style="fill:#f7c99a"
                     d="m 23.052,40.401 -1.078,0 -0.114,0.115 c -0.942,0.945 -1.216,2.771 -0.277,4.05 -0.324,-0.893 0.431,-2.567 1.469,-4.165 z"
                     id="path739"
                     inkscape:connector-curvature="0" /><path
                     style="fill:#f7c99a"
                     d="m 23.439,49.789 c 1.248,-2.437 3.141,-4.666 3.141,-4.666 0,0 -1.092,1.135 -2.138,2.324 -1.067,1.183 -2.073,2.442 -2.073,2.442 l 1.07,-0.1 z"
                     id="path741"
                     inkscape:connector-curvature="0" /></g><g
                   id="g743"><path
                     style="fill:#8e613f"
                     d="m 27.017,49.454 c 0.105,-0.122 0.197,-0.25 0.281,-0.38 l 0.054,-0.084 c 0.079,-0.131 0.147,-0.265 0.205,-0.401 l 0.031,-0.079 c 0.055,-0.141 0.102,-0.284 0.135,-0.43 l 0.002,-0.008 c 0.035,-0.152 0.059,-0.307 0.072,-0.462 l 0.006,-0.064 c 0.01,-0.154 0.009,-0.308 -0.004,-0.462 l -0.004,-0.037 c -0.03,-0.322 -0.119,-0.636 -0.244,-0.941 l -0.01,-0.025 c -0.066,-0.153 -0.144,-0.302 -0.235,-0.445 l -0.001,-0.002 c 0.348,0.768 0.088,1.885 -0.742,2.82 l -0.1,0.113 c -0.009,0.358 -0.04,0.68 -0.075,0.946 l 0.629,-0.059 z"
                     id="path745"
                     inkscape:connector-curvature="0" /><path
                     style="fill:#8e613f"
                     d="m 26.33,43.912 -0.105,0.108 c -0.081,0.946 -0.272,1.648 -0.275,1.689 l 0.02,0.048 0.753,-0.797 c 0.115,-0.121 0.214,-0.249 0.306,-0.38 l 0.059,-0.082 c 0.086,-0.128 0.163,-0.26 0.228,-0.396 l 0.035,-0.079 c 0.063,-0.141 0.119,-0.284 0.16,-0.43 l 0.003,-0.008 c 0.043,-0.152 0.071,-0.307 0.09,-0.463 l 0.008,-0.064 c 0.016,-0.155 0.019,-0.31 0.015,-0.467 L 27.625,42.553 C 27.61,42.226 27.544,41.902 27.426,41.59 l -0.01,-0.026 c -0.061,-0.157 -0.134,-0.31 -0.221,-0.458 l -0.001,-0.002 c 0.328,0.785 0.004,1.909 -0.864,2.808 z"
                     id="path747"
                     inkscape:connector-curvature="0" /><path
                     style="fill:#8e613f"
                     d="m 25.84,41.137 0.015,0.04 0.788,-0.775 -0.615,0 c -0.108,0.421 -0.183,0.713 -0.188,0.735 z"
                     id="path749"
                     inkscape:connector-curvature="0" /></g></g><g
                 id="g751"><path
                   style="fill:#e0af79"
                   d="m 28.785,57.517 c 0.363,-0.699 0.444,-1.301 0.249,-1.968 -0.203,-0.636 -0.668,-1.286 -1.421,-1.736 1.021,-1.397 0.798,-3.234 -0.596,-4.359 l -4.681,0.438 c -1.145,1.434 -0.861,3.704 0.684,4.817 -0.49,0.805 -0.613,1.801 -0.312,2.768 0.271,0.948 1.017,1.892 1.985,2.325 l -0.001,0.009 4.093,-2.294 z"
                   id="path753"
                   inkscape:connector-curvature="0" /><path
                   style="fill:#aa784f"
                   d="m 28.785,57.517 c 0.363,-0.699 0.444,-1.301 0.249,-1.968 -0.203,-0.636 -0.668,-1.286 -1.421,-1.736 1.021,-1.397 0.798,-3.234 -0.596,-4.359 l -0.622,0.058 c -0.066,0.422 -0.113,0.716 -0.116,0.738 1.047,1.903 0.639,4.322 0.688,4.4 0.847,1.165 1.087,2.505 1.265,3.177 l 0.553,-0.31 z"
                   id="path755"
                   inkscape:connector-curvature="0" /><g
                   id="g757"><path
                     style="fill:#c99561"
                     d="m 28.113,56.951 c 0,0 -0.175,0.313 -0.314,0.616 -0.146,0.311 -0.277,0.658 -0.277,0.658 l 1.262,-0.707 c 0.595,-1.068 0.427,-2.218 -0.5,-3.181 0.466,0.645 0.389,1.605 -0.171,2.614 z"
                     id="path759"
                     inkscape:connector-curvature="0" /><path
                     style="fill:#c99561"
                     d="m 22.267,53.942 c 0.21,0.294 0.463,0.557 0.759,0.772 0,0 0.904,-1.446 1.918,-2.739 1.003,-1.309 2.062,-2.52 2.062,-2.52 l -1.443,0.135 c 0,0 -0.859,1.016 -1.7,2.101 -0.404,0.555 -0.809,1.11 -1.112,1.526 -0.302,0.426 -0.484,0.725 -0.484,0.725 z"
                     id="path761"
                     inkscape:connector-curvature="0" /><path
                     style="fill:#c99561"
                     d="m 27.623,50.081 c 0.396,0.731 0.203,1.824 -0.548,2.806 0,0 -1.038,1.32 -1.931,2.831 -0.426,0.755 -0.861,1.559 -1.092,2.223 -0.244,0.662 -0.385,1.144 -0.385,1.144 0.317,0.307 0.667,0.555 1.034,0.719 0,0 0.08,-0.485 0.252,-1.133 0.204,-0.647 0.516,-1.427 0.921,-2.151 0.385,-0.724 0.821,-1.396 1.164,-1.894 0.332,-0.49 0.571,-0.807 0.571,-0.807 0.866,-1.174 0.832,-2.614 0.014,-3.738 z"
                     id="path763"
                     inkscape:connector-curvature="0" /></g><g
                   id="g765"><path
                     style="fill:#f7c99a"
                     d="m 26.872,49.625 c 0,0 -1.05,1.206 -2.036,2.509 -0.496,0.65 -0.981,1.324 -1.32,1.847 -0.345,0.531 -0.575,0.885 -0.575,0.885 -0.341,0.594 -0.516,1.383 -0.344,2.224 0.144,0.823 0.604,1.689 1.375,2.263 -0.478,-0.569 -0.612,-1.59 -0.461,-2.674 0.143,-1.091 0.57,-2.254 1.067,-3.301 1.01,-2.096 2.294,-3.753 2.294,-3.753 z"
                     id="path767"
                     inkscape:connector-curvature="0" /><path
                     style="fill:#f7c99a"
                     d="m 23.432,49.789 -1.073,0.1 -0.103,0.127 c -0.844,1.042 -0.928,2.978 0.219,4.188 -0.481,-0.893 0.082,-2.714 0.957,-4.415 z"
                     id="path769"
                     inkscape:connector-curvature="0" /><path
                     style="fill:#f7c99a"
                     d="m 25.65,59.274 c -10e-4,-1.519 0.582,-2.811 0.998,-3.747 0.47,-0.948 0.842,-1.53 0.842,-1.53 0,0 -0.218,0.313 -0.544,0.782 -0.334,0.485 -0.74,1.134 -1.115,1.839 -0.378,0.702 -0.689,1.46 -0.876,2.086 -0.165,0.627 -0.242,1.094 -0.242,1.094 l 0.937,-0.524 z"
                     id="path771"
                     inkscape:connector-curvature="0" /></g><g
                   id="g773"><path
                     style="fill:#8e613f"
                     d="m 28.784,57.518 c 0.066,-0.131 0.119,-0.256 0.166,-0.375 l 0.03,-0.076 c 0.042,-0.116 0.076,-0.226 0.098,-0.33 l 0.013,-0.07 c 0.025,-0.128 0.043,-0.252 0.046,-0.372 l 0.001,-0.007 C 29.141,56.163 29.13,56.043 29.109,55.926 L 29.1,55.878 c -0.019,-0.127 -0.045,-0.259 -0.085,-0.382 l -0.011,-0.03 c -0.085,-0.264 -0.234,-0.493 -0.401,-0.75 l -0.014,-0.02 C 28.5,54.572 28.4,54.454 28.286,54.341 l -0.002,-0.002 c 0.464,0.645 0.387,1.604 -0.173,2.612 l -0.069,0.127 c 0.081,0.288 0.15,0.525 0.188,0.749 l 0.554,-0.309 z"
                     id="path775"
                     inkscape:connector-curvature="0" /><path
                     style="fill:#8e613f"
                     d="m 27.075,52.887 -0.088,0.117 c 0.051,0.914 -0.035,1.611 -0.02,1.646 l 0.028,0.041 c 0,0 0.151,-0.219 0.303,-0.439 0.156,-0.216 0.312,-0.433 0.312,-0.433 0.098,-0.132 0.18,-0.269 0.254,-0.406 l 0.046,-0.086 c 0.067,-0.133 0.124,-0.266 0.169,-0.401 l 0.024,-0.078 c 0.043,-0.14 0.075,-0.277 0.102,-0.423 l 0.002,-0.008 c 0.026,-0.15 0.037,-0.301 0.039,-0.451 l 0.001,-0.062 c -0.001,-0.149 -0.014,-0.297 -0.038,-0.443 l -0.007,-0.035 c -0.06,-0.303 -0.151,-0.612 -0.3,-0.899 L 27.89,50.503 c -0.076,-0.144 -0.163,-0.285 -0.264,-0.419 l -0.002,-0.002 c 0.395,0.732 0.202,1.824 -0.549,2.805 z"
                     id="path777"
                     inkscape:connector-curvature="0" /><path
                     style="fill:#8e613f"
                     d="m 26.279,50.25 0.019,0.038 0.708,-0.833 -0.612,0.057 c -0.065,0.423 -0.111,0.716 -0.115,0.738 z"
                     id="path779"
                     inkscape:connector-curvature="0" /></g></g><g
                 id="g781"><path
                   style="fill:#f7c99a"
                   d="m 28.766,57.528 c -0.005,0.031 -0.318,0.505 -0.876,1.232 -0.575,0.661 -1.341,1.662 -3.195,1.049 l 4.071,-2.281 z"
                   id="path783"
                   inkscape:connector-curvature="0" /><path
                   style="fill:#c99561"
                   d="m 28.766,57.528 -1.262,0.707 c 0,0 -0.059,0.144 -0.165,0.404 -0.107,0.251 -0.267,0.62 -0.482,1.066 0.688,-0.41 1.103,-1.045 1.423,-1.466 0.31,-0.43 0.484,-0.691 0.486,-0.711 z"
                   id="path785"
                   inkscape:connector-curvature="0" /><path
                   style="fill:#8e613f"
                   d="m 27.532,59.163 c 0.405,-0.425 0.698,-0.861 0.91,-1.152 0.208,-0.286 0.323,-0.471 0.324,-0.483 l -0.517,0.29 c 0,0 -0.068,0.147 -0.187,0.366 -0.127,0.233 -0.31,0.568 -0.539,0.986 l 0.009,-0.007 z"
                   id="path787"
                   inkscape:connector-curvature="0" /></g></g></g></g></g></g></g><g
     id="nyt_x5F_exporter_x5F_info"
     style="display:none"
     transform="translate(0.47098976,26.976244)" /></svg>